<?xml version="1.0" encoding="UTF-8" standalone="no"?>
<!-- Created with Inkscape (http://www.inkscape.org/) -->

<svg
   xmlns:dc="http://purl.org/dc/elements/1.1/"
   xmlns:cc="http://creativecommons.org/ns#"
   xmlns:rdf="http://www.w3.org/1999/02/22-rdf-syntax-ns#"
   xmlns:svg="http://www.w3.org/2000/svg"
   xmlns="http://www.w3.org/2000/svg"
   xmlns:sodipodi="http://sodipodi.sourceforge.net/DTD/sodipodi-0.dtd"
   xmlns:inkscape="http://www.inkscape.org/namespaces/inkscape"
   id="svg59838"
   version="1.1"
   inkscape:version="0.91+devel+osxmenu r12835"
   xml:space="preserve"
   width="706.25"
   height="768.75"
   viewBox="0 0 706.25 768.75"
   sodipodi:docname="Figure_S4_PowerSpectrum.svg"><metadata
     id="metadata59844"><rdf:RDF><cc:Work
         rdf:about=""><dc:format>image/svg+xml</dc:format><dc:type
           rdf:resource="http://purl.org/dc/dcmitype/StillImage" /><dc:title></dc:title></cc:Work></rdf:RDF></metadata><defs
     id="defs59842"><clipPath
       clipPathUnits="userSpaceOnUse"
       id="clipPath59856"><path
         d="m 59.04,73.44 476.22,0 0,482.52 -476.22,0 0,-482.52 z"
         id="path59858"
         inkscape:connector-curvature="0" /></clipPath><clipPath
       clipPathUnits="userSpaceOnUse"
       id="clipPath60022"><path
         d="m 59.04,73.44 476.22,0 0,482.52 -476.22,0 0,-482.52 z"
         id="path60024"
         inkscape:connector-curvature="0" /></clipPath></defs><sodipodi:namedview
     pagecolor="#ffffff"
     bordercolor="#666666"
     borderopacity="1"
     objecttolerance="10"
     gridtolerance="10"
     guidetolerance="10"
     inkscape:pageopacity="0"
     inkscape:pageshadow="2"
     inkscape:window-width="816"
     inkscape:window-height="480"
     id="namedview59840"
     showgrid="false"
     inkscape:zoom="0.30699187"
     inkscape:cx="353.125"
     inkscape:cy="384.375"
     inkscape:window-x="0"
     inkscape:window-y="23"
     inkscape:window-maximized="0"
     inkscape:current-layer="g59846" /><g
     id="g59846"
     inkscape:groupmode="layer"
     inkscape:label="FigureS4-PowerSpectrum"
     transform="matrix(1.25,0,0,-1.25,0,768.75)"><g
       id="g59848"><path
         d="m 0,0 565.5,0 0,615 L 0,615 0,0 Z"
         style="fill:#ffffff;fill-opacity:1;fill-rule:nonzero;stroke:none"
         id="path59850"
         inkscape:connector-curvature="0" /></g><g
       id="g59852"><g
         id="g59854"
         clip-path="url(#clipPath59856)" /></g><g
       id="g59860"><text
         transform="matrix(1,0,0,-1,133.11,578.66)"
         style="font-variant:normal;font-weight:bold;font-size:19px;font-family:Helvetica;-inkscape-font-specification:Helvetica-Bold;writing-mode:lr-tb;fill:#000000;fill-opacity:1;fill-rule:nonzero;stroke:none"
         id="text59862"><tspan
           x="0 11.609 23.218 34.827 42.217999 47.5 58.063999 65.455002 70.737 81.301003 92.910004 103.474 109.801 116.128 121.41 131.974 137.256 147.82001 159.429 165.756 176.32001 181.60201 193.211 204.535 219.317 229.881 237.272 242.554 253.118 264.72699 275.29099 285.85501 292.18201 299.573 311.18201"
           y="0"
           sodipodi:role="line"
           id="tspan59864">Fourier coefficients power spectrum</tspan></text>
<text
         transform="matrix(1,0,0,-1,248.69,4.32)"
         style="font-variant:normal;font-weight:normal;font-size:16px;font-family:Helvetica;-inkscape-font-specification:Helvetica;writing-mode:lr-tb;fill:#000000;fill-opacity:1;fill-rule:nonzero;stroke:none"
         id="text59866"><tspan
           x="0 5.3280001 14.224 23.120001 32.015999 36.464001 45.360001 54.256001 58.703999 62.256001 65.807999 74.704002 83.599998 91.599998"
           y="0"
           sodipodi:role="line"
           id="tspan59868">(423 outlines)</tspan></text>
<text
         transform="matrix(1,0,0,-1,220.49,18.72)"
         style="font-variant:normal;font-weight:normal;font-size:16px;font-family:Helvetica;-inkscape-font-specification:Helvetica;writing-mode:lr-tb;fill:#000000;fill-opacity:1;fill-rule:nonzero;stroke:none"
         id="text59870"><tspan
           x="0 11.552 20.448 33.776001 42.672001 51.568001 56.896 61.344002 70.239998 74.688004 79.136002 88.031998 96.928001 102.656 115.984 124.88 133.776 137.328 145.328"
           y="0"
           sodipodi:role="line"
           id="tspan59872">Number of harmonics</tspan></text>
<text
         transform="matrix(0,1,1,0,12.96,176.72)"
         style="font-variant:normal;font-weight:normal;font-size:16px;font-family:Helvetica;-inkscape-font-specification:Helvetica;writing-mode:lr-tb;fill:#000000;fill-opacity:1;fill-rule:nonzero;stroke:none"
         id="text59874"><tspan
           x="0 11.552 20.448 33.616001 42.512001 46.063999 54.959999 59.408001 62.959999 70.559998 79.456001 83.903999 92.800003 101.696 107.424 120.752 129.64799 138.54401 142.09599 150.09599 154.54401 163.44 172.09599 183.48801 192.384 197.71201 202.16 206.608 211.056 219.952 228.84801 237.744 246.64 251.088 256.41599 270.64001"
           y="0"
           sodipodi:role="line"
           id="tspan59876">Cumulative harmonic power / h100 (%)</tspan></text>
</g><g
       id="g59878"><path
         d="m 59.04,73.44 476.22,0"
         style="fill:none;stroke:#000000;stroke-width:0.75;stroke-linecap:round;stroke-linejoin:round;stroke-miterlimit:10;stroke-dasharray:none;stroke-opacity:1"
         id="path59880"
         inkscape:connector-curvature="0" /><path
         d="m 59.04,73.44 0,-7.2"
         style="fill:none;stroke:#000000;stroke-width:0.75;stroke-linecap:round;stroke-linejoin:round;stroke-miterlimit:10;stroke-dasharray:none;stroke-opacity:1"
         id="path59882"
         inkscape:connector-curvature="0" /><path
         d="m 82.85,73.44 0,-7.2"
         style="fill:none;stroke:#000000;stroke-width:0.75;stroke-linecap:round;stroke-linejoin:round;stroke-miterlimit:10;stroke-dasharray:none;stroke-opacity:1"
         id="path59884"
         inkscape:connector-curvature="0" /><path
         d="m 106.66,73.44 0,-7.2"
         style="fill:none;stroke:#000000;stroke-width:0.75;stroke-linecap:round;stroke-linejoin:round;stroke-miterlimit:10;stroke-dasharray:none;stroke-opacity:1"
         id="path59886"
         inkscape:connector-curvature="0" /><path
         d="m 130.47,73.44 0,-7.2"
         style="fill:none;stroke:#000000;stroke-width:0.75;stroke-linecap:round;stroke-linejoin:round;stroke-miterlimit:10;stroke-dasharray:none;stroke-opacity:1"
         id="path59888"
         inkscape:connector-curvature="0" /><path
         d="m 154.28,73.44 0,-7.2"
         style="fill:none;stroke:#000000;stroke-width:0.75;stroke-linecap:round;stroke-linejoin:round;stroke-miterlimit:10;stroke-dasharray:none;stroke-opacity:1"
         id="path59890"
         inkscape:connector-curvature="0" /><path
         d="m 178.1,73.44 0,-7.2"
         style="fill:none;stroke:#000000;stroke-width:0.75;stroke-linecap:round;stroke-linejoin:round;stroke-miterlimit:10;stroke-dasharray:none;stroke-opacity:1"
         id="path59892"
         inkscape:connector-curvature="0" /><path
         d="m 201.91,73.44 0,-7.2"
         style="fill:none;stroke:#000000;stroke-width:0.75;stroke-linecap:round;stroke-linejoin:round;stroke-miterlimit:10;stroke-dasharray:none;stroke-opacity:1"
         id="path59894"
         inkscape:connector-curvature="0" /><path
         d="m 225.72,73.44 0,-7.2"
         style="fill:none;stroke:#000000;stroke-width:0.75;stroke-linecap:round;stroke-linejoin:round;stroke-miterlimit:10;stroke-dasharray:none;stroke-opacity:1"
         id="path59896"
         inkscape:connector-curvature="0" /><path
         d="m 249.53,73.44 0,-7.2"
         style="fill:none;stroke:#000000;stroke-width:0.75;stroke-linecap:round;stroke-linejoin:round;stroke-miterlimit:10;stroke-dasharray:none;stroke-opacity:1"
         id="path59898"
         inkscape:connector-curvature="0" /><path
         d="m 273.34,73.44 0,-7.2"
         style="fill:none;stroke:#000000;stroke-width:0.75;stroke-linecap:round;stroke-linejoin:round;stroke-miterlimit:10;stroke-dasharray:none;stroke-opacity:1"
         id="path59900"
         inkscape:connector-curvature="0" /><path
         d="m 297.15,73.44 0,-7.2"
         style="fill:none;stroke:#000000;stroke-width:0.75;stroke-linecap:round;stroke-linejoin:round;stroke-miterlimit:10;stroke-dasharray:none;stroke-opacity:1"
         id="path59902"
         inkscape:connector-curvature="0" /><path
         d="m 320.96,73.44 0,-7.2"
         style="fill:none;stroke:#000000;stroke-width:0.75;stroke-linecap:round;stroke-linejoin:round;stroke-miterlimit:10;stroke-dasharray:none;stroke-opacity:1"
         id="path59904"
         inkscape:connector-curvature="0" /><path
         d="m 344.77,73.44 0,-7.2"
         style="fill:none;stroke:#000000;stroke-width:0.75;stroke-linecap:round;stroke-linejoin:round;stroke-miterlimit:10;stroke-dasharray:none;stroke-opacity:1"
         id="path59906"
         inkscape:connector-curvature="0" /><path
         d="m 368.58,73.44 0,-7.2"
         style="fill:none;stroke:#000000;stroke-width:0.75;stroke-linecap:round;stroke-linejoin:round;stroke-miterlimit:10;stroke-dasharray:none;stroke-opacity:1"
         id="path59908"
         inkscape:connector-curvature="0" /><path
         d="m 392.39,73.44 0,-7.2"
         style="fill:none;stroke:#000000;stroke-width:0.75;stroke-linecap:round;stroke-linejoin:round;stroke-miterlimit:10;stroke-dasharray:none;stroke-opacity:1"
         id="path59910"
         inkscape:connector-curvature="0" /><path
         d="m 416.21,73.44 0,-7.2"
         style="fill:none;stroke:#000000;stroke-width:0.75;stroke-linecap:round;stroke-linejoin:round;stroke-miterlimit:10;stroke-dasharray:none;stroke-opacity:1"
         id="path59912"
         inkscape:connector-curvature="0" /><path
         d="m 440.02,73.44 0,-7.2"
         style="fill:none;stroke:#000000;stroke-width:0.75;stroke-linecap:round;stroke-linejoin:round;stroke-miterlimit:10;stroke-dasharray:none;stroke-opacity:1"
         id="path59914"
         inkscape:connector-curvature="0" /><path
         d="m 463.83,73.44 0,-7.2"
         style="fill:none;stroke:#000000;stroke-width:0.75;stroke-linecap:round;stroke-linejoin:round;stroke-miterlimit:10;stroke-dasharray:none;stroke-opacity:1"
         id="path59916"
         inkscape:connector-curvature="0" /><path
         d="m 487.64,73.44 0,-7.2"
         style="fill:none;stroke:#000000;stroke-width:0.75;stroke-linecap:round;stroke-linejoin:round;stroke-miterlimit:10;stroke-dasharray:none;stroke-opacity:1"
         id="path59918"
         inkscape:connector-curvature="0" /><path
         d="m 511.45,73.44 0,-7.2"
         style="fill:none;stroke:#000000;stroke-width:0.75;stroke-linecap:round;stroke-linejoin:round;stroke-miterlimit:10;stroke-dasharray:none;stroke-opacity:1"
         id="path59920"
         inkscape:connector-curvature="0" /><path
         d="m 535.26,73.44 0,-7.2"
         style="fill:none;stroke:#000000;stroke-width:0.75;stroke-linecap:round;stroke-linejoin:round;stroke-miterlimit:10;stroke-dasharray:none;stroke-opacity:1"
         id="path59922"
         inkscape:connector-curvature="0" /><text
         transform="matrix(1,0,0,-1,54.59,47.52)"
         style="font-variant:normal;font-weight:normal;font-size:16px;font-family:Helvetica;-inkscape-font-specification:Helvetica;writing-mode:lr-tb;fill:#000000;fill-opacity:1;fill-rule:nonzero;stroke:none"
         id="text59924"><tspan
           x="0"
           y="0"
           id="tspan59926">2</tspan></text>
<text
         transform="matrix(1,0,0,-1,78.4,47.52)"
         style="font-variant:normal;font-weight:normal;font-size:16px;font-family:Helvetica;-inkscape-font-specification:Helvetica;writing-mode:lr-tb;fill:#000000;fill-opacity:1;fill-rule:nonzero;stroke:none"
         id="text59928"><tspan
           x="0"
           y="0"
           id="tspan59930">3</tspan></text>
<text
         transform="matrix(1,0,0,-1,102.21,47.52)"
         style="font-variant:normal;font-weight:normal;font-size:16px;font-family:Helvetica;-inkscape-font-specification:Helvetica;writing-mode:lr-tb;fill:#000000;fill-opacity:1;fill-rule:nonzero;stroke:none"
         id="text59932"><tspan
           x="0"
           y="0"
           id="tspan59934">4</tspan></text>
<text
         transform="matrix(1,0,0,-1,126.03,47.52)"
         style="font-variant:normal;font-weight:normal;font-size:16px;font-family:Helvetica;-inkscape-font-specification:Helvetica;writing-mode:lr-tb;fill:#000000;fill-opacity:1;fill-rule:nonzero;stroke:none"
         id="text59936"><tspan
           x="0"
           y="0"
           id="tspan59938">5</tspan></text>
<text
         transform="matrix(1,0,0,-1,149.84,47.52)"
         style="font-variant:normal;font-weight:normal;font-size:16px;font-family:Helvetica;-inkscape-font-specification:Helvetica;writing-mode:lr-tb;fill:#000000;fill-opacity:1;fill-rule:nonzero;stroke:none"
         id="text59940"><tspan
           x="0"
           y="0"
           id="tspan59942">6</tspan></text>
<text
         transform="matrix(1,0,0,-1,173.65,47.52)"
         style="font-variant:normal;font-weight:normal;font-size:16px;font-family:Helvetica;-inkscape-font-specification:Helvetica;writing-mode:lr-tb;fill:#000000;fill-opacity:1;fill-rule:nonzero;stroke:none"
         id="text59944"><tspan
           x="0"
           y="0"
           id="tspan59946">7</tspan></text>
<text
         transform="matrix(1,0,0,-1,197.46,47.52)"
         style="font-variant:normal;font-weight:normal;font-size:16px;font-family:Helvetica;-inkscape-font-specification:Helvetica;writing-mode:lr-tb;fill:#000000;fill-opacity:1;fill-rule:nonzero;stroke:none"
         id="text59948"><tspan
           x="0"
           y="0"
           id="tspan59950">8</tspan></text>
<text
         transform="matrix(1,0,0,-1,221.27,47.52)"
         style="font-variant:normal;font-weight:normal;font-size:16px;font-family:Helvetica;-inkscape-font-specification:Helvetica;writing-mode:lr-tb;fill:#000000;fill-opacity:1;fill-rule:nonzero;stroke:none"
         id="text59952"><tspan
           x="0"
           y="0"
           id="tspan59954">9</tspan></text>
<text
         transform="matrix(1,0,0,-1,264.44,47.52)"
         style="font-variant:normal;font-weight:normal;font-size:16px;font-family:Helvetica;-inkscape-font-specification:Helvetica;writing-mode:lr-tb;fill:#000000;fill-opacity:1;fill-rule:nonzero;stroke:none"
         id="text59956"><tspan
           x="0 8.8959999"
           y="0"
           sodipodi:role="line"
           id="tspan59958">11</tspan></text>
<text
         transform="matrix(1,0,0,-1,312.07,47.52)"
         style="font-variant:normal;font-weight:normal;font-size:16px;font-family:Helvetica;-inkscape-font-specification:Helvetica;writing-mode:lr-tb;fill:#000000;fill-opacity:1;fill-rule:nonzero;stroke:none"
         id="text59960"><tspan
           x="0 8.8959999"
           y="0"
           sodipodi:role="line"
           id="tspan59962">13</tspan></text>
<text
         transform="matrix(1,0,0,-1,359.69,47.52)"
         style="font-variant:normal;font-weight:normal;font-size:16px;font-family:Helvetica;-inkscape-font-specification:Helvetica;writing-mode:lr-tb;fill:#000000;fill-opacity:1;fill-rule:nonzero;stroke:none"
         id="text59964"><tspan
           x="0 8.8959999"
           y="0"
           sodipodi:role="line"
           id="tspan59966">15</tspan></text>
<text
         transform="matrix(1,0,0,-1,407.31,47.52)"
         style="font-variant:normal;font-weight:normal;font-size:16px;font-family:Helvetica;-inkscape-font-specification:Helvetica;writing-mode:lr-tb;fill:#000000;fill-opacity:1;fill-rule:nonzero;stroke:none"
         id="text59968"><tspan
           x="0 8.8959999"
           y="0"
           sodipodi:role="line"
           id="tspan59970">17</tspan></text>
<text
         transform="matrix(1,0,0,-1,454.93,47.52)"
         style="font-variant:normal;font-weight:normal;font-size:16px;font-family:Helvetica;-inkscape-font-specification:Helvetica;writing-mode:lr-tb;fill:#000000;fill-opacity:1;fill-rule:nonzero;stroke:none"
         id="text59972"><tspan
           x="0 8.8959999"
           y="0"
           sodipodi:role="line"
           id="tspan59974">19</tspan></text>
<text
         transform="matrix(1,0,0,-1,502.55,47.52)"
         style="font-variant:normal;font-weight:normal;font-size:16px;font-family:Helvetica;-inkscape-font-specification:Helvetica;writing-mode:lr-tb;fill:#000000;fill-opacity:1;fill-rule:nonzero;stroke:none"
         id="text59976"><tspan
           x="0 8.8959999"
           y="0"
           sodipodi:role="line"
           id="tspan59978">21</tspan></text>
<path
         d="m 59.04,73.44 0,482.52"
         style="fill:none;stroke:#000000;stroke-width:0.75;stroke-linecap:round;stroke-linejoin:round;stroke-miterlimit:10;stroke-dasharray:none;stroke-opacity:1"
         id="path59980"
         inkscape:connector-curvature="0" /><path
         d="m 59.04,73.44 -7.2,0"
         style="fill:none;stroke:#000000;stroke-width:0.75;stroke-linecap:round;stroke-linejoin:round;stroke-miterlimit:10;stroke-dasharray:none;stroke-opacity:1"
         id="path59982"
         inkscape:connector-curvature="0" /><path
         d="m 59.04,169.94 -7.2,0"
         style="fill:none;stroke:#000000;stroke-width:0.75;stroke-linecap:round;stroke-linejoin:round;stroke-miterlimit:10;stroke-dasharray:none;stroke-opacity:1"
         id="path59984"
         inkscape:connector-curvature="0" /><path
         d="m 59.04,266.45 -7.2,0"
         style="fill:none;stroke:#000000;stroke-width:0.75;stroke-linecap:round;stroke-linejoin:round;stroke-miterlimit:10;stroke-dasharray:none;stroke-opacity:1"
         id="path59986"
         inkscape:connector-curvature="0" /><path
         d="m 59.04,362.95 -7.2,0"
         style="fill:none;stroke:#000000;stroke-width:0.75;stroke-linecap:round;stroke-linejoin:round;stroke-miterlimit:10;stroke-dasharray:none;stroke-opacity:1"
         id="path59988"
         inkscape:connector-curvature="0" /><path
         d="m 59.04,459.46 -7.2,0"
         style="fill:none;stroke:#000000;stroke-width:0.75;stroke-linecap:round;stroke-linejoin:round;stroke-miterlimit:10;stroke-dasharray:none;stroke-opacity:1"
         id="path59990"
         inkscape:connector-curvature="0" /><path
         d="m 59.04,555.96 -7.2,0"
         style="fill:none;stroke:#000000;stroke-width:0.75;stroke-linecap:round;stroke-linejoin:round;stroke-miterlimit:10;stroke-dasharray:none;stroke-opacity:1"
         id="path59992"
         inkscape:connector-curvature="0" /><text
         transform="matrix(1,0,0,-1,35.74,67.7)"
         style="font-variant:normal;font-weight:normal;font-size:16px;font-family:Helvetica;-inkscape-font-specification:Helvetica;writing-mode:lr-tb;fill:#000000;fill-opacity:1;fill-rule:nonzero;stroke:none"
         id="text59994"><tspan
           x="0"
           y="0"
           id="tspan59996">0</tspan></text>
<text
         transform="matrix(1,0,0,-1,26.85,164.2)"
         style="font-variant:normal;font-weight:normal;font-size:16px;font-family:Helvetica;-inkscape-font-specification:Helvetica;writing-mode:lr-tb;fill:#000000;fill-opacity:1;fill-rule:nonzero;stroke:none"
         id="text59998"><tspan
           x="0 8.8959999"
           y="0"
           sodipodi:role="line"
           id="tspan60000">20</tspan></text>
<text
         transform="matrix(1,0,0,-1,26.85,260.7)"
         style="font-variant:normal;font-weight:normal;font-size:16px;font-family:Helvetica;-inkscape-font-specification:Helvetica;writing-mode:lr-tb;fill:#000000;fill-opacity:1;fill-rule:nonzero;stroke:none"
         id="text60002"><tspan
           x="0 8.8959999"
           y="0"
           sodipodi:role="line"
           id="tspan60004">40</tspan></text>
<text
         transform="matrix(1,0,0,-1,26.85,357.21)"
         style="font-variant:normal;font-weight:normal;font-size:16px;font-family:Helvetica;-inkscape-font-specification:Helvetica;writing-mode:lr-tb;fill:#000000;fill-opacity:1;fill-rule:nonzero;stroke:none"
         id="text60006"><tspan
           x="0 8.8959999"
           y="0"
           sodipodi:role="line"
           id="tspan60008">60</tspan></text>
<text
         transform="matrix(1,0,0,-1,26.85,453.71)"
         style="font-variant:normal;font-weight:normal;font-size:16px;font-family:Helvetica;-inkscape-font-specification:Helvetica;writing-mode:lr-tb;fill:#000000;fill-opacity:1;fill-rule:nonzero;stroke:none"
         id="text60010"><tspan
           x="0 8.8959999"
           y="0"
           sodipodi:role="line"
           id="tspan60012">80</tspan></text>
<text
         transform="matrix(1,0,0,-1,17.95,550.22)"
         style="font-variant:normal;font-weight:normal;font-size:16px;font-family:Helvetica;-inkscape-font-specification:Helvetica;writing-mode:lr-tb;fill:#000000;fill-opacity:1;fill-rule:nonzero;stroke:none"
         id="text60014"><tspan
           x="0 8.8959999 17.792"
           y="0"
           sodipodi:role="line"
           id="tspan60016">100</tspan></text>
</g><g
       id="g60018"><g
         id="g60020"
         clip-path="url(#clipPath60022)"><path
           d="m 59.04,102.2 23.81,170.12 23.81,109.05 23.81,52.42 23.81,52.1 23.82,25.32 23.81,22.65 23.81,3.9 23.81,4.13 23.81,5.09 23.81,0.97 23.81,0.99 23.81,0.71 23.81,1.22 23.81,0.82 23.82,0.68 23.81,0.36 23.81,0.22 23.81,0.15 23.81,0.57 23.81,0.41 23.81,0.43 6.43,0.04 0,1.29 -6.43,0 -23.81,-0.02 -23.81,-0.02 -23.81,-0.01 -23.81,-0.03 -23.81,-0.04 -23.81,-0.02 -23.82,-0.04 -23.81,-0.02 -23.81,-0.01 -23.81,-0.21 -23.81,-0.02 -23.81,-0.09 -23.81,-0.11 -23.81,-0.15 -23.81,-0.76 -23.81,-0.44 -23.82,-0.63 -23.81,-3.42 -23.81,-6.23 -23.81,-28.19 -23.81,-62.9 0,-350.28 z"
           style="fill:#b3b3b3;fill-opacity:1;fill-rule:nonzero;stroke:none"
           id="path60026"
           inkscape:connector-curvature="0" /><path
           d="m 59.04,260.75 23.81,129.15 23.81,63.97 23.81,53.26 23.81,25.62 23.82,9.78 23.81,4.79 23.81,2.52 23.81,1.61 23.81,0.98 23.81,0.64 23.81,0.61 23.81,0.38 23.81,0.29 23.81,0.2 23.82,0.2 23.81,0.16 23.81,0.15 23.81,0.1 23.81,0.09 23.81,0.08 23.81,0.07 6.43,0.02 0,0.25 -6.43,-0.01 -23.81,-0.04 -23.81,-0.04 -23.81,-0.04 -23.81,-0.06 -23.81,-0.07 -23.81,-0.08 -23.82,-0.11 -23.81,-0.12 -23.81,-0.15 -23.81,-0.22 -23.81,-0.26 -23.81,-0.36 -23.81,-0.5 -23.81,-0.82 -23.81,-1.29 -23.81,-2.19 -23.82,-4.38 -23.81,-9.92 -23.81,-31.13 -23.81,-61.73 -23.81,-87.48 0,-93.92 z"
           style="fill:#919191;fill-opacity:1;fill-rule:nonzero;stroke:none"
           id="path60028"
           inkscape:connector-curvature="0" /><path
           d="m 59.04,304.29 23.81,112.8 23.81,58.5 23.81,48.08 23.81,16.18 23.82,6.97 23.81,3.07 23.81,1.72 23.81,1.22 23.81,0.67 23.81,0.48 23.81,0.33 23.81,0.3 23.81,0.19 23.81,0.15 23.82,0.14 23.81,0.13 23.81,0.09 23.81,0.09 23.81,0.07 23.81,0.05 23.81,0.04 6.43,0.01"
           style="fill:none;stroke:#000000;stroke-width:0.75;stroke-linecap:round;stroke-linejoin:round;stroke-miterlimit:10;stroke-dasharray:0, 3;stroke-dashoffset:0;stroke-opacity:1"
           id="path60030"
           inkscape:connector-curvature="0" /><path
           d="m 57.84,304.29 c 0,0.66 0.54,1.2 1.2,1.2 0.66,0 1.2,-0.54 1.2,-1.2 0,-0.66 -0.54,-1.2 -1.2,-1.2 -0.66,0 -1.2,0.54 -1.2,1.2"
           style="fill:#000000;fill-opacity:1;fill-rule:nonzero;stroke:#000000;stroke-width:0.75;stroke-linecap:round;stroke-linejoin:round;stroke-miterlimit:10;stroke-dasharray:none;stroke-opacity:1"
           id="path60032"
           inkscape:connector-curvature="0" /><path
           d="m 81.65,417.09 c 0,0.66 0.54,1.2 1.2,1.2 0.66,0 1.2,-0.54 1.2,-1.2 0,-0.66 -0.54,-1.2 -1.2,-1.2 -0.66,0 -1.2,0.54 -1.2,1.2"
           style="fill:#000000;fill-opacity:1;fill-rule:nonzero;stroke:#000000;stroke-width:0.75;stroke-linecap:round;stroke-linejoin:round;stroke-miterlimit:10;stroke-dasharray:none;stroke-opacity:1"
           id="path60034"
           inkscape:connector-curvature="0" /><path
           d="m 105.46,475.59 c 0,0.66 0.54,1.2 1.2,1.2 0.66,0 1.2,-0.54 1.2,-1.2 0,-0.66 -0.54,-1.2 -1.2,-1.2 -0.66,0 -1.2,0.54 -1.2,1.2"
           style="fill:#000000;fill-opacity:1;fill-rule:nonzero;stroke:#000000;stroke-width:0.75;stroke-linecap:round;stroke-linejoin:round;stroke-miterlimit:10;stroke-dasharray:none;stroke-opacity:1"
           id="path60036"
           inkscape:connector-curvature="0" /><path
           d="m 129.27,523.67 c 0,0.66 0.54,1.2 1.2,1.2 0.66,0 1.2,-0.54 1.2,-1.2 0,-0.66 -0.54,-1.2 -1.2,-1.2 -0.66,0 -1.2,0.54 -1.2,1.2"
           style="fill:#000000;fill-opacity:1;fill-rule:nonzero;stroke:#000000;stroke-width:0.75;stroke-linecap:round;stroke-linejoin:round;stroke-miterlimit:10;stroke-dasharray:none;stroke-opacity:1"
           id="path60038"
           inkscape:connector-curvature="0" /><path
           d="m 153.08,539.85 c 0,0.66 0.54,1.2 1.2,1.2 0.66,0 1.2,-0.54 1.2,-1.2 0,-0.66 -0.54,-1.2 -1.2,-1.2 -0.66,0 -1.2,0.54 -1.2,1.2"
           style="fill:#000000;fill-opacity:1;fill-rule:nonzero;stroke:#000000;stroke-width:0.75;stroke-linecap:round;stroke-linejoin:round;stroke-miterlimit:10;stroke-dasharray:none;stroke-opacity:1"
           id="path60040"
           inkscape:connector-curvature="0" /><path
           d="m 176.9,546.82 c 0,0.66 0.54,1.2 1.2,1.2 0.66,0 1.2,-0.54 1.2,-1.2 0,-0.66 -0.54,-1.2 -1.2,-1.2 -0.66,0 -1.2,0.54 -1.2,1.2"
           style="fill:#000000;fill-opacity:1;fill-rule:nonzero;stroke:#000000;stroke-width:0.75;stroke-linecap:round;stroke-linejoin:round;stroke-miterlimit:10;stroke-dasharray:none;stroke-opacity:1"
           id="path60042"
           inkscape:connector-curvature="0" /><path
           d="m 200.71,549.89 c 0,0.66 0.54,1.2 1.2,1.2 0.66,0 1.2,-0.54 1.2,-1.2 0,-0.66 -0.54,-1.2 -1.2,-1.2 -0.66,0 -1.2,0.54 -1.2,1.2"
           style="fill:#000000;fill-opacity:1;fill-rule:nonzero;stroke:#000000;stroke-width:0.75;stroke-linecap:round;stroke-linejoin:round;stroke-miterlimit:10;stroke-dasharray:none;stroke-opacity:1"
           id="path60044"
           inkscape:connector-curvature="0" /><path
           d="m 224.52,551.61 c 0,0.66 0.54,1.2 1.2,1.2 0.66,0 1.2,-0.54 1.2,-1.2 0,-0.66 -0.54,-1.2 -1.2,-1.2 -0.66,0 -1.2,0.54 -1.2,1.2"
           style="fill:#000000;fill-opacity:1;fill-rule:nonzero;stroke:#000000;stroke-width:0.75;stroke-linecap:round;stroke-linejoin:round;stroke-miterlimit:10;stroke-dasharray:none;stroke-opacity:1"
           id="path60046"
           inkscape:connector-curvature="0" /><path
           d="m 248.33,552.83 c 0,0.66 0.54,1.2 1.2,1.2 0.66,0 1.2,-0.54 1.2,-1.2 0,-0.66 -0.54,-1.2 -1.2,-1.2 -0.66,0 -1.2,0.54 -1.2,1.2"
           style="fill:#000000;fill-opacity:1;fill-rule:nonzero;stroke:#000000;stroke-width:0.75;stroke-linecap:round;stroke-linejoin:round;stroke-miterlimit:10;stroke-dasharray:none;stroke-opacity:1"
           id="path60048"
           inkscape:connector-curvature="0" /><path
           d="m 272.14,553.5 c 0,0.66 0.54,1.2 1.2,1.2 0.66,0 1.2,-0.54 1.2,-1.2 0,-0.66 -0.54,-1.2 -1.2,-1.2 -0.66,0 -1.2,0.54 -1.2,1.2"
           style="fill:#000000;fill-opacity:1;fill-rule:nonzero;stroke:#000000;stroke-width:0.75;stroke-linecap:round;stroke-linejoin:round;stroke-miterlimit:10;stroke-dasharray:none;stroke-opacity:1"
           id="path60050"
           inkscape:connector-curvature="0" /><path
           d="m 295.95,553.98 c 0,0.66 0.54,1.2 1.2,1.2 0.66,0 1.2,-0.54 1.2,-1.2 0,-0.66 -0.54,-1.2 -1.2,-1.2 -0.66,0 -1.2,0.54 -1.2,1.2"
           style="fill:#000000;fill-opacity:1;fill-rule:nonzero;stroke:#000000;stroke-width:0.75;stroke-linecap:round;stroke-linejoin:round;stroke-miterlimit:10;stroke-dasharray:none;stroke-opacity:1"
           id="path60052"
           inkscape:connector-curvature="0" /><path
           d="m 319.76,554.31 c 0,0.66 0.54,1.2 1.2,1.2 0.66,0 1.2,-0.54 1.2,-1.2 0,-0.66 -0.54,-1.2 -1.2,-1.2 -0.66,0 -1.2,0.54 -1.2,1.2"
           style="fill:#000000;fill-opacity:1;fill-rule:nonzero;stroke:#000000;stroke-width:0.75;stroke-linecap:round;stroke-linejoin:round;stroke-miterlimit:10;stroke-dasharray:none;stroke-opacity:1"
           id="path60054"
           inkscape:connector-curvature="0" /><path
           d="m 343.57,554.61 c 0,0.66 0.54,1.2 1.2,1.2 0.66,0 1.2,-0.54 1.2,-1.2 0,-0.66 -0.54,-1.2 -1.2,-1.2 -0.66,0 -1.2,0.54 -1.2,1.2"
           style="fill:#000000;fill-opacity:1;fill-rule:nonzero;stroke:#000000;stroke-width:0.75;stroke-linecap:round;stroke-linejoin:round;stroke-miterlimit:10;stroke-dasharray:none;stroke-opacity:1"
           id="path60056"
           inkscape:connector-curvature="0" /><path
           d="m 367.38,554.8 c 0,0.66 0.54,1.2 1.2,1.2 0.66,0 1.2,-0.54 1.2,-1.2 0,-0.66 -0.54,-1.2 -1.2,-1.2 -0.66,0 -1.2,0.54 -1.2,1.2"
           style="fill:#000000;fill-opacity:1;fill-rule:nonzero;stroke:#000000;stroke-width:0.75;stroke-linecap:round;stroke-linejoin:round;stroke-miterlimit:10;stroke-dasharray:none;stroke-opacity:1"
           id="path60058"
           inkscape:connector-curvature="0" /><path
           d="m 391.19,554.95 c 0,0.66 0.54,1.2 1.2,1.2 0.66,0 1.2,-0.54 1.2,-1.2 0,-0.66 -0.54,-1.2 -1.2,-1.2 -0.66,0 -1.2,0.54 -1.2,1.2"
           style="fill:#000000;fill-opacity:1;fill-rule:nonzero;stroke:#000000;stroke-width:0.75;stroke-linecap:round;stroke-linejoin:round;stroke-miterlimit:10;stroke-dasharray:none;stroke-opacity:1"
           id="path60060"
           inkscape:connector-curvature="0" /><path
           d="m 415.01,555.09 c 0,0.66 0.54,1.2 1.2,1.2 0.66,0 1.2,-0.54 1.2,-1.2 0,-0.66 -0.54,-1.2 -1.2,-1.2 -0.66,0 -1.2,0.54 -1.2,1.2"
           style="fill:#000000;fill-opacity:1;fill-rule:nonzero;stroke:#000000;stroke-width:0.75;stroke-linecap:round;stroke-linejoin:round;stroke-miterlimit:10;stroke-dasharray:none;stroke-opacity:1"
           id="path60062"
           inkscape:connector-curvature="0" /><path
           d="m 438.82,555.22 c 0,0.66 0.54,1.2 1.2,1.2 0.66,0 1.2,-0.54 1.2,-1.2 0,-0.66 -0.54,-1.2 -1.2,-1.2 -0.66,0 -1.2,0.54 -1.2,1.2"
           style="fill:#000000;fill-opacity:1;fill-rule:nonzero;stroke:#000000;stroke-width:0.75;stroke-linecap:round;stroke-linejoin:round;stroke-miterlimit:10;stroke-dasharray:none;stroke-opacity:1"
           id="path60064"
           inkscape:connector-curvature="0" /><path
           d="m 462.63,555.31 c 0,0.66 0.54,1.2 1.2,1.2 0.66,0 1.2,-0.54 1.2,-1.2 0,-0.66 -0.54,-1.2 -1.2,-1.2 -0.66,0 -1.2,0.54 -1.2,1.2"
           style="fill:#000000;fill-opacity:1;fill-rule:nonzero;stroke:#000000;stroke-width:0.75;stroke-linecap:round;stroke-linejoin:round;stroke-miterlimit:10;stroke-dasharray:none;stroke-opacity:1"
           id="path60066"
           inkscape:connector-curvature="0" /><path
           d="m 486.44,555.4 c 0,0.66 0.54,1.2 1.2,1.2 0.66,0 1.2,-0.54 1.2,-1.2 0,-0.66 -0.54,-1.2 -1.2,-1.2 -0.66,0 -1.2,0.54 -1.2,1.2"
           style="fill:#000000;fill-opacity:1;fill-rule:nonzero;stroke:#000000;stroke-width:0.75;stroke-linecap:round;stroke-linejoin:round;stroke-miterlimit:10;stroke-dasharray:none;stroke-opacity:1"
           id="path60068"
           inkscape:connector-curvature="0" /><path
           d="m 510.25,555.47 c 0,0.66 0.54,1.2 1.2,1.2 0.66,0 1.2,-0.54 1.2,-1.2 0,-0.66 -0.54,-1.2 -1.2,-1.2 -0.66,0 -1.2,0.54 -1.2,1.2"
           style="fill:#000000;fill-opacity:1;fill-rule:nonzero;stroke:#000000;stroke-width:0.75;stroke-linecap:round;stroke-linejoin:round;stroke-miterlimit:10;stroke-dasharray:none;stroke-opacity:1"
           id="path60070"
           inkscape:connector-curvature="0" /><path
           d="m 534.06,555.52 c 0,0.66 0.54,1.2 1.2,1.2 0.66,0 1.2,-0.54 1.2,-1.2 0,-0.66 -0.54,-1.2 -1.2,-1.2 -0.66,0 -1.2,0.54 -1.2,1.2"
           style="fill:#000000;fill-opacity:1;fill-rule:nonzero;stroke:#000000;stroke-width:0.75;stroke-linecap:round;stroke-linejoin:round;stroke-miterlimit:10;stroke-dasharray:none;stroke-opacity:1"
           id="path60072"
           inkscape:connector-curvature="0" /><path
           d="m 557.87,555.56 c 0,0.66 0.54,1.2 1.2,1.2 0.66,0 1.2,-0.54 1.2,-1.2 0,-0.66 -0.54,-1.2 -1.2,-1.2 -0.66,0 -1.2,0.54 -1.2,1.2"
           style="fill:#000000;fill-opacity:1;fill-rule:nonzero;stroke:#000000;stroke-width:0.75;stroke-linecap:round;stroke-linejoin:round;stroke-miterlimit:10;stroke-dasharray:none;stroke-opacity:1"
           id="path60074"
           inkscape:connector-curvature="0" /></g></g><g
       id="g60076"><path
         d="m 59.04,73.44 476.22,0 0,482.52 -476.22,0 0,-482.52"
         style="fill:none;stroke:#000000;stroke-width:0.75;stroke-linecap:round;stroke-linejoin:round;stroke-miterlimit:10;stroke-dasharray:none;stroke-opacity:1"
         id="path60078"
         inkscape:connector-curvature="0" /></g></g></svg>