<?xml version="1.0" encoding="UTF-8" standalone="no"?>
<!-- Created with Inkscape (http://www.inkscape.org/) -->

<svg
   xmlns:dc="http://purl.org/dc/elements/1.1/"
   xmlns:cc="http://creativecommons.org/ns#"
   xmlns:rdf="http://www.w3.org/1999/02/22-rdf-syntax-ns#"
   xmlns:svg="http://www.w3.org/2000/svg"
   xmlns="http://www.w3.org/2000/svg"
   xmlns:sodipodi="http://sodipodi.sourceforge.net/DTD/sodipodi-0.dtd"
   xmlns:inkscape="http://www.inkscape.org/namespaces/inkscape"
   id="svg57778"
   version="1.1"
   inkscape:version="0.91+devel+osxmenu r12835"
   xml:space="preserve"
   width="706.25"
   height="768.75"
   viewBox="0 0 706.25 768.75"
   sodipodi:docname="Figure_S1_Bootstrap_Sampling.svg"><metadata
     id="metadata57784"><rdf:RDF><cc:Work
         rdf:about=""><dc:format>image/svg+xml</dc:format><dc:type
           rdf:resource="http://purl.org/dc/dcmitype/StillImage" /><dc:title></dc:title></cc:Work></rdf:RDF></metadata><defs
     id="defs57782"><clipPath
       clipPathUnits="userSpaceOnUse"
       id="clipPath57796"><path
         d="m 59.04,73.44 193.47,0 0,482.52 -193.47,0 0,-482.52 z"
         id="path57798"
         inkscape:connector-curvature="0" /></clipPath><clipPath
       clipPathUnits="userSpaceOnUse"
       id="clipPath57804"><path
         d="m 59.04,73.44 193.47,0 0,482.52 -193.47,0 0,-482.52 z"
         id="path57806"
         inkscape:connector-curvature="0" /></clipPath><clipPath
       clipPathUnits="userSpaceOnUse"
       id="clipPath57882"><path
         d="m 0,0 282.75,0 0,615 L 0,615 0,0 Z"
         id="path57884"
         inkscape:connector-curvature="0" /></clipPath><clipPath
       clipPathUnits="userSpaceOnUse"
       id="clipPath57898"><path
         d="m 59.04,73.44 193.47,0 0,482.52 -193.47,0 0,-482.52 z"
         id="path57900"
         inkscape:connector-curvature="0" /></clipPath><clipPath
       clipPathUnits="userSpaceOnUse"
       id="clipPath57912"><path
         d="m 341.79,73.44 193.47,0 0,482.52 -193.47,0 0,-482.52 z"
         id="path57914"
         inkscape:connector-curvature="0" /></clipPath><clipPath
       clipPathUnits="userSpaceOnUse"
       id="clipPath57920"><path
         d="m 341.79,73.44 193.47,0 0,482.52 -193.47,0 0,-482.52 z"
         id="path57922"
         inkscape:connector-curvature="0" /></clipPath><clipPath
       clipPathUnits="userSpaceOnUse"
       id="clipPath58010"><path
         d="m 282.75,0 282.75,0 0,615 -282.75,0 0,-615 z"
         id="path58012"
         inkscape:connector-curvature="0" /></clipPath><clipPath
       clipPathUnits="userSpaceOnUse"
       id="clipPath58026"><path
         d="m 341.79,73.44 193.47,0 0,482.52 -193.47,0 0,-482.52 z"
         id="path58028"
         inkscape:connector-curvature="0" /></clipPath></defs><sodipodi:namedview
     pagecolor="#ffffff"
     bordercolor="#666666"
     borderopacity="1"
     objecttolerance="10"
     gridtolerance="10"
     guidetolerance="10"
     inkscape:pageopacity="0"
     inkscape:pageshadow="2"
     inkscape:window-width="816"
     inkscape:window-height="480"
     id="namedview57780"
     showgrid="false"
     inkscape:zoom="0.30699187"
     inkscape:cx="353.125"
     inkscape:cy="384.375"
     inkscape:window-x="0"
     inkscape:window-y="23"
     inkscape:window-maximized="0"
     inkscape:current-layer="g57786" /><g
     id="g57786"
     inkscape:groupmode="layer"
     inkscape:label="FigureS1-BootstrapSampling"
     transform="matrix(1.25,0,0,-1.25,0,768.75)"><g
       id="g57788"><path
         d="m 0,0 565.5,0 0,615 L 0,615 0,0 Z"
         style="fill:#ffffff;fill-opacity:1;fill-rule:nonzero;stroke:none"
         id="path57790"
         inkscape:connector-curvature="0" /></g><g
       id="g57792"><g
         id="g57794"
         clip-path="url(#clipPath57796)" /></g><g
       id="g57800"><g
         id="g57802"
         clip-path="url(#clipPath57804)"><path
           d="m 66.21,366.33 0.21,11.02 0.21,-6.96 0.21,1.87 0.21,-6.75 0.22,6.11 0.21,-0.96 0.21,-10.36 0.21,8.33 0.21,2.3 0.22,-3.41 0.21,-0.67 0.21,5.14 0.21,-2.09 0.21,4.05 0.22,-2.69 0.21,-4.87 0.21,1.08 0.21,0.85 0.21,2.89 0.22,-1.74 0.21,-0.21 0.21,-4.03 0.21,4.75 0.21,-2.3 0.22,2.52 0.21,-1.9 0.21,2.46 0.21,2.01 0.21,-1.27 0.22,-3.64 0.21,-3.04 0.21,3.8 0.21,-0.4 0.21,3.34 0.22,-2.23 0.21,-1.06 0.21,0.21 0.21,2.12 0.21,-2.54 0.22,2.04 0.21,-0.99 0.21,1.4 0.21,-0.65 0.21,-2.23 0.22,1.98 0.21,1.37 0.21,-2.37 0.21,2.81 0.21,-1.06 0.22,0.88 0.21,-2.62 0.21,3.39 0.21,0.69 0.21,-3.4 0.22,-3.3 0.21,0.53 0.21,1.63 0.21,2.12 0.21,0.42 0.22,-1.76 0.21,1.44 0.21,-1.46 0.21,1.37 0.21,0.88 0.22,-0.88 0.21,-0.35 0.21,1.66 0.21,-2.16 0.21,-1.56 0.22,-1.54 0.21,5.14 0.21,-1.65 0.21,-0.37 0.21,1.62 0.22,0.66 0.21,-1.65 0.21,-2.62 0.21,2.46 0.21,-0.69 0.22,1.6 0.21,-2.74 0.21,-0.96 0.21,3.2 0.21,-2.89 0.22,2.66 0.21,0.19 0.21,-0.97 0.21,0.78 0.21,-0.74 0.22,2.29 0.21,-3 0.21,0.73 0.21,-0.67 0.21,-3.03 0.22,5.13 0.21,-3.55 0.21,2.75 0.21,-0.8 0.21,2.53 0.22,-1.14 0.21,-0.88 0.21,0 0.21,-0.44 0.21,-1.57 0.22,-0.79 0.21,4.46 0.21,-2.48 0.21,-0.05 0.21,0.94 0.22,-0.69 0.21,-0.39 0.21,0.96 0.21,-0.76 0.21,0.13 0.22,0.57 0.21,-1.42 0.21,0.86 0.21,-0.65 0.21,1.86 0.22,-1.89 0.21,-2.42 0.21,5.04 0.21,-3.27 0.21,2.06 0.22,0.89 0.21,-0.22 0.21,-2.67 0.21,-0.71 0.21,1.7 0.22,-0.02 0.21,2.05 0.21,-0.51 0.21,-0.45 0.21,-0.18 0.22,0.17 0.21,-0.83 0.21,0.88 0.21,-1.58 0.21,-1.48 0.22,3.64 0.21,-2.21 0.21,2.26 0.21,-2.55 0.21,1.6 0.22,0.91 0.21,-1.19 0.21,1.41 0.21,-1.78 0.21,1.99 0.22,-0.93 0.21,-0.34 0.21,-0.69 0.21,1.21 0.21,-1.87 0.22,1.01 0.21,-1.52 0.21,1.76 0.21,-0.17 0.21,0.28 0.22,-1.47 0.21,-0.17 0.21,0.4 0.21,0.24 0.21,1.6 0.22,-1.96 0.21,2.26 0.21,-1.46 0.21,0.48 0.21,-1.57 0.22,2.86 0.21,-1.5 0.21,0.98 0.21,-0.35 0.21,-0.59 0.22,0.04 0.21,0.54 0.21,0.02 0.21,-1.03 0.21,-0.87 0.22,-0.08 0.21,0.98 0.21,0.69 0.21,0.88 0.21,0.04 0.22,-1.36 0.21,1.09 0.21,-2.38 0.21,1.45 0.21,-0.62 0.22,1.89 0.21,-2.67 0.21,2.19 0.21,-0.91 0.21,-1.54 0.22,2.47 0.21,-0.62 0.21,-0.97 0.21,-0.41 0.21,0.26 0.22,-0.98 0.21,2.32 0.21,-1.27 0.21,2.76 0.21,-1.53 0.22,-0.33 0.21,0.3 0.21,-1.69 0.21,1 0.21,0.82 0.22,0.65 0.21,-1.53 0.21,1.33 0.21,-1.18 0.21,-0.67 0.22,1.24 0.21,0.53 0.21,-0.6 0.21,-0.28 0.21,-0.09 0.22,-0.5 0.21,1.48 0.21,0.19 0.21,-0.52 0.21,-0.18 0.22,0.37 0.21,-0.75 0.21,-0.43 0.21,1.64 0.21,-0.56 0.22,0.46 0.21,-0.8 0.21,0.29 0.21,0.94 0.21,-0.65 0.22,0.12 0.21,-2.3 0.21,0.32 0.21,0.94 0.21,0.34 0.22,-0.89 0.21,-0.11 0.21,0.64 0.21,0.06 0.21,0.64 0.22,-0.58 0.21,-1.93 0.21,1.4 0.21,0.28 0.21,1.32 0.22,-1.89 0.21,-0.14 0.21,-0.4 0.21,0.81 0.21,0.15 0.22,-0.76 0.21,1.47 0.21,-0.26 0.21,-0.2 0.21,-0.61 0.22,1.47 0.21,-2.26 0.21,1.58 0.21,0.48 0.21,-1.19 0.22,-0.53 0.21,1.69 0.21,-0.51 0.21,-0.13 0.21,0.01 0.22,-0.48 0.21,0.53 0.21,0.65 0.21,-1.87 0.21,2.36 0.22,-0.74 0.21,1.59 0.21,-1.01 0.21,-0.28 0.21,-0.53 0.22,-0.65 0.21,-0.48 0.21,0.28 0.21,-0.03 0.21,-0.39 0.22,2.14 0.21,-2.96 0.21,3.63 0.21,-3.72 0.21,1.58 0.22,1.14 0.21,0.48 0.21,-0.39 0.21,-1.72 0.21,0.19 0.22,0.38 0.21,0.22 0.21,0.44 0.21,-1.36 0.21,1.81 0.22,-0.86 0.21,0.26 0.21,-2.08 0.21,2.16 0.21,0.29 0.22,-0.3 0.21,-0.78 0.21,0.38 0.21,0.32 0.21,0.69 0.22,-0.39 0.21,0.67 0.21,-1.15 0.21,0.22 0.21,0.54 0.22,-0.57 0.21,0.23 0.21,-0.53 0.21,-0.01 0.21,0.87 0.22,-0.58 0.21,-0.32 0.21,1.64 0.21,-0.87 0.21,0.16 0.22,-0.53 0.21,-0.22 0.21,-0.33 0.21,0.84 0.21,-0.38 0.22,-1.04 0.21,1.2 0.21,-0.01 0.21,-0.81 0.21,0.74 0.22,-0.28 0.21,0.81 0.21,-1.36 0.21,0.57 0.21,-0.16 0.22,0.49 0.21,-0.73 0.21,0.97 0.21,-0.08 0.21,-0.45 0.22,-0.06 0.21,0.4 0.21,-0.98 0.21,0.36 0.21,0.41 0.22,0.48 0.21,0.85 0.21,-0.98 0.21,0.1 0.21,-1.39 0.22,0.39 0.21,-0.24 0.21,0.36 0.21,0.91 0.21,0.34 0.22,0.56 0.21,-0.75 0.21,-0.17 0.21,-1.14 0.21,0.34 0.22,1.42 0.21,-1.12 0.21,-0.64 0.21,-0.14 0.21,0.7 0.22,0.23 0.21,-1.34 0.21,2.27 0.21,-0.74 0.21,0.99 0.22,-1.81 0.21,0.57 0.21,-0.39 0.21,0.05 0.21,-0.48 0.22,0.62 0.21,-0.14 0.21,0.91 0.21,-1.05 0.21,-0.56 0.22,1.8 0.21,-0.88 0.21,-0.47 0.21,0.62 0.21,-0.37 0.22,0.45 0.21,0.07 0.21,-0.87 0.21,0.62 0.21,1.34 0.22,-0.72 0.21,-0.61 0.21,-0.12 0.21,0.06 0.21,-0.08 0.22,-0.54 0.21,0.79 0.21,-0.08 0.21,-0.04 0.21,-0.34 0.22,0.87 0.21,-0.88 0.21,-0.12 0.21,0.68 0.21,-1.34 0.22,0.65 0.21,-0.46 0.21,0.8 0.21,-0.27 0.21,0.2 0.22,0.55 0.21,-0.04 0.21,-0.07 0.21,-0.36 0.21,1.39 0.22,-1.47 0.21,-0.06 0.21,0.55 0.21,-0.38 0.21,-0.2 0.22,0.34 0.21,0.28 0.21,-0.87 0.21,0.75 0.21,-0.2 0.22,-0.09 0.21,-0.67 0.21,0.25 0.21,0.69 0.21,-0.5 0.22,1.67 0.21,-1.67 0.21,1.14 0.21,-1.05 0.21,-1.22 0.22,1.02 0.21,0.18 0.21,0.44 0.21,-0.78 0.21,0.37 0.22,-0.18 0.21,1.12 0.21,0.07 0.21,-0.9 0.21,-0.57 0.22,-0.11 0.21,0.86 0.21,-0.1 0.21,0.45 0.21,-0.89 0.22,-0.03 0.21,-0.7 0.21,0.95 0.21,-0.18 0.21,-0.45 0.22,0.84 0.21,-1.18 0.21,1.88 0.21,-0.37 0.21,-1.57 0.22,1.39 0.21,0.14 0.21,-1.07 0.21,0.51 0.21,0.17 0.22,-0.52 0.21,0.38 0.21,0.32 0.21,-0.19 0.21,-0.2 0.21,0.9 0.22,0.13 0.21,-0.24 0.21,-0.7 0.21,-0.51 0.21,0.16 0.22,0.34 0.21,-0.1 0.21,1.69 0.21,-1.73 0.21,1.11 0.22,-0.66 0.21,1.04 0.21,-1.69 0.21,0.68 0.21,-0.37 0.22,0.23 0.21,0.89 0.21,-0.23 0.21,0.15 0.21,-1.44 0.22,0.06 0.21,0.84 0.21,-0.51 0.21,0.24 0.21,-0.72 0.22,1.34 0.21,-0.72 0.21,1.22 0.21,-0.65 0.21,-0.7 0.22,0.28 0.21,0.07 0.21,0.42 0.21,-0.35 0.21,-1.09 0.22,1.52 0.21,-0.14 0.21,-0.49 0.21,-0.47 0.21,0.84 0.22,-0.38 0.21,0.33 0.21,-0.13 0.21,-0.14 0.21,-0.29 0.22,0.34 0.21,0.16 0.21,-1.05 0.21,0.43 0.21,0.31 0.22,0.03 0.21,-0.7 0.21,0.68 0.21,0.04 0.21,0.47 0.22,-0.27 0.21,-0.83 0.21,1.07 0.21,-0.05 0.21,-0.61 0.22,-0.52 0.21,1.2 0.21,-0.29 0.21,0.05 0.21,1.04 0.22,-1.11 0.21,-0.16 0.21,-0.22 0.21,-0.44 0.21,0.73 0.22,-0.36 0.21,-0.21 0.21,0.29 0.21,1.29 0.21,-1.68 0.22,0.47 0.21,1.12 0.21,-0.8 0.21,0.88 0.21,-1.82 0.22,0.85 0.21,-0.23 0.21,-0.19 0.21,0.07 0.21,0.76 0.22,-0.91 0.21,-0.23 0.21,0.11 0.21,-0.77 0.21,1.62 0.22,-0.21 0.21,0.1 0.21,0.6 0.21,-0.3 0.21,-0.47 0.22,-0.02 0.21,0.3 0.21,-0.59 0.21,0.85 0.21,-0.16 0.22,-0.92 0.21,0.83 0.21,-0.25 0.21,0.49 0.21,-1.1 0.22,0.08 0.21,1.79 0.21,-2.21 0.21,1.34 0.21,-1.09 0.22,0.25 0.21,0.79 0.21,0.38 0.21,-1.17 0.21,0.02 0.22,0.25 0.21,1.06 0.21,-1.11 0.21,0.49 0.21,-0.2 0.22,0.37 0.21,-0.91 0.21,-0.06 0.21,0.44 0.21,1.03 0.22,-1.09 0.21,-0.12 0.21,0.36 0.21,-0.59 0.21,0.38 0.22,1.37 0.21,-0.78 0.21,0.63 0.21,-0.97 0.21,-0.67 0.22,0.04 0.21,0.1 0.21,0.35 0.21,0.41 0.21,-0.14 0.22,-0.54 0.21,0.48 0.21,0.1 0.21,0.44 0.21,0.04 0.22,-1.43 0.21,-0.54 0.21,0.76 0.21,0.49 0.21,-0.6 0.22,0.57 0.21,-0.42 0.21,1.02 0.21,-1.13 0.21,0.2 0.22,0.46 0.21,-0.34 0.21,0.17 0.21,0.1 0.21,-0.4 0.22,0.33 0.21,-0.07 0.21,0.46 0.21,0.09 0.21,-0.23 0.22,-0.64 0.21,1.37 0.21,-1.13 0.21,0.37 0.21,0.29 0.22,-0.92 0.21,-0.82 0.21,1.12 0.21,0.19 0.21,0.12 0.22,0.78 0.21,-0.53 0.21,-0.34 0.21,-0.05 0.21,-0.41 0.22,1.29 0.21,-0.94 0.21,-0.42 0.21,0.54 0.21,0.07 0.22,0.34 0.21,-0.31 0.21,-0.28 0.21,-0.11 0.21,0.61 0.22,-0.37 0.21,0.06 0.21,0.25 0.21,-0.17 0.21,-0.93 0.22,0.31 0.21,0.52 0.21,0.24 0.21,-0.47 0.21,0.13 0.22,-0.04 0.21,-0.07 0.21,0.04 0.21,-0.34 0.21,-0.02 0.22,0.26 0.21,0.38 0.21,-0.55 0.21,-0.49 0.21,0.92 0.22,-0.43 0.21,0.64 0.21,-0.06 0.21,0.18 0.21,-0.36 0.22,-0.34 0.21,1.09 0.21,-1.04 0.21,-0.67 0.21,0.79 0.22,0.43 0.21,0.71 0.21,-0.16 0.21,-1.19 0.21,0.28 0.22,-0.29 0.21,0.18 0.21,-0.12 0.21,0.13 0.21,0.06 0.22,0.1 0.21,-0.45 0.21,0.53 0.21,-1.19 0.21,0.35 0.22,0.75 0.21,-0.18 0.21,-0.15 0.21,0.14 0.21,0.3 0.22,-0.16 0.21,-0.07 0.21,0.51 0.21,0.36 0.21,-0.32 0.22,-0.13 0.21,-0.02 0.21,-0.59 0.21,0.09 0.21,0.09 0.22,-0.48 0.21,0.81 0.21,-0.45 0.21,0.73 0.21,-0.62 0.22,-0.09 0.21,0.23 0.21,0.15 0.21,-0.11 0.21,-0.38 0.22,0.26 0.21,-0.97 0.21,1.11 0.21,-0.79 0.21,0.56 0.22,-0.61 0.21,1.09 0.21,-0.22 0.21,-0.71 0.21,0.78 0.22,-0.55 0.21,0.82 0.21,-0.72 0.21,0.71 0.21,-0.2 0.22,-0.02 0.21,0.29 0.21,-0.46 0.21,-0.13 0.21,0.98 0.22,-0.91 0.21,0.11 0.21,0.58 0.21,-1.13 0.21,0.32 0.22,0.92 0.21,-0.8 0.21,0.33 0.21,-0.5 0.21,0.01 0.22,0.27 0.21,0.07 0.21,-0.44 0.21,0.09 0.21,0.27 0.22,0.08 0.21,-0.18 0.21,0.6 0.21,-0.79 0.21,-0.14 0.22,0.73 0.21,-0.95 0.21,1.16 0.21,-0.18 0.21,-1.04 0.22,0.88 0.21,-0.56 0.21,1.14 0.21,-2.04 0.21,0.73 0.22,0.45 0.21,-0.78 0.21,1.2 0.21,-0.79 0.21,0.75 0.22,-0.06 0.21,-0.05 0.21,-0.38 0.21,-0.14 0.21,0.45 0.22,-0.1 0.21,-0.49 0.21,0.74 0.21,0.2 0.21,-0.05 0.22,-0.54 0.21,-0.06 0.21,-0.2 0.21,0.63 0.21,0.14 0.22,-0.83 0.21,0.38 0.21,-0.09 0.21,0.21 0.21,-0.4 0.22,-0.01 0.21,0.41 0.21,0.27 0.21,-0.3 0.21,-0.3 0.22,0.26 0.21,0.66 0.21,-0.95 0.21,0.07 0.21,-0.51 0.22,1.51 0.21,-1.29 0.21,0.1 0.21,0.75 0.21,-0.6 0.22,1.23 0.21,-0.22 0.21,-0.28 0.21,-0.26 0.21,-0.09 0.22,-0.65 0.21,0.3 0.21,0.14 0.21,0.01 0.21,0.16 0.22,-0.7 0.21,0.46 0.21,-0.06 0.21,0.56 0.21,-0.8 0.22,0.69 0.21,-0.58 0.21,-0.22 0.21,0.32 0.21,0.01"
           style="fill:none;stroke:#000000;stroke-width:0.75;stroke-linecap:round;stroke-linejoin:round;stroke-miterlimit:10;stroke-dasharray:none;stroke-opacity:1"
           id="path57808"
           inkscape:connector-curvature="0" /></g></g><g
       id="g57810"><path
         d="m 65.99,73.44 169.6,0"
         style="fill:none;stroke:#000000;stroke-width:0.75;stroke-linecap:round;stroke-linejoin:round;stroke-miterlimit:10;stroke-dasharray:none;stroke-opacity:1"
         id="path57812"
         inkscape:connector-curvature="0" /><path
         d="m 65.99,73.44 0,-7.2"
         style="fill:none;stroke:#000000;stroke-width:0.75;stroke-linecap:round;stroke-linejoin:round;stroke-miterlimit:10;stroke-dasharray:none;stroke-opacity:1"
         id="path57814"
         inkscape:connector-curvature="0" /><path
         d="m 108.39,73.44 0,-7.2"
         style="fill:none;stroke:#000000;stroke-width:0.75;stroke-linecap:round;stroke-linejoin:round;stroke-miterlimit:10;stroke-dasharray:none;stroke-opacity:1"
         id="path57816"
         inkscape:connector-curvature="0" /><path
         d="m 150.79,73.44 0,-7.2"
         style="fill:none;stroke:#000000;stroke-width:0.75;stroke-linecap:round;stroke-linejoin:round;stroke-miterlimit:10;stroke-dasharray:none;stroke-opacity:1"
         id="path57818"
         inkscape:connector-curvature="0" /><path
         d="m 193.19,73.44 0,-7.2"
         style="fill:none;stroke:#000000;stroke-width:0.75;stroke-linecap:round;stroke-linejoin:round;stroke-miterlimit:10;stroke-dasharray:none;stroke-opacity:1"
         id="path57820"
         inkscape:connector-curvature="0" /><path
         d="m 235.59,73.44 0,-7.2"
         style="fill:none;stroke:#000000;stroke-width:0.75;stroke-linecap:round;stroke-linejoin:round;stroke-miterlimit:10;stroke-dasharray:none;stroke-opacity:1"
         id="path57822"
         inkscape:connector-curvature="0" /><text
         transform="matrix(1,0,0,-1,61.55,47.52)"
         style="font-variant:normal;font-weight:normal;font-size:16px;font-family:Helvetica;-inkscape-font-specification:Helvetica;writing-mode:lr-tb;fill:#000000;fill-opacity:1;fill-rule:nonzero;stroke:none"
         id="text57824"><tspan
           x="0"
           y="0"
           id="tspan57826">0</tspan></text>
<text
         transform="matrix(1,0,0,-1,95.05,47.52)"
         style="font-variant:normal;font-weight:normal;font-size:16px;font-family:Helvetica;-inkscape-font-specification:Helvetica;writing-mode:lr-tb;fill:#000000;fill-opacity:1;fill-rule:nonzero;stroke:none"
         id="text57828"><tspan
           x="0 8.8959999 17.792"
           y="0"
           sodipodi:role="line"
           id="tspan57830">200</tspan></text>
<text
         transform="matrix(1,0,0,-1,137.45,47.52)"
         style="font-variant:normal;font-weight:normal;font-size:16px;font-family:Helvetica;-inkscape-font-specification:Helvetica;writing-mode:lr-tb;fill:#000000;fill-opacity:1;fill-rule:nonzero;stroke:none"
         id="text57832"><tspan
           x="0 8.8959999 17.792"
           y="0"
           sodipodi:role="line"
           id="tspan57834">400</tspan></text>
<text
         transform="matrix(1,0,0,-1,179.85,47.52)"
         style="font-variant:normal;font-weight:normal;font-size:16px;font-family:Helvetica;-inkscape-font-specification:Helvetica;writing-mode:lr-tb;fill:#000000;fill-opacity:1;fill-rule:nonzero;stroke:none"
         id="text57836"><tspan
           x="0 8.8959999 17.792"
           y="0"
           sodipodi:role="line"
           id="tspan57838">600</tspan></text>
<text
         transform="matrix(1,0,0,-1,222.25,47.52)"
         style="font-variant:normal;font-weight:normal;font-size:16px;font-family:Helvetica;-inkscape-font-specification:Helvetica;writing-mode:lr-tb;fill:#000000;fill-opacity:1;fill-rule:nonzero;stroke:none"
         id="text57840"><tspan
           x="0 8.8959999 17.792"
           y="0"
           sodipodi:role="line"
           id="tspan57842">800</tspan></text>
<path
         d="m 59.04,91.31 0,446.78"
         style="fill:none;stroke:#000000;stroke-width:0.75;stroke-linecap:round;stroke-linejoin:round;stroke-miterlimit:10;stroke-dasharray:none;stroke-opacity:1"
         id="path57844"
         inkscape:connector-curvature="0" /><path
         d="m 59.04,91.31 -7.2,0"
         style="fill:none;stroke:#000000;stroke-width:0.75;stroke-linecap:round;stroke-linejoin:round;stroke-miterlimit:10;stroke-dasharray:none;stroke-opacity:1"
         id="path57846"
         inkscape:connector-curvature="0" /><path
         d="m 59.04,203.01 -7.2,0"
         style="fill:none;stroke:#000000;stroke-width:0.75;stroke-linecap:round;stroke-linejoin:round;stroke-miterlimit:10;stroke-dasharray:none;stroke-opacity:1"
         id="path57848"
         inkscape:connector-curvature="0" /><path
         d="m 59.04,314.7 -7.2,0"
         style="fill:none;stroke:#000000;stroke-width:0.75;stroke-linecap:round;stroke-linejoin:round;stroke-miterlimit:10;stroke-dasharray:none;stroke-opacity:1"
         id="path57850"
         inkscape:connector-curvature="0" /><path
         d="m 59.04,426.39 -7.2,0"
         style="fill:none;stroke:#000000;stroke-width:0.75;stroke-linecap:round;stroke-linejoin:round;stroke-miterlimit:10;stroke-dasharray:none;stroke-opacity:1"
         id="path57852"
         inkscape:connector-curvature="0" /><path
         d="m 59.04,538.09 -7.2,0"
         style="fill:none;stroke:#000000;stroke-width:0.75;stroke-linecap:round;stroke-linejoin:round;stroke-miterlimit:10;stroke-dasharray:none;stroke-opacity:1"
         id="path57854"
         inkscape:connector-curvature="0" /><text
         transform="matrix(0,1,1,0,41.76,86.86)"
         style="font-variant:normal;font-weight:normal;font-size:16px;font-family:Helvetica;-inkscape-font-specification:Helvetica;writing-mode:lr-tb;fill:#000000;fill-opacity:1;fill-rule:nonzero;stroke:none"
         id="text57856"><tspan
           x="0"
           y="0"
           id="tspan57858">4</tspan></text>
<text
         transform="matrix(0,1,1,0,41.76,198.56)"
         style="font-variant:normal;font-weight:normal;font-size:16px;font-family:Helvetica;-inkscape-font-specification:Helvetica;writing-mode:lr-tb;fill:#000000;fill-opacity:1;fill-rule:nonzero;stroke:none"
         id="text57860"><tspan
           x="0"
           y="0"
           id="tspan57862">6</tspan></text>
<text
         transform="matrix(0,1,1,0,41.76,310.25)"
         style="font-variant:normal;font-weight:normal;font-size:16px;font-family:Helvetica;-inkscape-font-specification:Helvetica;writing-mode:lr-tb;fill:#000000;fill-opacity:1;fill-rule:nonzero;stroke:none"
         id="text57864"><tspan
           x="0"
           y="0"
           id="tspan57866">8</tspan></text>
<text
         transform="matrix(0,1,1,0,41.76,417.5)"
         style="font-variant:normal;font-weight:normal;font-size:16px;font-family:Helvetica;-inkscape-font-specification:Helvetica;writing-mode:lr-tb;fill:#000000;fill-opacity:1;fill-rule:nonzero;stroke:none"
         id="text57868"><tspan
           x="0 8.8959999"
           y="0"
           sodipodi:role="line"
           id="tspan57870">10</tspan></text>
<text
         transform="matrix(0,1,1,0,41.76,529.19)"
         style="font-variant:normal;font-weight:normal;font-size:16px;font-family:Helvetica;-inkscape-font-specification:Helvetica;writing-mode:lr-tb;fill:#000000;fill-opacity:1;fill-rule:nonzero;stroke:none"
         id="text57872"><tspan
           x="0 8.8959999"
           y="0"
           sodipodi:role="line"
           id="tspan57874">12</tspan></text>
<path
         d="m 59.04,73.44 193.47,0 0,482.52 -193.47,0 0,-482.52"
         style="fill:none;stroke:#000000;stroke-width:0.75;stroke-linecap:round;stroke-linejoin:round;stroke-miterlimit:10;stroke-dasharray:none;stroke-opacity:1"
         id="path57876"
         inkscape:connector-curvature="0" /></g><g
       id="g57878"><g
         id="g57880"
         clip-path="url(#clipPath57882)"><text
           transform="matrix(1,0,0,-1,97.66,18.72)"
           style="font-variant:normal;font-weight:normal;font-size:16px;font-family:Helvetica;-inkscape-font-specification:Helvetica;writing-mode:lr-tb;fill:#000000;fill-opacity:1;fill-rule:nonzero;stroke:none"
           id="text57886"><tspan
             x="0 10.672 19.568001 32.896 41.792 45.344002 54.240002 58.688 69.360001 72.912003 80.671997 89.568001 94.015999 99.344002 110.896"
             y="0"
             sodipodi:role="line"
             id="tspan57888">Sample Size (N)</tspan></text>
<text
           transform="matrix(0,1,1,0,12.96,272.02)"
           style="font-variant:normal;font-weight:normal;font-size:16px;font-family:Helvetica;-inkscape-font-specification:Helvetica;writing-mode:lr-tb;fill:#000000;fill-opacity:1;fill-rule:nonzero;stroke:none"
           id="text57890"><tspan
             x="0 8.8959999 17.792 26.688 35.584 40.032001 48.928001 53.375999 58.703999 66.704002 80.031998"
             y="0"
             sodipodi:role="line"
             id="tspan57892">Length (cm)</tspan></text>
</g></g><g
       id="g57894"><g
         id="g57896"
         clip-path="url(#clipPath57898)"><path
           d="m 66.21,125.1 0.21,90.9 0.21,30.84 0.21,-0.53 0.21,6.16 0.22,20.34 0.21,6.91 0.21,-1.93 0.21,5.64 0.21,14.01 0.22,-14.35 0.21,11.36 0.21,13.85 0.21,1.23 0.21,-0.73 0.22,1.57 0.21,-1.64 0.21,-0.82 0.21,1.87 0.21,7.04 0.22,-4.39 0.21,9.44 0.21,-5.05 0.21,6.57 0.21,-0.45 0.22,-0.79 0.21,-9.04 0.21,22.6 0.21,-11.98 0.21,-0.4 0.22,0.92 0.21,-6.56 0.21,12.37 0.21,-4.52 0.21,1.36 0.22,3.28 0.21,-5.82 0.21,4.95 0.21,3.29 0.21,-6.19 0.22,3.29 0.21,3.7 0.21,-1.67 0.21,3.4 0.21,-4.38 0.22,-2.33 0.21,6.06 0.21,-3.78 0.21,8.09 0.21,-2.74 0.22,6.63 0.21,-7.88 0.21,0.72 0.21,1.05 0.21,-0.49 0.22,1.45 0.21,-3.22 0.21,0.87 0.21,4.91 0.21,-2.34 0.22,-0.38 0.21,2.55 0.21,-1.05 0.21,-1.27 0.21,2.28 0.22,0.42 0.21,1.12 0.21,0.06 0.21,-3.32 0.21,1.31 0.22,-1.46 0.21,4.3 0.21,1.73 0.21,1.27 0.21,-1.23 0.22,1.44 0.21,-5.13 0.21,-1.78 0.21,5.14 0.21,-2.12 0.22,4.92 0.21,-6.97 0.21,1.77 0.21,5.83 0.21,-4.64 0.22,1.62 0.21,-4.66 0.21,5.23 0.21,1.57 0.21,-2.85 0.22,1.56 0.21,-4.68 0.21,3.65 0.21,-0.75 0.21,-2.49 0.22,0.68 0.21,2.14 0.21,2.31 0.21,-1.63 0.21,3.35 0.22,1.02 0.21,-2.07 0.21,-0.61 0.21,-1.3 0.21,-1.48 0.22,-2.65 0.21,7.23 0.21,-3.64 0.21,-0.53 0.21,0.39 0.22,0.94 0.21,1.79 0.21,-0.52 0.21,-2.66 0.21,2.44 0.22,3.43 0.21,-2.72 0.21,-2.03 0.21,0.27 0.21,3.01 0.22,-3.76 0.21,-0.44 0.21,3.6 0.21,-2.01 0.21,0.27 0.22,4.49 0.21,0.11 0.21,-2.93 0.21,-2.06 0.21,1.88 0.22,-0.5 0.21,3.86 0.21,-0.32 0.21,-1.17 0.21,-2.68 0.22,1.48 0.21,-2.3 0.21,5.92 0.21,-5.24 0.21,0.77 0.22,1.5 0.21,-0.05 0.21,1.88 0.21,-2.86 0.21,2.97 0.22,-0.82 0.21,-0.02 0.21,1.02 0.21,-3.74 0.21,4.99 0.22,-3.35 0.21,0.69 0.21,-1.27 0.21,3.62 0.21,-1.83 0.22,-0.3 0.21,-0.21 0.21,0.93 0.21,-2.93 0.21,2.29 0.22,-0.31 0.21,0.11 0.21,-2.51 0.21,1.99 0.21,3.04 0.22,-3.5 0.21,4.75 0.21,-3.2 0.21,1.81 0.21,-1.58 0.22,3.68 0.21,-2.41 0.21,1.46 0.21,-1.08 0.21,0.45 0.22,-2.33 0.21,-0.87 0.21,4.48 0.21,-1.15 0.21,-3.22 0.22,-0.67 0.21,4.3 0.21,0.54 0.21,-0.62 0.21,0.13 0.22,-0.21 0.21,2.68 0.21,-5.8 0.21,1.16 0.21,1.27 0.22,1.18 0.21,-3.87 0.21,1.3 0.21,1.87 0.21,-4.98 0.22,7.6 0.21,-3.22 0.21,-2.61 0.21,2.06 0.21,-1.25 0.22,0.43 0.21,1.24 0.21,1.07 0.21,0.12 0.21,-0.53 0.22,0.2 0.21,0.68 0.21,-2.45 0.21,2 0.21,0.76 0.22,-0.93 0.21,0.29 0.21,0.85 0.21,-1.51 0.21,-1.59 0.22,3.25 0.21,-0.24 0.21,-0.3 0.21,-2.71 0.21,3.2 0.22,-1.46 0.21,0.37 0.21,0.16 0.21,-0.38 0.21,-2.24 0.22,5.13 0.21,-2.46 0.21,-0.41 0.21,1.86 0.21,-1.78 0.22,4.72 0.21,-3.33 0.21,0.4 0.21,1.92 0.21,-2.19 0.22,0.61 0.21,-2.83 0.21,-1.61 0.21,2.54 0.21,1.56 0.22,-2.19 0.21,1.35 0.21,1.68 0.21,-0.11 0.21,-0.95 0.22,-0.61 0.21,-1.33 0.21,-0.95 0.21,1.84 0.21,1.16 0.22,-0.23 0.21,-2.95 0.21,1.99 0.21,1.39 0.21,-1.93 0.22,1.81 0.21,-0.75 0.21,-0.57 0.21,-0.23 0.21,1.42 0.22,1.01 0.21,-2.51 0.21,1.88 0.21,0.21 0.21,-0.01 0.22,-2.67 0.21,2.86 0.21,0.1 0.21,0.55 0.21,-0.62 0.22,-1.9 0.21,2.24 0.21,-1.98 0.21,-0.61 0.21,3.32 0.22,-1.48 0.21,1.29 0.21,-1.02 0.21,-0.61 0.21,-0.95 0.22,1.73 0.21,-2.2 0.21,1.65 0.21,1.41 0.21,-1.31 0.22,1.28 0.21,-2.62 0.21,4.66 0.21,-5.6 0.21,2.66 0.22,0.49 0.21,1.68 0.21,-3.93 0.21,0.97 0.21,-0.69 0.22,1.76 0.21,-0.93 0.21,-0.32 0.21,-0.88 0.21,2.74 0.22,-0.82 0.21,0.41 0.21,-3.53 0.21,4.1 0.21,0.24 0.22,0.25 0.21,-1.47 0.21,1.15 0.21,-2.91 0.21,0.29 0.22,3.07 0.21,0.84 0.21,-2.69 0.21,0.3 0.21,1.15 0.22,0.6 0.21,-0.33 0.21,-3.57 0.21,2.53 0.21,2.26 0.22,-3.6 0.21,1.87 0.21,2.32 0.21,-1.79 0.21,-1.22 0.22,1.13 0.21,-0.66 0.21,1.06 0.21,-0.18 0.21,-1.65 0.22,-1 0.21,3.38 0.21,-0.94 0.21,-1.99 0.21,1.39 0.22,-1.34 0.21,4.02 0.21,-1.66 0.21,-3.51 0.21,3.76 0.22,0.12 0.21,0.27 0.21,0.36 0.21,-0.61 0.21,-0.75 0.22,0.18 0.21,-1.13 0.21,-1.73 0.21,1.21 0.21,2.42 0.22,-0.31 0.21,2.09 0.21,-2.34 0.21,-0.04 0.21,-2.19 0.22,1.94 0.21,0.07 0.21,-1.55 0.21,0.81 0.21,2.27 0.22,0.51 0.21,-1.49 0.21,-0.05 0.21,-1.44 0.21,0.88 0.22,0.13 0.21,-0.05 0.21,0.19 0.21,-0.2 0.21,-0.71 0.22,0.43 0.21,-0.65 0.21,2.01 0.21,-0.19 0.21,0.52 0.22,-1.55 0.21,0.46 0.21,-1.1 0.21,-1.22 0.21,1.01 0.22,-0.17 0.21,1.96 0.21,0.26 0.21,-1.72 0.21,0.82 0.22,0.78 0.21,0.07 0.21,-0.69 0.21,0.81 0.21,-0.6 0.22,-0.74 0.21,0.61 0.21,0.11 0.21,-0.28 0.21,0.03 0.22,-0.47 0.21,0.52 0.21,1.74 0.21,0.01 0.21,-0.67 0.22,-0.3 0.21,-0.68 0.21,-0.04 0.21,-1.12 0.21,2.02 0.22,-0.32 0.21,-2.57 0.21,4.05 0.21,-2 0.21,-0.44 0.22,-0.88 0.21,1.36 0.21,-0.69 0.21,0.02 0.21,1.6 0.22,0.16 0.21,1 0.21,-1.42 0.21,-0.26 0.21,1.22 0.22,-1.2 0.21,0.39 0.21,-0.41 0.21,-0.66 0.21,0.27 0.22,1.9 0.21,-1.9 0.21,0.48 0.21,-0.67 0.21,0.49 0.22,-0.19 0.21,-0.01 0.21,-0.7 0.21,0.32 0.21,-0.2 0.22,1.86 0.21,-0.34 0.21,1.2 0.21,-2.59 0.21,0.35 0.22,-0.21 0.21,1.47 0.21,-0.11 0.21,-0.92 0.21,-0.04 0.22,0.19 0.21,1.56 0.21,-0.51 0.21,-1.2 0.21,0.91 0.22,-0.83 0.21,0.79 0.21,-1.06 0.21,0.78 0.21,0.26 0.22,-0.2 0.21,-0.86 0.21,1.65 0.21,-1.07 0.21,-0.75 0.22,1.53 0.21,-0.83 0.21,-0.04 0.21,2.38 0.21,-3.14 0.22,1.07 0.21,0.13 0.21,-0.25 0.21,0.78 0.21,-1.32 0.22,-0.06 0.21,0.39 0.21,1.12 0.21,-0.97 0.21,0.68 0.21,-0.42 0.22,0.56 0.21,-0.56 0.21,0.83 0.21,-1.38 0.21,-0.71 0.22,2.26 0.21,-2.33 0.21,1.75 0.21,-0.64 0.21,1.35 0.22,-0.08 0.21,0.74 0.21,-3.57 0.21,1.57 0.21,-0.13 0.22,-0.09 0.21,1.52 0.21,0.15 0.21,-0.15 0.21,-0.67 0.22,0.05 0.21,-0.1 0.21,-0.53 0.21,0.55 0.21,-1.74 0.22,2.02 0.21,-1.03 0.21,2.5 0.21,-0.87 0.21,-1.3 0.22,-0.42 0.21,0.84 0.21,1.53 0.21,-0.55 0.21,-1.11 0.22,1.32 0.21,0.21 0.21,-1.31 0.21,-0.11 0.21,0.44 0.22,-0.65 0.21,1.04 0.21,0.23 0.21,-1.13 0.21,0.34 0.22,0.56 0.21,-0.48 0.21,-0.34 0.21,0.27 0.21,-0.64 0.22,-0.11 0.21,0.96 0.21,-1.73 0.21,1.53 0.21,-0.03 0.22,0.83 0.21,-1.73 0.21,2.94 0.21,-1.95 0.21,-1.07 0.22,0.49 0.21,-0.23 0.21,0.82 0.21,1.09 0.21,0.29 0.22,-2.04 0.21,0.44 0.21,1.4 0.21,-1.96 0.21,1.14 0.22,-0.11 0.21,-0.82 0.21,1.06 0.21,0.04 0.21,0.22 0.22,-1.02 0.21,1.68 0.21,-0.51 0.21,1.07 0.21,-2.39 0.22,0.7 0.21,-0.03 0.21,-1.04 0.21,0.94 0.21,0.56 0.22,-0.58 0.21,-1.52 0.21,0.88 0.21,-0.43 0.21,0.21 0.22,1.88 0.21,-0.96 0.21,2.28 0.21,-2.47 0.21,0.52 0.22,-0.44 0.21,0.52 0.21,-0.83 0.21,-0.15 0.21,0.97 0.22,-0.79 0.21,1.5 0.21,0.12 0.21,-1.34 0.21,-0.18 0.22,1.64 0.21,0.05 0.21,-2.3 0.21,1.72 0.21,-0.58 0.22,0.09 0.21,1.29 0.21,0.21 0.21,-2.72 0.21,1.39 0.22,-1.23 0.21,2.16 0.21,-2.34 0.21,1.2 0.21,1.51 0.22,-1.04 0.21,-1.55 0.21,1.67 0.21,-0.66 0.21,0.65 0.22,-2.18 0.21,2.93 0.21,-1.21 0.21,-0.81 0.21,0.83 0.22,0.92 0.21,0.68 0.21,-0.81 0.21,-0.74 0.21,-0.43 0.22,-0.17 0.21,0.96 0.21,-1.2 0.21,2.4 0.21,-1.59 0.22,0.66 0.21,-0.26 0.21,-0.27 0.21,0.03 0.21,-0.13 0.22,-0.66 0.21,-0.53 0.21,2.62 0.21,-0.52 0.21,-0.85 0.22,0.19 0.21,-1.22 0.21,1.95 0.21,-1.93 0.21,0.87 0.22,0.7 0.21,-0.81 0.21,1.55 0.21,-1.26 0.21,-1.21 0.22,2.13 0.21,-0.94 0.21,0.66 0.21,-0.33 0.21,0.55 0.22,-2.56 0.21,2.53 0.21,-1.89 0.21,1.84 0.21,0.02 0.22,-0.35 0.21,-0.49 0.21,-0.21 0.21,1.42 0.21,0.15 0.22,-0.36 0.21,-0.01 0.21,-0.29 0.21,-0.18 0.21,0.16 0.22,1.49 0.21,-2.81 0.21,1.5 0.21,0.25 0.21,0.94 0.22,-1.66 0.21,-0.87 0.21,-0.16 0.21,1.3 0.21,-0.42 0.22,-0.83 0.21,1.82 0.21,-0.33 0.21,-0.15 0.21,-1.16 0.22,-0.1 0.21,2.57 0.21,-0.93 0.21,-1.03 0.21,0.44 0.22,0.34 0.21,0.18 0.21,-0.92 0.21,-0.82 0.21,1.32 0.22,-0.77 0.21,1.29 0.21,-1.29 0.21,-0.32 0.21,1.45 0.22,-0.72 0.21,1.75 0.21,-0.82 0.21,0.34 0.21,-0.62 0.22,0.26 0.21,0.48 0.21,-1.46 0.21,-0.24 0.21,0.28 0.22,1.28 0.21,1.29 0.21,-0.64 0.21,-2.31 0.21,0.18 0.22,-1.17 0.21,1.53 0.21,0.45 0.21,-1.2 0.21,2.13 0.22,-1.21 0.21,-0.13 0.21,1.01 0.21,-2.11 0.21,0.85 0.22,0.29 0.21,0.21 0.21,0.76 0.21,-1.25 0.21,1.56 0.22,-1.91 0.21,1.02 0.21,-0.36 0.21,0.73 0.21,-0.28 0.22,0.44 0.21,0.16 0.21,-0.66 0.21,0.18 0.21,-0.2 0.22,-0.43 0.21,1.11 0.21,-0.24 0.21,0.2 0.21,-1.12 0.22,-0.84 0.21,1.58 0.21,-0.4 0.21,0.77 0.21,0.19 0.22,-0.36 0.21,-1.28 0.21,1.62 0.21,-1.3 0.21,0.24 0.22,0.81 0.21,0.18 0.21,-0.44 0.21,-0.63 0.21,0.68 0.22,-0.8 0.21,-0.2 0.21,1.46 0.21,0.41 0.21,-0.85 0.22,0.23 0.21,-0.17 0.21,-0.6 0.21,0.39 0.21,1.41 0.22,-1.32 0.21,0.81 0.21,0.52 0.21,-1.83 0.21,-0.93 0.22,2.18 0.21,-0.81 0.21,-0.72 0.21,0.68 0.21,0.37 0.22,0.24 0.21,0.2 0.21,-0.73 0.21,-1.06 0.21,1.05 0.22,-0.04 0.21,0.23 0.21,0.23 0.21,-0.69 0.21,0.66 0.22,-0.23 0.21,-1.48 0.21,1.18 0.21,0.42 0.21,-0.89 0.22,-1.22 0.21,0.13 0.21,3.4 0.21,-1.6 0.21,0.15 0.22,-0.19 0.21,-0.31 0.21,0.04 0.21,1.03 0.21,-0.23 0.22,-0.01 0.21,-0.48 0.21,-0.64 0.21,0.06 0.21,0.88 0.22,0.97 0.21,-1.67 0.21,1.64 0.21,-0.79 0.21,0.53 0.22,0.43 0.21,-0.96 0.21,-0.43 0.21,-0.86 0.21,1.03 0.22,0.12 0.21,-0.6 0.21,0.34 0.21,-0.08 0.21,-0.57 0.22,0.57 0.21,0.35 0.21,0.51 0.21,-0.37 0.21,-0.15 0.22,0.24 0.21,1 0.21,-1.94 0.21,0.59 0.21,-0.69 0.22,1.08 0.21,-0.7 0.21,-0.03 0.21,1.28 0.21,-2.17 0.22,1.56 0.21,0.2 0.21,-0.38 0.21,0.46 0.21,-0.93 0.22,0.32 0.21,-0.41 0.21,0.2 0.21,0.17 0.21,0.75 0.22,-1.55 0.21,1.34 0.21,-0.97 0.21,0.94 0.21,0.3 0.22,-0.2 0.21,-2.68 0.21,1.65 0.21,0.52 0.21,0 0,16.53 -0.21,-0.02 -0.21,-0.11 -0.21,2.09 -0.21,-1.52 -0.22,-1.58 -0.21,1.9 -0.21,-0.19 -0.21,-0.84 -0.21,0.42 -0.22,-0.15 -0.21,0.43 -0.21,0.15 -0.21,-0.09 -0.21,-1.01 -0.22,1.63 -0.21,-0.75 -0.21,0.99 -0.21,0.16 -0.21,0.65 -0.22,-0.9 -0.21,-0.98 -0.21,-0.21 -0.21,-0.24 -0.21,1.88 -0.22,-1.94 -0.21,0.35 -0.21,0.45 -0.21,-0.05 -0.21,-0.33 -0.22,-0.27 -0.21,0.44 -0.21,0.24 -0.21,-0.02 -0.21,-0.48 -0.22,0.59 -0.21,0.23 -0.21,-0.5 -0.21,0.52 -0.21,-1.36 -0.22,1.79 -0.21,0.73 -0.21,-2.11 -0.21,-0.03 -0.21,-0.84 -0.22,1.5 -0.21,0.63 -0.21,-1.19 -0.21,0.17 -0.21,-0.69 -0.22,1.17 -0.21,-0.03 -0.21,0.35 -0.21,0.12 -0.21,-0.39 -0.22,0.11 -0.21,-1.73 -0.21,2.63 -0.21,-2.36 -0.21,1.23 -0.22,-1.08 -0.21,-1.3 -0.21,2.47 -0.21,1.13 -0.21,1.24 -0.22,-2.98 -0.21,1.19 -0.21,0.79 -0.21,-1.16 -0.21,0.42 -0.22,-1.68 -0.21,0.93 -0.21,0.89 -0.21,-0.96 -0.21,0.6 -0.22,-0.2 -0.21,0.51 -0.21,-1.25 -0.21,0.15 -0.21,0.06 -0.22,-0.3 -0.21,0.34 -0.21,1.69 -0.21,-1.37 -0.21,0.78 -0.22,0.35 -0.21,-1.58 -0.21,0.42 -0.21,-0.63 -0.21,0.59 -0.22,0.49 -0.21,-0.54 -0.21,0.65 -0.21,0.33 -0.21,-0.76 -0.22,0.28 -0.21,-0.46 -0.21,-1.01 -0.21,2.91 -0.21,-1.86 -0.22,0.32 -0.21,-0.89 -0.21,0.8 -0.21,0 -0.21,-2.02 -0.22,2.04 -0.21,-0.87 -0.21,0.28 -0.21,-0.61 -0.21,0.66 -0.22,-0.88 -0.21,0.95 -0.21,1 -0.21,-0.71 -0.21,1.12 -0.22,-0.65 -0.21,0.11 -0.21,-1.26 -0.21,0.66 -0.21,-0.51 -0.22,0.52 -0.21,-0.37 -0.21,-0.01 -0.21,0.53 -0.21,0.21 -0.22,0.7 -0.21,0.35 -0.21,0 -0.21,-1.36 -0.21,1.16 -0.22,-1.59 -0.21,0.95 -0.21,-1.53 -0.21,1.06 -0.21,0.57 -0.22,-1.22 -0.21,0.15 -0.21,0.28 -0.21,-0.05 -0.21,0.78 -0.22,-1.42 -0.21,2 -0.21,-1.46 -0.21,0.71 -0.21,1.16 -0.22,-0.59 -0.21,-0.39 -0.21,0.08 -0.21,-0.32 -0.21,-0.13 -0.22,0.42 -0.21,-1.3 -0.21,1.09 -0.21,0.63 -0.21,-1.7 -0.22,0.93 -0.21,0.1 -0.21,-0.01 -0.21,-0.71 -0.21,0.48 -0.22,0.13 -0.21,-0.38 -0.21,0.65 -0.21,-0.17 -0.21,0.52 -0.22,-1.29 -0.21,1.36 -0.21,-0.14 -0.21,-1 -0.21,0.32 -0.22,0.43 -0.21,0.18 -0.21,-0.1 -0.21,-1.41 -0.21,1.53 -0.22,-0.72 -0.21,0.71 -0.21,0.19 -0.21,-0.84 -0.21,1.71 -0.22,-0.1 -0.21,-1.64 -0.21,1.53 -0.21,0.4 -0.21,-0.26 -0.22,-2.35 -0.21,0.81 -0.21,-0.82 -0.21,2.34 -0.21,-0.94 -0.22,-1.09 -0.21,0.97 -0.21,-0.07 -0.21,0.39 -0.21,1.04 -0.22,-1.91 -0.21,-0.09 -0.21,1.04 -0.21,-2.44 -0.21,1.14 -0.22,1.49 -0.21,-0.55 -0.21,1.08 -0.21,0.38 -0.21,-0.21 -0.22,-1.28 -0.21,1.01 -0.21,-0.51 -0.21,-0.27 -0.21,-0.78 -0.22,1.47 -0.21,-0.43 -0.21,-1.46 -0.21,1.23 -0.21,-0.14 -0.22,-0.23 -0.21,0.47 -0.21,0.34 -0.21,-0.08 -0.21,-0.39 -0.22,-0.94 -0.21,0.33 -0.21,-1.5 -0.21,1.12 -0.21,0.54 -0.22,2.2 -0.21,-0.2 -0.21,-0.86 -0.21,-0.46 -0.21,-1.23 -0.22,1.75 -0.21,-1.32 -0.21,1.58 -0.21,-1.9 -0.21,0.76 -0.22,-0.24 -0.21,0.89 -0.21,1.21 -0.21,-2.08 -0.21,2.25 -0.22,-1.83 -0.21,0.08 -0.21,0.36 -0.21,-1.91 -0.21,3.15 -0.22,0 -0.21,-1.4 -0.21,-1.54 -0.21,1.79 -0.21,0.26 -0.22,-1.78 -0.21,1.92 -0.21,0.23 -0.21,-0.14 -0.21,0.05 -0.22,-1.74 -0.21,1.35 -0.21,-0.37 -0.21,-0.56 -0.21,-0.28 -0.22,-0.41 -0.21,1.59 -0.21,-0.96 -0.21,2.13 -0.21,-3.53 -0.22,1.47 -0.21,2.03 -0.21,-2.32 -0.21,0.63 -0.21,-0.18 -0.22,1.05 -0.21,1.29 -0.21,-1.84 -0.21,0.35 -0.21,-0.09 -0.22,-0.39 -0.21,1.46 -0.21,-1.87 -0.21,1.08 -0.21,-1.17 -0.22,2.31 -0.21,-3.04 -0.21,1.12 -0.21,0.66 -0.21,-1.07 -0.22,1.24 -0.21,-0.96 -0.21,0.81 -0.21,-0.65 -0.21,0.42 -0.22,-1 -0.21,1.25 -0.21,-0.69 -0.21,1.09 -0.21,-0.57 -0.22,-1.96 -0.21,3.58 -0.21,-2.53 -0.21,0.49 -0.21,-0.41 -0.22,0.62 -0.21,-0.33 -0.21,-1.09 -0.21,1.85 -0.21,0.76 -0.22,0.19 -0.21,-1.8 -0.21,0.99 -0.21,1.4 -0.21,-2.63 -0.22,1.54 -0.21,0.13 -0.21,-1.84 -0.21,0.8 -0.21,-0.06 -0.22,1.37 -0.21,-0.98 -0.21,1.45 -0.21,-3.09 -0.21,2.35 -0.22,-0.17 -0.21,-1.26 -0.21,-0.58 -0.21,1.76 -0.21,-0.8 -0.22,-0.13 -0.21,0.93 -0.21,-0.84 -0.21,0.48 -0.21,0.37 -0.22,0.12 -0.21,-1.25 -0.21,0.84 -0.21,-0.33 -0.21,0.48 -0.22,-1.7 -0.21,1.07 -0.21,0.13 -0.21,0.71 -0.21,0.69 -0.22,-0.99 -0.21,0.11 -0.21,0.42 -0.21,0.07 -0.21,0.41 -0.22,-0.66 -0.21,-0.29 -0.21,0.05 -0.21,0.49 -0.21,-1.76 -0.22,-0.08 -0.21,2.22 -0.21,-0.46 -0.21,0.6 -0.21,-0.24 -0.22,-0.57 -0.21,0.63 -0.21,0.21 -0.21,-0.19 -0.21,-1.36 -0.22,1.25 -0.21,-0.87 -0.21,2.81 -0.21,-1.62 -0.21,-2.13 -0.22,1.58 -0.21,-1.04 -0.21,-0.34 -0.21,2.22 -0.21,-0.09 -0.22,0.31 -0.21,-2.21 -0.21,1.08 -0.21,-0.61 -0.21,0.49 -0.21,-0.38 -0.22,1 -0.21,-1.67 -0.21,-0.25 -0.21,1.9 -0.21,-0.15 -0.22,-1.72 -0.21,0.02 -0.21,3.11 -0.21,-3.8 -0.21,1.53 -0.22,-0.15 -0.21,0.16 -0.21,-0.73 -0.21,-0.24 -0.21,0.55 -0.22,-0.15 -0.21,2.05 -0.21,-0.14 -0.21,-0.84 -0.21,-0.94 -0.22,-0.61 -0.21,2.06 -0.21,0.6 -0.21,-0.66 -0.21,-0.67 -0.22,0.54 -0.21,-0.77 -0.21,0.62 -0.21,-0.97 -0.21,1.1 -0.22,-2.26 -0.21,2.79 -0.21,-0.47 -0.21,-1.09 -0.21,2.99 -0.22,-1.47 -0.21,0.81 -0.21,-1.08 -0.21,-1.19 -0.21,1.34 -0.22,-0.01 -0.21,0.88 -0.21,-2.17 -0.21,2.21 -0.21,-2.46 -0.22,1.24 -0.21,0.66 -0.21,0.11 -0.21,-1.52 -0.21,0.51 -0.22,1.74 -0.21,-1.56 -0.21,0.45 -0.21,-1.28 -0.21,1.09 -0.22,-0.93 -0.21,1.19 -0.21,0.55 -0.21,-2.29 -0.21,2.3 -0.22,-2.2 -0.21,2.25 -0.21,-3.36 -0.21,4.3 -0.21,-0.82 -0.22,-2.06 -0.21,2.7 -0.21,-1.03 -0.21,0.11 -0.21,-2.26 -0.22,0.78 -0.21,-0.5 -0.21,-0.12 -0.21,1.98 -0.21,1.74 -0.22,0.97 -0.21,-2.65 -0.21,-1.52 -0.21,1.84 -0.21,0.47 -0.22,-1.64 -0.21,0.15 -0.21,-0.43 -0.21,0.25 -0.21,1.83 -0.22,-2.81 -0.21,1.93 -0.21,0.39 -0.21,-1.56 -0.21,2.23 -0.22,-1.41 -0.21,1.97 -0.21,-1.31 -0.21,-0.32 -0.21,-0.69 -0.22,2.08 -0.21,-1.47 -0.21,1.29 -0.21,-2.54 -0.21,2.04 -0.22,-0.03 -0.21,-2.11 -0.21,0.08 -0.21,1.47 -0.21,2.19 -0.22,-2.71 -0.21,0.19 -0.21,0.85 -0.21,0.28 -0.21,0.02 -0.22,-0.6 -0.21,1.59 -0.21,-1.02 -0.21,-2.27 -0.21,0.55 -0.22,1.16 -0.21,0.59 -0.21,-0.25 -0.21,-0.37 -0.21,0.4 -0.22,-1.28 -0.21,1.6 -0.21,0.5 -0.21,0.22 -0.21,-1.93 -0.22,0.29 -0.21,0.17 -0.21,-0.46 -0.21,-1.58 -0.21,1.73 -0.22,-0.87 -0.21,4.08 -0.21,-4.64 -0.21,1.06 -0.21,2.41 -0.22,-0.78 -0.21,-0.1 -0.21,-0.37 -0.21,-0.91 -0.21,0.97 -0.22,1.07 -0.21,-0.88 -0.21,-1.87 -0.21,1.73 -0.21,-0.23 -0.22,2.2 -0.21,-1.53 -0.21,-0.06 -0.21,-0.96 -0.21,2.51 -0.22,-2.44 -0.21,0.52 -0.21,2.55 -0.21,-2.51 -0.21,-0.79 -0.22,1.74 -0.21,0.06 -0.21,-0.12 -0.21,-0.4 -0.21,-0.5 -0.22,3.84 -0.21,-1.09 -0.21,-3.55 -0.21,0.4 -0.21,0.1 -0.22,0.85 -0.21,-0.34 -0.21,-0.22 -0.21,0.61 -0.21,-0.11 -0.22,0.91 -0.21,-0.89 -0.21,1.84 -0.21,-1.2 -0.21,-1.35 -0.22,0.99 -0.21,-1.08 -0.21,4.41 -0.21,-3.13 -0.21,0.71 -0.22,-1.79 -0.21,-0.5 -0.21,1.85 -0.21,-2.61 -0.21,3.31 -0.22,-3.02 -0.21,-0.52 -0.21,1.47 -0.21,1.08 -0.21,-1.22 -0.22,3.02 -0.21,0.11 -0.21,-0.04 -0.21,0.98 -0.21,-1.88 -0.22,-0.01 -0.21,-1.38 -0.21,3.13 -0.21,-3.29 -0.21,1.19 -0.22,-0.96 -0.21,-0.62 -0.21,0.8 -0.21,1.13 -0.21,-0.52 -0.22,-1.62 -0.21,2.37 -0.21,-0.76 -0.21,-1.26 -0.21,1.99 -0.22,-1.92 -0.21,2.64 -0.21,0.18 -0.21,-0.05 -0.21,-3.7 -0.22,3.32 -0.21,-2.22 -0.21,-0.23 -0.21,2.79 -0.21,-2.67 -0.22,3.55 -0.21,-1.48 -0.21,1.29 -0.21,-3.75 -0.21,2.52 -0.22,0.55 -0.21,-2.24 -0.21,-0.22 -0.21,0.4 -0.21,1.56 -0.22,-0.4 -0.21,0.87 -0.21,0.67 -0.21,-2.25 -0.21,1.77 -0.22,0.37 -0.21,-0.88 -0.21,0.02 -0.21,-0.17 -0.21,-1.74 -0.22,3.81 -0.21,-0.66 -0.21,-1.42 -0.21,0.46 -0.21,-0.96 -0.22,4.38 -0.21,-1.88 -0.21,0.66 -0.21,-0.22 -0.21,-2.58 -0.22,-0.48 -0.21,3.39 -0.21,-2.14 -0.21,0.9 -0.21,-1.3 -0.22,0.77 -0.21,-0.26 -0.21,0.85 -0.21,-1.8 -0.21,3.33 -0.22,-2.22 -0.21,-0.89 -0.21,0 -0.21,0.93 -0.21,0.09 -0.22,0.86 -0.21,2.54 -0.21,-5.41 -0.21,3.62 -0.21,-3.41 -0.22,2.4 -0.21,-1.79 -0.21,2.88 -0.21,-0.67 -0.21,-1.97 -0.22,2.67 -0.21,-1.9 -0.21,3.67 -0.21,-3.06 -0.21,1.47 -0.22,-2.61 -0.21,2.52 -0.21,-1.75 -0.21,-1.04 -0.21,0.51 -0.22,2.5 -0.21,0.04 -0.21,-2.38 -0.21,-0.83 -0.21,2.34 -0.22,-0.51 -0.21,-1.49 -0.21,0.92 -0.21,4.44 -0.21,-1.95 -0.22,-2.42 -0.21,1.64 -0.21,-0.38 -0.21,-0.5 -0.21,0.6 -0.22,-2.05 -0.21,1.57 -0.21,0.84 -0.21,-0.27 -0.21,0.23 -0.22,0.4 -0.21,-0.16 -0.21,1.53 -0.21,-3.32 -0.21,0.45 -0.22,2.64 -0.21,1.72 -0.21,-2.58 -0.21,-2.59 -0.21,2.82 -0.22,-2.32 -0.21,1.91 -0.21,1.2 -0.21,0.11 -0.21,1.38 -0.22,-1.5 -0.21,1.01 -0.21,-0.18 -0.21,-1.79 -0.21,2.36 -0.22,-2.64 -0.21,-0.24 -0.21,2.24 -0.21,-2.63 -0.21,4.36 -0.22,-5.78 -0.21,3.72 -0.21,-2.06 -0.21,4.15 -0.21,-0.63 -0.22,1.12 -0.21,-2.3 -0.21,-0.28 -0.21,0.69 -0.21,-0.23 -0.22,-0.47 -0.21,-1.52 -0.21,-0.64 -0.21,2.41 -0.21,0.56 -0.22,2.71 -0.21,-3.85 -0.21,4.53 -0.21,-6.49 -0.21,4.41 -0.22,0.02 -0.21,-0.71 -0.21,1.56 -0.21,-3.73 -0.21,0.11 -0.22,2.29 -0.21,2.17 -0.21,-1.12 -0.21,-2.45 -0.21,2.57 -0.22,2.32 -0.21,-1.48 -0.21,-0.44 -0.21,1.32 -0.21,-1.68 -0.22,-1.09 -0.21,1.67 -0.21,-0.42 -0.21,-0.62 -0.21,-0.3 -0.22,3.3 -0.21,-1.7 -0.21,-0.04 -0.21,-3.19 -0.21,9.23 -0.22,-9.58 -0.21,3.57 -0.21,0.6 -0.21,2.19 -0.21,1.32 -0.22,-3.01 -0.21,-1.39 -0.21,0.03 -0.21,7.15 -0.21,-5.03 -0.22,-3.69 -0.21,1.13 -0.21,-0.57 -0.21,3.7 -0.21,-1.51 -0.22,1.72 -0.21,-0.72 -0.21,0.21 -0.21,3.45 -0.21,-1.82 -0.22,0.12 -0.21,-4.47 -0.21,2.01 -0.21,5.02 -0.21,-5.96 -0.22,1.62 -0.21,4.43 -0.21,0.99 -0.21,-3.25 -0.21,1.81 -0.22,2.18 -0.21,0.52 -0.21,-4.01 -0.21,1.88 -0.21,-0.34 -0.22,3.13 -0.21,-3.17 -0.21,0.67 -0.21,-2.38 -0.21,-4.3 -0.22,8.06 -0.21,6.3 -0.21,-0.31 -0.21,-6.06 -0.21,-2.65 -0.22,4.87 -0.21,-0.61 -0.21,2.47 -0.21,0.96 -0.21,3.31 -0.22,-6.29 -0.21,0.08 -0.21,4.69 -0.21,-4.47 -0.21,5.69 -0.22,-0.79 -0.21,-1.11 -0.21,-0.95 -0.21,4.54 -0.21,-3.72 -0.22,7.74 -0.21,-5.3 -0.21,-3.74 -0.21,4.78 -0.21,-0.48 -0.22,8.2 -0.21,2.15 -0.21,-16.01 -0.21,17.68 -0.21,-5.25 -0.22,-5.82 -0.21,4.14 -0.21,-2.92 -0.21,3 -0.21,9.86 -0.22,-0.89 -0.21,1.26 -0.21,0.15 -0.21,-2.96 -0.21,8.09 -0.22,6.96 -0.21,-8.84 -0.21,5.42 -0.21,3.56 -0.21,12.71 -0.22,-7.54 -0.21,9.4 -0.21,-11.02 -0.21,18.81 -0.21,8.81 -0.22,8.12 -0.21,19.67 -0.21,-4.27 -0.21,44.75 -0.21,68.87 0,-482.46 z"
           style="fill:#bfbfbf;fill-opacity:1;fill-rule:nonzero;stroke:none"
           id="path57902"
           inkscape:connector-curvature="0" /><path
           d="m 66.21,366.33 0.21,11.02 0.21,-6.96 0.21,1.87 0.21,-6.75 0.22,6.11 0.21,-0.96 0.21,-10.36 0.21,8.33 0.21,2.3 0.22,-3.41 0.21,-0.67 0.21,5.14 0.21,-2.09 0.21,4.05 0.22,-2.69 0.21,-4.87 0.21,1.08 0.21,0.85 0.21,2.89 0.22,-1.74 0.21,-0.21 0.21,-4.03 0.21,4.75 0.21,-2.3 0.22,2.52 0.21,-1.9 0.21,2.46 0.21,2.01 0.21,-1.27 0.22,-3.64 0.21,-3.04 0.21,3.8 0.21,-0.4 0.21,3.34 0.22,-2.23 0.21,-1.06 0.21,0.21 0.21,2.12 0.21,-2.54 0.22,2.04 0.21,-0.99 0.21,1.4 0.21,-0.65 0.21,-2.23 0.22,1.98 0.21,1.37 0.21,-2.37 0.21,2.81 0.21,-1.06 0.22,0.88 0.21,-2.62 0.21,3.39 0.21,0.69 0.21,-3.4 0.22,-3.3 0.21,0.53 0.21,1.63 0.21,2.12 0.21,0.42 0.22,-1.76 0.21,1.44 0.21,-1.46 0.21,1.37 0.21,0.88 0.22,-0.88 0.21,-0.35 0.21,1.66 0.21,-2.16 0.21,-1.56 0.22,-1.54 0.21,5.14 0.21,-1.65 0.21,-0.37 0.21,1.62 0.22,0.66 0.21,-1.65 0.21,-2.62 0.21,2.46 0.21,-0.69 0.22,1.6 0.21,-2.74 0.21,-0.96 0.21,3.2 0.21,-2.89 0.22,2.66 0.21,0.19 0.21,-0.97 0.21,0.78 0.21,-0.74 0.22,2.29 0.21,-3 0.21,0.73 0.21,-0.67 0.21,-3.03 0.22,5.13 0.21,-3.55 0.21,2.75 0.21,-0.8 0.21,2.53 0.22,-1.14 0.21,-0.88 0.21,0 0.21,-0.44 0.21,-1.57 0.22,-0.79 0.21,4.46 0.21,-2.48 0.21,-0.05 0.21,0.94 0.22,-0.69 0.21,-0.39 0.21,0.96 0.21,-0.76 0.21,0.13 0.22,0.57 0.21,-1.42 0.21,0.86 0.21,-0.65 0.21,1.86 0.22,-1.89 0.21,-2.42 0.21,5.04 0.21,-3.27 0.21,2.06 0.22,0.89 0.21,-0.22 0.21,-2.67 0.21,-0.71 0.21,1.7 0.22,-0.02 0.21,2.05 0.21,-0.51 0.21,-0.45 0.21,-0.18 0.22,0.17 0.21,-0.83 0.21,0.88 0.21,-1.58 0.21,-1.48 0.22,3.64 0.21,-2.21 0.21,2.26 0.21,-2.55 0.21,1.6 0.22,0.91 0.21,-1.19 0.21,1.41 0.21,-1.78 0.21,1.99 0.22,-0.93 0.21,-0.34 0.21,-0.69 0.21,1.21 0.21,-1.87 0.22,1.01 0.21,-1.52 0.21,1.76 0.21,-0.17 0.21,0.28 0.22,-1.47 0.21,-0.17 0.21,0.4 0.21,0.24 0.21,1.6 0.22,-1.96 0.21,2.26 0.21,-1.46 0.21,0.48 0.21,-1.57 0.22,2.86 0.21,-1.5 0.21,0.98 0.21,-0.35 0.21,-0.59 0.22,0.04 0.21,0.54 0.21,0.02 0.21,-1.03 0.21,-0.87 0.22,-0.08 0.21,0.98 0.21,0.69 0.21,0.88 0.21,0.04 0.22,-1.36 0.21,1.09 0.21,-2.38 0.21,1.45 0.21,-0.62 0.22,1.89 0.21,-2.67 0.21,2.19 0.21,-0.91 0.21,-1.54 0.22,2.47 0.21,-0.62 0.21,-0.97 0.21,-0.41 0.21,0.26 0.22,-0.98 0.21,2.32 0.21,-1.27 0.21,2.76 0.21,-1.53 0.22,-0.33 0.21,0.3 0.21,-1.69 0.21,1 0.21,0.82 0.22,0.65 0.21,-1.53 0.21,1.33 0.21,-1.18 0.21,-0.67 0.22,1.24 0.21,0.53 0.21,-0.6 0.21,-0.28 0.21,-0.09 0.22,-0.5 0.21,1.48 0.21,0.19 0.21,-0.52 0.21,-0.18 0.22,0.37 0.21,-0.75 0.21,-0.43 0.21,1.64 0.21,-0.56 0.22,0.46 0.21,-0.8 0.21,0.29 0.21,0.94 0.21,-0.65 0.22,0.12 0.21,-2.3 0.21,0.32 0.21,0.94 0.21,0.34 0.22,-0.89 0.21,-0.11 0.21,0.64 0.21,0.06 0.21,0.64 0.22,-0.58 0.21,-1.93 0.21,1.4 0.21,0.28 0.21,1.32 0.22,-1.89 0.21,-0.14 0.21,-0.4 0.21,0.81 0.21,0.15 0.22,-0.76 0.21,1.47 0.21,-0.26 0.21,-0.2 0.21,-0.61 0.22,1.47 0.21,-2.26 0.21,1.58 0.21,0.48 0.21,-1.19 0.22,-0.53 0.21,1.69 0.21,-0.51 0.21,-0.13 0.21,0.01 0.22,-0.48 0.21,0.53 0.21,0.65 0.21,-1.87 0.21,2.36 0.22,-0.74 0.21,1.59 0.21,-1.01 0.21,-0.28 0.21,-0.53 0.22,-0.65 0.21,-0.48 0.21,0.28 0.21,-0.03 0.21,-0.39 0.22,2.14 0.21,-2.96 0.21,3.63 0.21,-3.72 0.21,1.58 0.22,1.14 0.21,0.48 0.21,-0.39 0.21,-1.72 0.21,0.19 0.22,0.38 0.21,0.22 0.21,0.44 0.21,-1.36 0.21,1.81 0.22,-0.86 0.21,0.26 0.21,-2.08 0.21,2.16 0.21,0.29 0.22,-0.3 0.21,-0.78 0.21,0.38 0.21,0.32 0.21,0.69 0.22,-0.39 0.21,0.67 0.21,-1.15 0.21,0.22 0.21,0.54 0.22,-0.57 0.21,0.23 0.21,-0.53 0.21,-0.01 0.21,0.87 0.22,-0.58 0.21,-0.32 0.21,1.64 0.21,-0.87 0.21,0.16 0.22,-0.53 0.21,-0.22 0.21,-0.33 0.21,0.84 0.21,-0.38 0.22,-1.04 0.21,1.2 0.21,-0.01 0.21,-0.81 0.21,0.74 0.22,-0.28 0.21,0.81 0.21,-1.36 0.21,0.57 0.21,-0.16 0.22,0.49 0.21,-0.73 0.21,0.97 0.21,-0.08 0.21,-0.45 0.22,-0.06 0.21,0.4 0.21,-0.98 0.21,0.36 0.21,0.41 0.22,0.48 0.21,0.85 0.21,-0.98 0.21,0.1 0.21,-1.39 0.22,0.39 0.21,-0.24 0.21,0.36 0.21,0.91 0.21,0.34 0.22,0.56 0.21,-0.75 0.21,-0.17 0.21,-1.14 0.21,0.34 0.22,1.42 0.21,-1.12 0.21,-0.64 0.21,-0.14 0.21,0.7 0.22,0.23 0.21,-1.34 0.21,2.27 0.21,-0.74 0.21,0.99 0.22,-1.81 0.21,0.57 0.21,-0.39 0.21,0.05 0.21,-0.48 0.22,0.62 0.21,-0.14 0.21,0.91 0.21,-1.05 0.21,-0.56 0.22,1.8 0.21,-0.88 0.21,-0.47 0.21,0.62 0.21,-0.37 0.22,0.45 0.21,0.07 0.21,-0.87 0.21,0.62 0.21,1.34 0.22,-0.72 0.21,-0.61 0.21,-0.12 0.21,0.06 0.21,-0.08 0.22,-0.54 0.21,0.79 0.21,-0.08 0.21,-0.04 0.21,-0.34 0.22,0.87 0.21,-0.88 0.21,-0.12 0.21,0.68 0.21,-1.34 0.22,0.65 0.21,-0.46 0.21,0.8 0.21,-0.27 0.21,0.2 0.22,0.55 0.21,-0.04 0.21,-0.07 0.21,-0.36 0.21,1.39 0.22,-1.47 0.21,-0.06 0.21,0.55 0.21,-0.38 0.21,-0.2 0.22,0.34 0.21,0.28 0.21,-0.87 0.21,0.75 0.21,-0.2 0.22,-0.09 0.21,-0.67 0.21,0.25 0.21,0.69 0.21,-0.5 0.22,1.67 0.21,-1.67 0.21,1.14 0.21,-1.05 0.21,-1.22 0.22,1.02 0.21,0.18 0.21,0.44 0.21,-0.78 0.21,0.37 0.22,-0.18 0.21,1.12 0.21,0.07 0.21,-0.9 0.21,-0.57 0.22,-0.11 0.21,0.86 0.21,-0.1 0.21,0.45 0.21,-0.89 0.22,-0.03 0.21,-0.7 0.21,0.95 0.21,-0.18 0.21,-0.45 0.22,0.84 0.21,-1.18 0.21,1.88 0.21,-0.37 0.21,-1.57 0.22,1.39 0.21,0.14 0.21,-1.07 0.21,0.51 0.21,0.17 0.22,-0.52 0.21,0.38 0.21,0.32 0.21,-0.19 0.21,-0.2 0.21,0.9 0.22,0.13 0.21,-0.24 0.21,-0.7 0.21,-0.51 0.21,0.16 0.22,0.34 0.21,-0.1 0.21,1.69 0.21,-1.73 0.21,1.11 0.22,-0.66 0.21,1.04 0.21,-1.69 0.21,0.68 0.21,-0.37 0.22,0.23 0.21,0.89 0.21,-0.23 0.21,0.15 0.21,-1.44 0.22,0.06 0.21,0.84 0.21,-0.51 0.21,0.24 0.21,-0.72 0.22,1.34 0.21,-0.72 0.21,1.22 0.21,-0.65 0.21,-0.7 0.22,0.28 0.21,0.07 0.21,0.42 0.21,-0.35 0.21,-1.09 0.22,1.52 0.21,-0.14 0.21,-0.49 0.21,-0.47 0.21,0.84 0.22,-0.38 0.21,0.33 0.21,-0.13 0.21,-0.14 0.21,-0.29 0.22,0.34 0.21,0.16 0.21,-1.05 0.21,0.43 0.21,0.31 0.22,0.03 0.21,-0.7 0.21,0.68 0.21,0.04 0.21,0.47 0.22,-0.27 0.21,-0.83 0.21,1.07 0.21,-0.05 0.21,-0.61 0.22,-0.52 0.21,1.2 0.21,-0.29 0.21,0.05 0.21,1.04 0.22,-1.11 0.21,-0.16 0.21,-0.22 0.21,-0.44 0.21,0.73 0.22,-0.36 0.21,-0.21 0.21,0.29 0.21,1.29 0.21,-1.68 0.22,0.47 0.21,1.12 0.21,-0.8 0.21,0.88 0.21,-1.82 0.22,0.85 0.21,-0.23 0.21,-0.19 0.21,0.07 0.21,0.76 0.22,-0.91 0.21,-0.23 0.21,0.11 0.21,-0.77 0.21,1.62 0.22,-0.21 0.21,0.1 0.21,0.6 0.21,-0.3 0.21,-0.47 0.22,-0.02 0.21,0.3 0.21,-0.59 0.21,0.85 0.21,-0.16 0.22,-0.92 0.21,0.83 0.21,-0.25 0.21,0.49 0.21,-1.1 0.22,0.08 0.21,1.79 0.21,-2.21 0.21,1.34 0.21,-1.09 0.22,0.25 0.21,0.79 0.21,0.38 0.21,-1.17 0.21,0.02 0.22,0.25 0.21,1.06 0.21,-1.11 0.21,0.49 0.21,-0.2 0.22,0.37 0.21,-0.91 0.21,-0.06 0.21,0.44 0.21,1.03 0.22,-1.09 0.21,-0.12 0.21,0.36 0.21,-0.59 0.21,0.38 0.22,1.37 0.21,-0.78 0.21,0.63 0.21,-0.97 0.21,-0.67 0.22,0.04 0.21,0.1 0.21,0.35 0.21,0.41 0.21,-0.14 0.22,-0.54 0.21,0.48 0.21,0.1 0.21,0.44 0.21,0.04 0.22,-1.43 0.21,-0.54 0.21,0.76 0.21,0.49 0.21,-0.6 0.22,0.57 0.21,-0.42 0.21,1.02 0.21,-1.13 0.21,0.2 0.22,0.46 0.21,-0.34 0.21,0.17 0.21,0.1 0.21,-0.4 0.22,0.33 0.21,-0.07 0.21,0.46 0.21,0.09 0.21,-0.23 0.22,-0.64 0.21,1.37 0.21,-1.13 0.21,0.37 0.21,0.29 0.22,-0.92 0.21,-0.82 0.21,1.12 0.21,0.19 0.21,0.12 0.22,0.78 0.21,-0.53 0.21,-0.34 0.21,-0.05 0.21,-0.41 0.22,1.29 0.21,-0.94 0.21,-0.42 0.21,0.54 0.21,0.07 0.22,0.34 0.21,-0.31 0.21,-0.28 0.21,-0.11 0.21,0.61 0.22,-0.37 0.21,0.06 0.21,0.25 0.21,-0.17 0.21,-0.93 0.22,0.31 0.21,0.52 0.21,0.24 0.21,-0.47 0.21,0.13 0.22,-0.04 0.21,-0.07 0.21,0.04 0.21,-0.34 0.21,-0.02 0.22,0.26 0.21,0.38 0.21,-0.55 0.21,-0.49 0.21,0.92 0.22,-0.43 0.21,0.64 0.21,-0.06 0.21,0.18 0.21,-0.36 0.22,-0.34 0.21,1.09 0.21,-1.04 0.21,-0.67 0.21,0.79 0.22,0.43 0.21,0.71 0.21,-0.16 0.21,-1.19 0.21,0.28 0.22,-0.29 0.21,0.18 0.21,-0.12 0.21,0.13 0.21,0.06 0.22,0.1 0.21,-0.45 0.21,0.53 0.21,-1.19 0.21,0.35 0.22,0.75 0.21,-0.18 0.21,-0.15 0.21,0.14 0.21,0.3 0.22,-0.16 0.21,-0.07 0.21,0.51 0.21,0.36 0.21,-0.32 0.22,-0.13 0.21,-0.02 0.21,-0.59 0.21,0.09 0.21,0.09 0.22,-0.48 0.21,0.81 0.21,-0.45 0.21,0.73 0.21,-0.62 0.22,-0.09 0.21,0.23 0.21,0.15 0.21,-0.11 0.21,-0.38 0.22,0.26 0.21,-0.97 0.21,1.11 0.21,-0.79 0.21,0.56 0.22,-0.61 0.21,1.09 0.21,-0.22 0.21,-0.71 0.21,0.78 0.22,-0.55 0.21,0.82 0.21,-0.72 0.21,0.71 0.21,-0.2 0.22,-0.02 0.21,0.29 0.21,-0.46 0.21,-0.13 0.21,0.98 0.22,-0.91 0.21,0.11 0.21,0.58 0.21,-1.13 0.21,0.32 0.22,0.92 0.21,-0.8 0.21,0.33 0.21,-0.5 0.21,0.01 0.22,0.27 0.21,0.07 0.21,-0.44 0.21,0.09 0.21,0.27 0.22,0.08 0.21,-0.18 0.21,0.6 0.21,-0.79 0.21,-0.14 0.22,0.73 0.21,-0.95 0.21,1.16 0.21,-0.18 0.21,-1.04 0.22,0.88 0.21,-0.56 0.21,1.14 0.21,-2.04 0.21,0.73 0.22,0.45 0.21,-0.78 0.21,1.2 0.21,-0.79 0.21,0.75 0.22,-0.06 0.21,-0.05 0.21,-0.38 0.21,-0.14 0.21,0.45 0.22,-0.1 0.21,-0.49 0.21,0.74 0.21,0.2 0.21,-0.05 0.22,-0.54 0.21,-0.06 0.21,-0.2 0.21,0.63 0.21,0.14 0.22,-0.83 0.21,0.38 0.21,-0.09 0.21,0.21 0.21,-0.4 0.22,-0.01 0.21,0.41 0.21,0.27 0.21,-0.3 0.21,-0.3 0.22,0.26 0.21,0.66 0.21,-0.95 0.21,0.07 0.21,-0.51 0.22,1.51 0.21,-1.29 0.21,0.1 0.21,0.75 0.21,-0.6 0.22,1.23 0.21,-0.22 0.21,-0.28 0.21,-0.26 0.21,-0.09 0.22,-0.65 0.21,0.3 0.21,0.14 0.21,0.01 0.21,0.16 0.22,-0.7 0.21,0.46 0.21,-0.06 0.21,0.56 0.21,-0.8 0.22,0.69 0.21,-0.58 0.21,-0.22 0.21,0.32 0.21,0.01"
           style="fill:none;stroke:#ff0000;stroke-width:0.75;stroke-linecap:round;stroke-linejoin:round;stroke-miterlimit:10;stroke-dasharray:2.25, 3.75;stroke-dashoffset:0;stroke-opacity:1"
           id="path57904"
           inkscape:connector-curvature="0" /><path
           d="m 155.67,73.44 0,482.52"
           style="fill:none;stroke:#000000;stroke-width:0.75;stroke-linecap:round;stroke-linejoin:round;stroke-miterlimit:10;stroke-dasharray:0, 3;stroke-dashoffset:0;stroke-opacity:1"
           id="path57906"
           inkscape:connector-curvature="0" /></g></g><g
       id="g57908"><g
         id="g57910"
         clip-path="url(#clipPath57912)" /></g><g
       id="g57916"><g
         id="g57918"
         clip-path="url(#clipPath57920)"><path
           d="m 349.17,336.52 0.21,-23.06 0.21,-18.67 0.21,40.69 0.22,-52.72 0.21,14.61 0.21,9.37 0.21,-5.47 0.21,-0.77 0.22,4.77 0.21,35.03 0.21,-23.56 0.21,-16.65 0.21,18.91 0.22,4.14 0.21,-9.59 0.21,5.33 0.21,-10.13 0.21,6.85 0.22,-7.16 0.21,6.77 0.21,26.06 0.21,-32.74 0.21,-1.03 0.22,13.41 0.21,-14.98 0.21,-0.37 0.21,-4.66 0.21,8.22 0.22,-10.47 0.21,17.21 0.21,8.02 0.21,-15.25 0.21,10.1 0.22,1.2 0.21,-0.53 0.21,-14.87 0.21,10.89 0.21,-2.71 0.22,7.48 0.21,-4.67 0.21,-4.88 0.21,-6.32 0.21,6 0.22,-0.38 0.21,2.07 0.21,-3.87 0.21,12.51 0.21,-6.24 0.22,-0.48 0.21,-0.28 0.21,-3.8 0.21,10.94 0.21,-8.05 0.22,-6.42 0.21,1.56 0.21,1.73 0.21,13.68 0.21,-6.05 0.22,-5.47 0.21,7.41 0.21,-2.13 0.21,-6.55 0.21,-1.66 0.22,-1.82 0.21,3.19 0.21,2.99 0.21,-9.45 0.21,13.16 0.22,7.24 0.21,-18.12 0.21,1.63 0.21,-0.63 0.21,-1.19 0.22,7.4 0.21,-1.55 0.21,-9.91 0.21,10.59 0.21,-0.07 0.22,-3.54 0.21,0.81 0.21,16.9 0.21,-17.72 0.21,9.86 0.22,-12.19 0.21,9.95 0.21,0.46 0.21,5.73 0.21,-9.36 0.22,-0.04 0.21,-3.01 0.21,3.06 0.21,-2.44 0.21,1.82 0.22,-2.92 0.21,3.81 0.21,2.78 0.21,-7.19 0.21,6.38 0.22,-0.91 0.21,9.17 0.21,-11.11 0.21,-5.71 0.21,1.27 0.22,11.83 0.21,-3.57 0.21,-2.53 0.21,-3.15 0.21,6.03 0.22,-8.28 0.21,2.09 0.21,-0.5 0.21,6.91 0.21,-1.25 0.22,-5.42 0.21,2.91 0.21,3.59 0.21,-9.31 0.21,5.88 0.22,-3.95 0.21,10.04 0.21,-5.56 0.21,-2.7 0.21,4.98 0.22,-6.73 0.21,3.07 0.21,-0.72 0.21,2.05 0.21,5.85 0.22,-7.79 0.21,3.49 0.21,2.03 0.21,3.08 0.21,-3.88 0.22,3.09 0.21,-2.48 0.21,-3.41 0.21,-4.67 0.21,7.4 0.22,-2.32 0.21,-3.22 0.21,-1.57 0.21,6.93 0.21,2.11 0.22,-5.96 0.21,-5.76 0.21,10.41 0.21,-1.73 0.21,3.64 0.22,-5.77 0.21,0.75 0.21,-6.27 0.21,3.68 0.21,1.79 0.22,3.43 0.21,-3.08 0.21,-1.29 0.21,1.36 0.21,-1.64 0.22,-3.83 0.21,2.67 0.21,7.17 0.21,-2.53 0.21,0.77 0.22,-2.72 0.21,-0.76 0.21,3 0.21,-0.8 0.21,-5.82 0.22,4.12 0.21,1.32 0.21,-6.63 0.21,9.39 0.21,-1.86 0.22,-2.1 0.21,4.17 0.21,-5 0.21,-2.04 0.21,7.36 0.22,-7.49 0.21,-6.99 0.21,11.45 0.21,-4.09 0.21,3.09 0.22,-1.42 0.21,0.96 0.21,-4.83 0.21,4.36 0.21,-0.91 0.22,3.35 0.21,-1.6 0.21,-0.89 0.21,-0.33 0.21,2.63 0.22,-0.42 0.21,-5.17 0.21,4.75 0.21,0.34 0.21,-2.37 0.22,5.33 0.21,-8.93 0.21,5.2 0.21,-0.99 0.21,1.36 0.22,1.29 0.21,1.6 0.21,-0.46 0.21,-0.6 0.21,-3.49 0.22,2.02 0.21,-0.67 0.21,-3.47 0.21,8.97 0.21,-6.01 0.22,2.12 0.21,2.42 0.21,2.44 0.21,-4.51 0.21,-2.32 0.22,-2.91 0.21,0.4 0.21,2.15 0.21,2.36 0.21,-4.02 0.22,1.23 0.21,4.94 0.21,-7.98 0.21,6.94 0.21,-8.11 0.22,4.49 0.21,1.16 0.21,1.7 0.21,-1.97 0.21,1.96 0.22,-3.49 0.21,-3.18 0.21,-2.89 0.21,6 0.21,1.62 0.22,-3.91 0.21,9.34 0.21,-14.57 0.21,6.25 0.21,1.3 0.22,-0.25 0.21,3.88 0.21,-1.21 0.21,-2.55 0.21,3.42 0.22,-2.94 0.21,0.67 0.21,-0.02 0.21,-4.04 0.21,2.74 0.22,1.05 0.21,-1.66 0.21,3.17 0.21,-6.62 0.21,3.31 0.22,2.86 0.21,-3.64 0.21,2.66 0.21,-2.13 0.21,1.34 0.22,3.09 0.21,-4.58 0.21,8.13 0.21,-2.66 0.21,-3.7 0.22,2.22 0.21,-4.37 0.21,1.13 0.21,3.46 0.21,0.91 0.22,-6.01 0.21,-1.04 0.21,2.82 0.21,1.81 0.21,-3.44 0.22,2.18 0.21,4.52 0.21,-1.13 0.21,-0.85 0.21,-1.74 0.22,-4.13 0.21,2.45 0.21,-0.25 0.21,3.68 0.21,4.81 0.22,-9.4 0.21,1.96 0.21,4.33 0.21,-3.66 0.21,0.73 0.22,-1.15 0.21,2.26 0.21,-5.05 0.21,4.29 0.21,0.66 0.22,-1.3 0.21,-3.21 0.21,4.91 0.21,-1.52 0.21,-3.28 0.22,0.75 0.21,3.51 0.21,-2.27 0.21,0.15 0.21,2.19 0.22,0.36 0.21,-0.97 0.21,1.19 0.21,-4.2 0.21,3.9 0.22,0.23 0.21,-4.34 0.21,3.38 0.21,-1.73 0.21,1.8 0.22,-3.83 0.21,0.73 0.21,-0.26 0.21,2.36 0.21,-0.39 0.22,5.66 0.21,-8.52 0.21,0.81 0.21,-0.99 0.21,0.37 0.22,4.7 0.21,-0.37 0.21,-4.15 0.21,-0.78 0.21,1.18 0.22,3.05 0.21,1.57 0.21,-6.21 0.21,1.14 0.21,-2.43 0.22,6.17 0.21,-1.08 0.21,-0.41 0.21,2.05 0.21,-2.32 0.22,-0.59 0.21,0.1 0.21,1.92 0.21,-0.32 0.21,-0.87 0.22,-1.92 0.21,2.1 0.21,4.08 0.21,-0.14 0.21,-5.32 0.22,-0.62 0.21,2.59 0.21,-2.73 0.21,3.3 0.21,2.61 0.22,0.19 0.21,-0.79 0.21,-2.12 0.21,-1.18 0.21,0.82 0.22,-2.69 0.21,1.39 0.21,0.79 0.21,2.23 0.21,-0.84 0.22,-0.33 0.21,-0.85 0.21,-2.33 0.21,-1.05 0.21,1.45 0.22,8 0.21,-7.73 0.21,0.43 0.21,0.3 0.21,0.26 0.22,4.07 0.21,-1.66 0.21,-5.06 0.21,5.08 0.21,-2.67 0.22,-2.52 0.21,5.16 0.21,-5.45 0.21,4.02 0.21,-2.39 0.22,-1.7 0.21,-0.9 0.21,6.85 0.21,-5.38 0.21,4.87 0.22,-2.08 0.21,0.81 0.21,-2.04 0.21,3.78 0.21,-6.61 0.22,5.04 0.21,-0.85 0.21,1.18 0.21,1.4 0.21,-3.57 0.22,1.59 0.21,-1.86 0.21,-1.72 0.21,3.37 0.21,1.74 0.22,-1.31 0.21,2.11 0.21,-3.02 0.21,2.92 0.21,-2.12 0.22,3.15 0.21,-4.22 0.21,-1.87 0.21,2.52 0.21,-0.33 0.22,4.1 0.21,-10.11 0.21,8.3 0.21,-4.04 0.21,1.35 0.22,0.29 0.21,0.5 0.21,-2.13 0.21,1.42 0.21,0.38 0.22,-2.1 0.21,2.68 0.21,1.16 0.21,-3.99 0.21,1.43 0.22,2.35 0.21,-2.45 0.21,2.24 0.21,-1.11 0.21,-1.14 0.22,-1.13 0.21,4.27 0.21,-2.56 0.21,0.46 0.21,1.34 0.22,1.78 0.21,-1.26 0.21,-2.42 0.21,-0.76 0.21,-0.01 0.22,0.81 0.21,1.72 0.21,-3.9 0.21,0.32 0.21,0.91 0.22,3.9 0.21,-4.19 0.21,-1.08 0.21,4.77 0.21,-2.18 0.22,2.82 0.21,0.2 0.21,-0.32 0.21,-2.38 0.21,-1.58 0.22,7.26 0.21,-4.95 0.21,-2.22 0.21,2.27 0.21,0.6 0.22,0.59 0.21,-1.79 0.21,-1.23 0.21,0.9 0.21,3.53 0.22,-1.03 0.21,-2.89 0.21,-3.41 0.21,1.01 0.21,0.29 0.22,3.59 0.21,-0.71 0.21,-1.24 0.21,3.88 0.21,-1.82 0.22,-0.74 0.21,0.1 0.21,0.36 0.21,2.63 0.21,-5.75 0.22,6.73 0.21,-4.17 0.21,2.08 0.21,-0.06 0.21,-2.11 0.22,-2.41 0.21,2.65 0.21,0.99 0.21,-1.45 0.21,-0.12 0.22,1.79 0.21,-0.3 0.21,0.33 0.21,-1.13 0.21,-2.59 0.22,0.66 0.21,-1.67 0.21,4.85 0.21,0.5 0.21,-0.25 0.22,-1.91 0.21,0.07 0.21,0.92 0.21,-0.41 0.21,1.9 0.22,-0.78 0.21,-2.88 0.21,2.97 0.21,-2.11 0.21,1.09 0.22,-1.61 0.21,0.61 0.21,0.35 0.21,1.55 0.21,-2.94 0.22,-0.52 0.21,-0.8 0.21,1.12 0.21,-0.22 0.21,1.41 0.22,-3.77 0.21,5.87 0.21,-0.28 0.21,-0.3 0.21,-2.31 0.22,0.6 0.21,-0.92 0.21,1.29 0.21,2.37 0.21,-2.88 0.22,0.99 0.21,-2.56 0.21,2.63 0.21,-1.24 0.21,2.62 0.22,-1.94 0.21,-1.5 0.21,6.86 0.21,-4.3 0.21,-2.53 0.22,1.4 0.21,-1.38 0.21,4.32 0.21,-1.37 0.21,-1.97 0.22,-0.01 0.21,-0.25 0.21,-0.85 0.21,4.91 0.21,-1.75 0.22,-0.35 0.21,-0.03 0.21,-2.38 0.21,3.31 0.21,-3.22 0.22,2.85 0.21,-3.4 0.21,1.07 0.21,0.7 0.21,0.72 0.22,-0.81 0.21,1.83 0.21,-1.59 0.21,1.79 0.21,2.01 0.21,-5.73 0.22,0.89 0.21,0.7 0.21,-1.85 0.21,2.8 0.21,-1.19 0.22,1.98 0.21,1.6 0.21,0.33 0.21,-3.04 0.21,1.51 0.22,-1.14 0.21,1.74 0.21,-4.41 0.21,1.06 0.21,1.43 0.22,4.53 0.21,-3.57 0.21,-0.14 0.21,0.87 0.21,-2.75 0.22,-1.32 0.21,1.42 0.21,0.1 0.21,2.13 0.21,-2.15 0.22,-1.01 0.21,0.02 0.21,0.52 0.21,0.11 0.21,-0.87 0.22,0.15 0.21,1.48 0.21,-0.32 0.21,0.21 0.21,-1.43 0.22,1.37 0.21,3.11 0.21,-1.08 0.21,-3.85 0.21,2.64 0.22,0.82 0.21,-2.37 0.21,-1.88 0.21,3.63 0.21,-0.57 0.22,-0.9 0.21,1.33 0.21,-0.45 0.21,1.38 0.21,-5.58 0.22,3.37 0.21,-0.94 0.21,-0.2 0.21,-0.49 0.21,4.25 0.22,-1.85 0.21,-2.8 0.21,1.95 0.21,-0.59 0.21,0.42 0.22,1.2 0.21,-1.12 0.21,-2.89 0.21,0.24 0.21,1.21 0.22,1.16 0.21,2.89 0.21,-2.09 0.21,0.79 0.21,-0.25 0.22,-1.42 0.21,-0.47 0.21,0.41 0.21,0.42 0.21,-2.72 0.22,4.73 0.21,0.88 0.21,-4.82 0.21,1.61 0.21,1.16 0.22,0.41 0.21,-4.28 0.21,4.34 0.21,2.35 0.21,-2 0.22,-1.24 0.21,-0.79 0.21,-1.61 0.21,3.01 0.21,-1.67 0.22,0.39 0.21,2.13 0.21,-0.92 0.21,-1.03 0.21,0.94 0.22,-1.88 0.21,0.93 0.21,1.28 0.21,-1.9 0.21,0.49 0.22,1.51 0.21,-1.2 0.21,2.48 0.21,-3.59 0.21,3.55 0.22,-2.69 0.21,-1.36 0.21,-0.12 0.21,3.54 0.21,-0.79 0.22,-0.14 0.21,-0.02 0.21,2.35 0.21,-2.73 0.21,1.26 0.22,-1.47 0.21,2.34 0.21,-1.56 0.21,0.41 0.21,-1.95 0.22,3.5 0.21,-1.57 0.21,-1.27 0.21,-0.58 0.21,0.91 0.22,2.31 0.21,-4.77 0.21,2.2 0.21,-2.64 0.21,3.29 0.22,-1.73 0.21,2.2 0.21,-1.31 0.21,4.25 0.21,-1.65 0.22,-5 0.21,2.15 0.21,0.31 0.21,2.52 0.21,-2.88 0.22,1.47 0.21,-0.73 0.21,-1.63 0.21,1.86 0.21,1.32 0.22,-1.77 0.21,0.91 0.21,-1.37 0.21,2.51 0.21,-4.16 0.22,2.52 0.21,-1.08 0.21,1.07 0.21,1.4 0.21,3.25 0.22,-5.42 0.21,0.96 0.21,-2.17 0.21,5.17 0.21,-1.74 0.22,-0.99 0.21,-2.53 0.21,0.85 0.21,4.6 0.21,-2.28 0.22,-0.37 0.21,-0.9 0.21,-0.44 0.21,-3.24 0.21,2.44 0.22,1.57 0.21,-2.22 0.21,2.76 0.21,-1.46 0.21,2.7 0.22,-1.28 0.21,-0.3 0.21,-1.39 0.21,-1.2 0.21,1.6 0.22,0.74 0.21,1 0.21,-1.92 0.21,2.14 0.21,0.49 0.22,-3.98 0.21,1.29 0.21,0.95 0.21,2.44 0.21,-6.04 0.22,5.96 0.21,-1.32 0.21,0.26 0.21,-0.8 0.21,2.1 0.22,-2.93 0.21,-1.26 0.21,3.08 0.21,-3.33 0.21,1.66 0.22,-0.28 0.21,3.75 0.21,-2.19 0.21,-1.01 0.21,-2.94 0.22,-0.22 0.21,5.83 0.21,-1.01 0.21,-0.32 0.21,-1.86 0.22,0.81 0.21,-1.91 0.21,0.95 0.21,1.99 0.21,1.42 0.22,-2.79 0.21,-2.91 0.21,2.59 0.21,2.01 0.21,-2.66 0.22,0.12 0.21,-0.6 0.21,1.08 0.21,0.67 0.21,0.92 0.22,-0.73 0.21,-2.69 0.21,-1.21 0.21,3.44 0.21,-0.65 0.22,-0.91 0.21,1.92 0.21,-2.62 0.21,0.1 0.21,1.99 0.22,1.23 0.21,-0.69 0.21,-0.63 0.21,-2.56 0.21,4.74 0.22,-3.16 0.21,2.63 0.21,-2.97 0.21,3.63 0.21,-3.37 0.22,0.87 0.21,-1.88 0.21,1.76 0.21,0.27 0.21,-3.07 0.22,3.6 0.21,-1.07 0.21,0.37 0.21,2.12 0.21,-2.63 0.22,0.92 0.21,-0.63 0.21,1.14 0.21,-1.27 0.21,-1.02 0.22,1.91 0.21,-0.18 0.21,-0.14 0.21,1.35 0.21,-0.91 0.22,-1.14 0.21,0.23 0.21,-0.52 0.21,2.96 0.21,0.18"
           style="fill:none;stroke:#000000;stroke-width:0.75;stroke-linecap:round;stroke-linejoin:round;stroke-miterlimit:10;stroke-dasharray:none;stroke-opacity:1"
           id="path57924"
           inkscape:connector-curvature="0" /></g></g><g
       id="g57926"><path
         d="m 348.74,73.44 169.6,0"
         style="fill:none;stroke:#000000;stroke-width:0.75;stroke-linecap:round;stroke-linejoin:round;stroke-miterlimit:10;stroke-dasharray:none;stroke-opacity:1"
         id="path57928"
         inkscape:connector-curvature="0" /><path
         d="m 348.74,73.44 0,-7.2"
         style="fill:none;stroke:#000000;stroke-width:0.75;stroke-linecap:round;stroke-linejoin:round;stroke-miterlimit:10;stroke-dasharray:none;stroke-opacity:1"
         id="path57930"
         inkscape:connector-curvature="0" /><path
         d="m 391.14,73.44 0,-7.2"
         style="fill:none;stroke:#000000;stroke-width:0.75;stroke-linecap:round;stroke-linejoin:round;stroke-miterlimit:10;stroke-dasharray:none;stroke-opacity:1"
         id="path57932"
         inkscape:connector-curvature="0" /><path
         d="m 433.54,73.44 0,-7.2"
         style="fill:none;stroke:#000000;stroke-width:0.75;stroke-linecap:round;stroke-linejoin:round;stroke-miterlimit:10;stroke-dasharray:none;stroke-opacity:1"
         id="path57934"
         inkscape:connector-curvature="0" /><path
         d="m 475.94,73.44 0,-7.2"
         style="fill:none;stroke:#000000;stroke-width:0.75;stroke-linecap:round;stroke-linejoin:round;stroke-miterlimit:10;stroke-dasharray:none;stroke-opacity:1"
         id="path57936"
         inkscape:connector-curvature="0" /><path
         d="m 518.34,73.44 0,-7.2"
         style="fill:none;stroke:#000000;stroke-width:0.75;stroke-linecap:round;stroke-linejoin:round;stroke-miterlimit:10;stroke-dasharray:none;stroke-opacity:1"
         id="path57938"
         inkscape:connector-curvature="0" /><text
         transform="matrix(1,0,0,-1,344.3,47.52)"
         style="font-variant:normal;font-weight:normal;font-size:16px;font-family:Helvetica;-inkscape-font-specification:Helvetica;writing-mode:lr-tb;fill:#000000;fill-opacity:1;fill-rule:nonzero;stroke:none"
         id="text57940"><tspan
           x="0"
           y="0"
           id="tspan57942">0</tspan></text>
<text
         transform="matrix(1,0,0,-1,377.8,47.52)"
         style="font-variant:normal;font-weight:normal;font-size:16px;font-family:Helvetica;-inkscape-font-specification:Helvetica;writing-mode:lr-tb;fill:#000000;fill-opacity:1;fill-rule:nonzero;stroke:none"
         id="text57944"><tspan
           x="0 8.8959999 17.792"
           y="0"
           sodipodi:role="line"
           id="tspan57946">200</tspan></text>
<text
         transform="matrix(1,0,0,-1,420.2,47.52)"
         style="font-variant:normal;font-weight:normal;font-size:16px;font-family:Helvetica;-inkscape-font-specification:Helvetica;writing-mode:lr-tb;fill:#000000;fill-opacity:1;fill-rule:nonzero;stroke:none"
         id="text57948"><tspan
           x="0 8.8959999 17.792"
           y="0"
           sodipodi:role="line"
           id="tspan57950">400</tspan></text>
<text
         transform="matrix(1,0,0,-1,462.6,47.52)"
         style="font-variant:normal;font-weight:normal;font-size:16px;font-family:Helvetica;-inkscape-font-specification:Helvetica;writing-mode:lr-tb;fill:#000000;fill-opacity:1;fill-rule:nonzero;stroke:none"
         id="text57952"><tspan
           x="0 8.8959999 17.792"
           y="0"
           sodipodi:role="line"
           id="tspan57954">600</tspan></text>
<text
         transform="matrix(1,0,0,-1,505,47.52)"
         style="font-variant:normal;font-weight:normal;font-size:16px;font-family:Helvetica;-inkscape-font-specification:Helvetica;writing-mode:lr-tb;fill:#000000;fill-opacity:1;fill-rule:nonzero;stroke:none"
         id="text57956"><tspan
           x="0 8.8959999 17.792"
           y="0"
           sodipodi:role="line"
           id="tspan57958">800</tspan></text>
<path
         d="m 341.79,91.31 0,446.78"
         style="fill:none;stroke:#000000;stroke-width:0.75;stroke-linecap:round;stroke-linejoin:round;stroke-miterlimit:10;stroke-dasharray:none;stroke-opacity:1"
         id="path57960"
         inkscape:connector-curvature="0" /><path
         d="m 341.79,91.31 -7.2,0"
         style="fill:none;stroke:#000000;stroke-width:0.75;stroke-linecap:round;stroke-linejoin:round;stroke-miterlimit:10;stroke-dasharray:none;stroke-opacity:1"
         id="path57962"
         inkscape:connector-curvature="0" /><path
         d="m 341.79,165.77 -7.2,0"
         style="fill:none;stroke:#000000;stroke-width:0.75;stroke-linecap:round;stroke-linejoin:round;stroke-miterlimit:10;stroke-dasharray:none;stroke-opacity:1"
         id="path57964"
         inkscape:connector-curvature="0" /><path
         d="m 341.79,240.24 -7.2,0"
         style="fill:none;stroke:#000000;stroke-width:0.75;stroke-linecap:round;stroke-linejoin:round;stroke-miterlimit:10;stroke-dasharray:none;stroke-opacity:1"
         id="path57966"
         inkscape:connector-curvature="0" /><path
         d="m 341.79,314.7 -7.2,0"
         style="fill:none;stroke:#000000;stroke-width:0.75;stroke-linecap:round;stroke-linejoin:round;stroke-miterlimit:10;stroke-dasharray:none;stroke-opacity:1"
         id="path57968"
         inkscape:connector-curvature="0" /><path
         d="m 341.79,389.16 -7.2,0"
         style="fill:none;stroke:#000000;stroke-width:0.75;stroke-linecap:round;stroke-linejoin:round;stroke-miterlimit:10;stroke-dasharray:none;stroke-opacity:1"
         id="path57970"
         inkscape:connector-curvature="0" /><path
         d="m 341.79,463.63 -7.2,0"
         style="fill:none;stroke:#000000;stroke-width:0.75;stroke-linecap:round;stroke-linejoin:round;stroke-miterlimit:10;stroke-dasharray:none;stroke-opacity:1"
         id="path57972"
         inkscape:connector-curvature="0" /><path
         d="m 341.79,538.09 -7.2,0"
         style="fill:none;stroke:#000000;stroke-width:0.75;stroke-linecap:round;stroke-linejoin:round;stroke-miterlimit:10;stroke-dasharray:none;stroke-opacity:1"
         id="path57974"
         inkscape:connector-curvature="0" /><text
         transform="matrix(0,1,1,0,324.51,86.86)"
         style="font-variant:normal;font-weight:normal;font-size:16px;font-family:Helvetica;-inkscape-font-specification:Helvetica;writing-mode:lr-tb;fill:#000000;fill-opacity:1;fill-rule:nonzero;stroke:none"
         id="text57976"><tspan
           x="0"
           y="0"
           id="tspan57978">0</tspan></text>
<text
         transform="matrix(0,1,1,0,324.51,161.33)"
         style="font-variant:normal;font-weight:normal;font-size:16px;font-family:Helvetica;-inkscape-font-specification:Helvetica;writing-mode:lr-tb;fill:#000000;fill-opacity:1;fill-rule:nonzero;stroke:none"
         id="text57980"><tspan
           x="0"
           y="0"
           id="tspan57982">2</tspan></text>
<text
         transform="matrix(0,1,1,0,324.51,235.79)"
         style="font-variant:normal;font-weight:normal;font-size:16px;font-family:Helvetica;-inkscape-font-specification:Helvetica;writing-mode:lr-tb;fill:#000000;fill-opacity:1;fill-rule:nonzero;stroke:none"
         id="text57984"><tspan
           x="0"
           y="0"
           id="tspan57986">4</tspan></text>
<text
         transform="matrix(0,1,1,0,324.51,310.25)"
         style="font-variant:normal;font-weight:normal;font-size:16px;font-family:Helvetica;-inkscape-font-specification:Helvetica;writing-mode:lr-tb;fill:#000000;fill-opacity:1;fill-rule:nonzero;stroke:none"
         id="text57988"><tspan
           x="0"
           y="0"
           id="tspan57990">6</tspan></text>
<text
         transform="matrix(0,1,1,0,324.51,384.72)"
         style="font-variant:normal;font-weight:normal;font-size:16px;font-family:Helvetica;-inkscape-font-specification:Helvetica;writing-mode:lr-tb;fill:#000000;fill-opacity:1;fill-rule:nonzero;stroke:none"
         id="text57992"><tspan
           x="0"
           y="0"
           id="tspan57994">8</tspan></text>
<text
         transform="matrix(0,1,1,0,324.51,454.73)"
         style="font-variant:normal;font-weight:normal;font-size:16px;font-family:Helvetica;-inkscape-font-specification:Helvetica;writing-mode:lr-tb;fill:#000000;fill-opacity:1;fill-rule:nonzero;stroke:none"
         id="text57996"><tspan
           x="0 8.8959999"
           y="0"
           sodipodi:role="line"
           id="tspan57998">10</tspan></text>
<text
         transform="matrix(0,1,1,0,324.51,529.19)"
         style="font-variant:normal;font-weight:normal;font-size:16px;font-family:Helvetica;-inkscape-font-specification:Helvetica;writing-mode:lr-tb;fill:#000000;fill-opacity:1;fill-rule:nonzero;stroke:none"
         id="text58000"><tspan
           x="0 8.8959999"
           y="0"
           sodipodi:role="line"
           id="tspan58002">12</tspan></text>
<path
         d="m 341.79,73.44 193.47,0 0,482.52 -193.47,0 0,-482.52"
         style="fill:none;stroke:#000000;stroke-width:0.75;stroke-linecap:round;stroke-linejoin:round;stroke-miterlimit:10;stroke-dasharray:none;stroke-opacity:1"
         id="path58004"
         inkscape:connector-curvature="0" /></g><g
       id="g58006"><g
         id="g58008"
         clip-path="url(#clipPath58010)"><text
           transform="matrix(1,0,0,-1,380.41,18.72)"
           style="font-variant:normal;font-weight:normal;font-size:16px;font-family:Helvetica;-inkscape-font-specification:Helvetica;writing-mode:lr-tb;fill:#000000;fill-opacity:1;fill-rule:nonzero;stroke:none"
           id="text58014"><tspan
             x="0 10.672 19.568001 32.896 41.792 45.344002 54.240002 58.688 69.360001 72.912003 80.671997 89.568001 94.015999 99.344002 110.896"
             y="0"
             sodipodi:role="line"
             id="tspan58016">Sample Size (N)</tspan></text>
<text
           transform="matrix(0,1,1,0,295.71,276.04)"
           style="font-variant:normal;font-weight:normal;font-size:16px;font-family:Helvetica;-inkscape-font-specification:Helvetica;writing-mode:lr-tb;fill:#000000;fill-opacity:1;fill-rule:nonzero;stroke:none"
           id="text58018"><tspan
             x="0 15.104 18.656 27.552 32 40.896 45.344002 50.672001 58.672001 72"
             y="0"
             sodipodi:role="line"
             id="tspan58020">Width (cm)</tspan></text>
</g></g><g
       id="g58022"><g
         id="g58024"
         clip-path="url(#clipPath58026)"><path
           d="m 350,0 0.02,6.53 0.21,13.93 0.08,-20.46 0.21,0 0.13,49.22 0.21,-11.44 0.22,-18.47 0.21,44.53 0.21,-34.82 0.21,65.18 0.21,7.07 0.22,-23.83 0.21,19.66 0.21,25.8 0.21,8.91 0.21,-6.27 0.22,6.72 0.21,6.61 0.21,-2.04 0.21,-13.08 0.21,15.47 0.22,24.4 0.21,-19.33 0.21,5.93 0.21,16.7 0.21,-13.85 0.22,4.83 0.21,6.14 0.21,0.79 0.21,-6.43 0.21,7.36 0.22,-8.45 0.21,27.22 0.21,-9.65 0.21,7.23 0.21,-6.51 0.22,21.37 0.21,-32.58 0.21,26.72 0.21,-12 0.21,6.98 0.22,0.45 0.21,-2.96 0.21,5.62 0.21,-19.15 0.21,25.9 0.22,2.74 0.21,-11.72 0.21,2.01 0.21,9.52 0.21,-18.29 0.22,26.14 0.21,2.79 0.21,-10.85 0.21,-6.96 0.21,14.76 0.22,5.9 0.21,-11.37 0.21,11.53 0.21,-16 0.21,10.27 0.22,-3.61 0.21,12.46 0.21,-10.54 0.21,-3.41 0.21,3.2 0.22,12.53 0.21,-12.99 0.21,7.11 0.21,5.65 0.21,-6.54 0.22,9.78 0.21,-10.11 0.21,-1.38 0.21,8.71 0.21,-9.09 0.22,-3.61 0.21,9.74 0.21,7.79 0.21,-0.5 0.21,-5.19 0.22,3.65 0.21,-2.51 0.21,7.16 0.21,3.67 0.21,-0.73 0.22,4.9 0.21,-18.63 0.21,9.92 0.21,-3.75 0.21,2.03 0.22,6.2 0.21,-6.34 0.21,8.24 0.21,0.84 0.21,-2.89 0.22,1.68 0.21,13.68 0.21,-13.02 0.21,-1.6 0.21,-1.71 0.22,4.51 0.21,5.49 0.21,8.05 0.21,-15.91 0.21,2.35 0.22,-0.97 0.21,0.45 0.21,1.78 0.21,-3.98 0.21,0.06 0.22,-3.35 0.21,7.07 0.21,11.79 0.21,-8.87 0.21,0.65 0.22,-9.38 0.21,9.51 0.21,-9.74 0.21,5.69 0.21,18.18 0.22,-21.69 0.21,5.05 0.21,7.29 0.21,-7.83 0.21,16.28 0.22,-14.2 0.21,3.43 0.21,5.73 0.21,-8.46 0.21,4.33 0.22,3.75 0.21,-7.43 0.21,4.7 0.21,-1.42 0.21,4.71 0.22,-5.02 0.21,10.66 0.21,-15.37 0.21,6.04 0.21,2.15 0.22,0.62 0.21,-7.93 0.21,15.04 0.21,-2.56 0.21,-2.37 0.22,7.22 0.21,-6.72 0.21,-6.83 0.21,6.25 0.21,1.31 0.22,4.25 0.21,-2.73 0.21,5.16 0.21,-8.49 0.21,8.49 0.22,-15.48 0.21,0.87 0.21,10.89 0.21,-6.6 0.21,-2.34 0.22,9.53 0.21,-1.93 0.21,0.73 0.21,-0.15 0.21,-1.74 0.22,-0.88 0.21,-7.4 0.21,9.71 0.21,3.08 0.21,-2.71 0.22,1.14 0.21,9.44 0.21,-11.91 0.21,2.32 0.21,7.31 0.22,-17.91 0.21,5.55 0.21,-1.6 0.21,0.88 0.21,2.81 0.22,7.61 0.21,-5.51 0.21,-6.92 0.21,5.41 0.21,-0.05 0.22,5.74 0.21,-6.44 0.21,0.51 0.21,1.31 0.21,1.19 0.22,-3.39 0.21,2.67 0.21,8.69 0.21,-7.66 0.21,-1.07 0.22,6.6 0.21,-2.45 0.21,6.86 0.21,-5.06 0.21,2.18 0.22,-2.32 0.21,-2.27 0.21,5.77 0.21,-3.96 0.21,-1.89 0.22,2.8 0.21,4.14 0.21,-3.82 0.21,7.3 0.21,-9.83 0.22,2.53 0.21,0.34 0.21,7.3 0.21,-0.92 0.21,-7.92 0.22,0.58 0.21,5.37 0.21,-4 0.21,3.73 0.21,2.02 0.22,-5.47 0.21,2.08 0.21,-5.26 0.21,2.09 0.21,-5.87 0.22,5.03 0.21,-1.06 0.21,1.79 0.21,8.93 0.21,-5.36 0.22,-3.27 0.21,-2.33 0.21,1.38 0.21,1.67 0.21,-4.48 0.22,6.67 0.21,-0.27 0.21,-7.82 0.21,5.93 0.21,-3.83 0.22,-0.24 0.21,6.82 0.21,-3.23 0.21,6.16 0.21,-0.05 0.22,-5.48 0.21,1.01 0.21,1.81 0.21,-8.73 0.21,12.02 0.22,-3.24 0.21,2.54 0.21,0.23 0.21,-8.97 0.21,7.32 0.22,-1.89 0.21,1.85 0.21,0.4 0.21,-4.98 0.21,10.01 0.22,-3.25 0.21,-4.72 0.21,2.48 0.21,6.63 0.21,-8.84 0.22,-1.42 0.21,1.56 0.21,10.19 0.21,-6.67 0.21,-0.21 0.22,2.02 0.21,-10.86 0.21,13.92 0.21,-0.57 0.21,-6.02 0.22,1.6 0.21,-5.37 0.21,3.16 0.21,3.43 0.21,-4.15 0.22,2.38 0.21,-0.24 0.21,4.16 0.21,1.52 0.21,3.14 0.22,-7.37 0.21,-0.89 0.21,-2.01 0.21,6.12 0.21,-2.86 0.22,-11.21 0.21,19 0.21,-12.91 0.21,1.74 0.21,4.37 0.22,-8.59 0.21,4.7 0.21,7.26 0.21,-7.38 0.21,-4.22 0.22,10.81 0.21,0.32 0.21,-1.19 0.21,-5.21 0.21,8.39 0.22,-7.96 0.21,11.18 0.21,-6.9 0.21,-0.95 0.21,2.57 0.22,-3.44 0.21,-2.14 0.21,2.91 0.21,0.34 0.21,-2.54 0.22,-4.72 0.21,0.51 0.21,5.27 0.21,2.65 0.21,1.95 0.22,-1.92 0.21,-6.03 0.21,7.41 0.21,1.17 0.21,-9.34 0.22,10.6 0.21,-10.42 0.21,1.63 0.21,0.44 0.21,4.36 0.22,2.34 0.21,2.32 0.21,-2.97 0.21,-3.84 0.21,0.35 0.22,2.9 0.21,2.75 0.21,-5.49 0.21,7.42 0.21,0.14 0.22,-4.97 0.21,3.96 0.21,-4.3 0.21,-2.1 0.21,6.15 0.22,-2.56 0.21,0.13 0.21,2.38 0.21,-1.66 0.21,1.55 0.22,-5.84 0.21,8.08 0.21,-3.11 0.21,-1.31 0.21,3.42 0.22,0.29 0.21,1.72 0.21,-1.14 0.21,-3 0.21,-4.21 0.22,3.96 0.21,6.54 0.21,-7.12 0.21,1.17 0.21,-0.3 0.22,-0.05 0.21,2.19 0.21,-4.53 0.21,2.4 0.21,1.88 0.22,4.29 0.21,-9.23 0.21,3.79 0.21,-7.38 0.21,2.01 0.22,6.99 0.21,1.12 0.21,-1.74 0.21,3.66 0.21,-7.94 0.22,-1.69 0.21,6.28 0.21,-9.43 0.21,6.79 0.21,2.96 0.22,-8.61 0.21,3.08 0.21,7.11 0.21,-8.2 0.21,6.21 0.22,2.73 0.21,-5.66 0.21,-6.26 0.21,13.27 0.21,-8.69 0.22,4.38 0.21,-4.49 0.21,3.35 0.21,2.13 0.21,-2.44 0.22,-1.46 0.21,0.02 0.21,-2.54 0.21,3.81 0.21,4.32 0.22,-3.99 0.21,-0.81 0.21,-1.33 0.21,7.26 0.21,-1.03 0.22,1.27 0.21,-9.38 0.21,2.82 0.21,1.07 0.21,-0.18 0.22,3.27 0.21,-5.54 0.21,3.26 0.21,-2.42 0.21,3.54 0.22,2.87 0.21,-4.39 0.21,3.54 0.21,-0.82 0.21,-4.5 0.22,-1.7 0.21,7.66 0.21,-5.47 0.21,0.31 0.21,-2.26 0.22,5.28 0.21,-2.66 0.21,-0.02 0.21,6.69 0.21,-5.8 0.22,-0.59 0.21,2.18 0.21,-0.39 0.21,3.08 0.21,0.54 0.22,-4.2 0.21,3.39 0.21,-0.02 0.21,-1.32 0.21,3.18 0.22,-6.67 0.21,1.75 0.21,-0.7 0.21,4.1 0.21,-4.89 0.22,7.48 0.21,-4.74 0.21,-5.89 0.21,4.83 0.21,-2.9 0.22,3.32 0.21,4.18 0.21,-2.55 0.21,1.58 0.21,-2.42 0.22,3.96 0.21,1.16 0.21,-5.87 0.21,0.62 0.21,3.93 0.22,-3.41 0.21,0.01 0.21,1.78 0.21,3.06 0.21,-2.02 0.22,1 0.21,-4.06 0.21,-2.99 0.21,0.94 0.21,4.23 0.22,2.46 0.21,-6.34 0.21,-2.35 0.21,11.67 0.21,-9.73 0.22,0.88 0.21,5.32 0.21,-3.91 0.21,-0.23 0.21,-3.19 0.22,11.02 0.21,-6.83 0.21,0.75 0.21,-1.63 0.21,-5.01 0.22,4.55 0.21,3.91 0.21,0.61 0.21,-2.01 0.21,0.62 0.22,1.24 0.21,-0.55 0.21,3.34 0.21,-3.98 0.21,-1.2 0.22,1.54 0.21,-5.02 0.21,11.13 0.21,-7.5 0.21,0.54 0.22,-12 0.21,13.95 0.21,0.12 0.21,2.74 0.21,-4.92 0.22,6.03 0.21,-8.32 0.21,0.01 0.21,4.52 0.21,0.84 0.22,-2.59 0.21,1.75 0.21,-3.12 0.21,1.32 0.21,-0.58 0.22,-0.17 0.21,-1.17 0.21,2.4 0.21,-1.06 0.21,3.04 0.22,-5.41 0.21,6.9 0.21,-6.32 0.21,2.31 0.21,-2.89 0.22,1.33 0.21,-1.7 0.21,4.22 0.21,2.53 0.21,-5.77 0.22,-0.54 0.21,-0.38 0.21,3.91 0.21,5.47 0.21,-1.93 0.22,-4.78 0.21,5.21 0.21,5.75 0.21,-7.2 0.21,-6.18 0.22,0.88 0.21,5.76 0.21,-3.62 0.21,1.93 0.21,-3.73 0.22,3.45 0.21,-3.31 0.21,-4.66 0.21,15.12 0.21,-5.67 0.22,4.32 0.21,-4.35 0.21,-1.11 0.21,-2.94 0.21,1.85 0.22,1.83 0.21,-5.4 0.21,8.52 0.21,-1.09 0.21,-6.6 0.22,4.53 0.21,-2.66 0.21,5.8 0.21,-2.42 0.21,-2.35 0.21,-6.01 0.22,5.93 0.21,-0.89 0.21,2.72 0.21,2.98 0.21,-0.07 0.22,-6.25 0.21,3.35 0.21,1.86 0.21,-1.98 0.21,4.08 0.22,-1.54 0.21,7.19 0.21,-11.86 0.21,5.84 0.21,-4.08 0.22,6.97 0.21,-5.46 0.21,1.76 0.21,-2.15 0.21,-3.56 0.22,4.69 0.21,-4.09 0.21,3.47 0.21,3.37 0.21,-9.4 0.22,1.92 0.21,5.64 0.21,-3.22 0.21,-1.09 0.21,-2.47 0.22,6.23 0.21,-1.19 0.21,0.46 0.21,-1.89 0.21,-0.88 0.22,-0.5 0.21,0.09 0.21,0.82 0.21,-2.76 0.21,5.6 0.22,2.13 0.21,-3.66 0.21,0.94 0.21,-2.22 0.21,2.34 0.22,3.06 0.21,-0.25 0.21,-6 0.21,3.44 0.21,-1.81 0.22,-0.56 0.21,4.17 0.21,-3.19 0.21,2.64 0.21,-0.3 0.22,-0.09 0.21,-2.54 0.21,-0.36 0.21,3.65 0.21,-3.73 0.22,-2.49 0.21,-2.06 0.21,1.53 0.21,3.02 0.21,-1.18 0.22,3.98 0.21,-0.36 0.21,-2.67 0.21,-0.07 0.21,-1.9 0.22,1.24 0.21,3.95 0.21,-6.59 0.21,0.54 0.21,4.62 0.22,2.59 0.21,-0.2 0.21,-1.85 0.21,0.48 0.21,-1.01 0.22,2.45 0.21,-8.78 0.21,5.74 0.21,1.96 0.21,0.28 0.22,-3.36 0.21,2.15 0.21,-1.25 0.21,0.46 0.21,-1.67 0.22,0.79 0.21,1.97 0.21,-1.52 0.21,-5.22 0.21,5.23 0.22,-0.09 0.21,2.99 0.21,-3.24 0.21,1.58 0.21,1.37 0.22,2.5 0.21,-2.55 0.21,3.61 0.21,0.39 0.21,-2.66 0.22,-4.49 0.21,-0.4 0.21,2.29 0.21,7.53 0.21,-6.34 0.22,-1.88 0.21,-2.64 0.21,2.13 0.21,0.01 0.21,7.46 0.22,-6.24 0.21,3.3 0.21,-3.79 0.21,1.48 0.21,-0.73 0.22,5.03 0.21,-4.12 0.21,-3.3 0.21,5.52 0.21,-4.26 0.22,1.19 0.21,-2.3 0.21,1.4 0.21,-1.32 0.21,3.65 0.22,-2.73 0.21,4.68 0.21,-4.31 0.21,0.65 0.21,4.78 0.22,-5.52 0.21,-0.9 0.21,6.4 0.21,-3.77 0.21,-2.38 0.22,0.11 0.21,3.43 0.21,-2.21 0.21,-1.15 0.21,6.03 0.22,-5.97 0.21,1 0.21,4.24 0.21,-4.23 0.21,-2.43 0.22,3.59 0.21,0.06 0.21,5.28 0.21,-1.77 0.21,-0.5 0.22,-5.24 0.21,3.99 0.21,-5.85 0.21,8.25 0.21,-3.49 0.22,1.45 0.21,-2.01 0.21,1.19 0.21,-0.02 0.21,3.43 0.22,-2.47 0.21,-3.67 0.21,5.01 0.21,-5.77 0.21,4.11 0.22,-3.39 0.21,2.21 0.21,1.81 0.21,-3 0.21,6.18 0.22,-3.67 0.21,1.8 0.21,-1.17 0.21,-3.03 0.21,-1.08 0.22,2.93 0.21,-0.03 0.21,2.94 0.21,-8.24 0.21,8.12 0.22,-4.31 0.21,-1.77 0.21,2.3 0.21,1.55 0.21,-1.43 0.22,0.11 0.21,-0.09 0.21,-0.12 0.21,6.24 0.21,-0.33 0.22,-11.54 0.21,8.12 0.21,-1.13 0.21,-1.08 0.21,0.31 0.22,-1.35 0.21,0.51 0.21,2.26 0.21,0.42 0.21,-3.7 0.22,0.24 0.21,5.35 0.21,-1.73 0.21,-1.28 0.21,1.05 0.22,-3.43 0.21,1.25 0.21,-0.29 0.21,4.19 0.21,0.96 0.22,-5.29 0.21,5.78 0.21,-5.75 0.21,-1.4 0.21,0.97 0.22,-0.36 0.21,1.74 0.21,-0.68 0.21,-1.45 0.21,4.32 0.22,1.81 0.21,-4.87 0.21,-3.24 0.21,6.86 0.21,-7.19 0.22,4.97 0.21,0.44 0.21,0.65 0.21,-2.3 0.21,0.29 0.22,1.27 0.21,0.15 0.21,-0.77 0.21,-3.92 0.21,3.03 0.22,2.38 0.21,-0.01 0.21,-0.06 0.21,1.84 0.21,0.46 0.22,-7.44 0.21,3.1 0.21,2.06 0.21,0.08 0.21,-1.44 0.22,-0.68 0.21,-0.71 0.21,-1.35 0.21,2.49 0.21,2.25 0.22,-0.21 0.21,1.6 0.21,-0.67 0.21,-2.97 0.21,-1.82 0.22,3.41 0.21,-2.88 0.21,4.32 0.21,-0.76 0.21,-1.79 0.22,-0.15 0.21,1.43 0.21,-1.94 0.21,2.31 0.21,1.98 0,57.13 -0.21,1.6 -0.21,-3.6 -0.21,-0.9 -0.21,0.96 -0.22,2.13 -0.21,0.04 -0.21,-3.45 -0.21,4.59 -0.21,-2.52 -0.22,-0.41 -0.21,0.22 -0.21,-0.42 -0.21,-2.96 -0.21,2.85 -0.22,-2.03 -0.21,7.5 -0.21,-1.74 -0.21,-2.1 -0.21,1.43 -0.22,-7.89 -0.21,4.72 -0.21,-0.47 -0.21,-1.46 -0.21,6.87 -0.22,-9.18 -0.21,7.19 -0.21,-5.42 -0.21,5.88 -0.21,-5.27 -0.22,8.71 -0.21,-6.45 -0.21,1.19 -0.21,0.48 -0.21,1.54 -0.22,-1.19 -0.21,-3.69 -0.21,-2.51 -0.21,5.89 -0.21,-3.38 -0.22,6.77 -0.21,-5.87 -0.21,-0.04 -0.21,-0.8 -0.21,0.49 -0.22,3.29 -0.21,2.47 -0.21,-2.78 -0.21,-2.86 -0.21,2.95 -0.22,-0.6 -0.21,6.29 -0.21,-5.43 -0.21,-10.93 -0.21,11.61 -0.22,0.29 -0.21,-1.87 -0.21,0.19 -0.21,-2.18 -0.21,5.08 -0.22,-5.06 -0.21,4.78 -0.21,-0.64 -0.21,0.27 -0.21,-6.29 -0.22,0.67 -0.21,2.18 -0.21,2.44 -0.21,6.64 -0.21,-6.99 -0.22,-0.79 -0.21,-3.01 -0.21,5.59 -0.21,-7.3 -0.21,10.65 -0.22,-5.68 -0.21,-4.54 -0.21,7.84 -0.21,-0.64 -0.21,2.55 -0.22,-11.81 -0.21,10.65 -0.21,-3.34 -0.21,0.41 -0.21,-4.36 -0.22,3.66 -0.21,7.14 -0.21,-12.53 -0.21,6.79 -0.21,-2.04 -0.22,1.46 -0.21,-4.28 -0.21,-0.63 -0.21,1.6 -0.21,2.41 -0.22,-1.11 -0.21,0.78 -0.21,-0.09 -0.21,-3.69 -0.21,6.64 -0.22,-6.54 -0.21,-0.75 -0.21,0.7 -0.21,5.9 -0.21,-1.87 -0.22,-1.73 -0.21,7.98 -0.21,-9.23 -0.21,-0.5 -0.21,3.05 -0.22,3.44 -0.21,-0.01 -0.21,-2.09 -0.21,-1.51 -0.21,2.06 -0.22,5.6 -0.21,-7 -0.21,-4.56 -0.21,3.13 -0.21,2.21 -0.22,-1.45 -0.21,5.91 -0.21,-9.26 -0.21,6.99 -0.21,-0.83 -0.22,-2.43 -0.21,3.38 -0.21,-4.86 -0.21,1.04 -0.21,4.9 -0.22,-2.83 -0.21,3.39 -0.21,-8.82 -0.21,5.77 -0.21,-5.19 -0.22,4.47 -0.21,8.09 -0.21,-7.84 -0.21,-1.7 -0.21,0.29 -0.22,0.72 -0.21,-2.93 -0.21,3.96 -0.21,-3.01 -0.21,7.24 -0.22,-3.41 -0.21,-6.09 -0.21,6.67 -0.21,-0.76 -0.21,-0.96 -0.22,-1.97 -0.21,3.15 -0.21,0.67 -0.21,-0.67 -0.21,-1.39 -0.22,-3.29 -0.21,4.93 -0.21,5.48 -0.21,-2.58 -0.21,-2.58 -0.22,-1.61 -0.21,-4.75 -0.21,0.44 -0.21,2.53 -0.21,2.33 -0.22,0.88 -0.21,-9.75 -0.21,7.55 -0.21,-1.34 -0.21,-0.15 -0.22,-0.52 -0.21,0.39 -0.21,5.38 -0.21,-5.81 -0.21,1.15 -0.22,3.66 -0.21,3.35 -0.21,-3.15 -0.21,0.32 -0.21,-2.3 -0.22,0.02 -0.21,1.66 -0.21,-5.55 -0.21,1.97 -0.21,3.71 -0.22,-0.86 -0.21,4.28 -0.21,-2.76 -0.21,-2.93 -0.21,-0.21 -0.22,1.61 -0.21,-3.33 -0.21,-2.73 -0.21,7.8 -0.21,-1.97 -0.22,-6.86 -0.21,10.06 -0.21,-0.31 -0.21,-7.4 -0.21,4.89 -0.22,4.06 -0.21,-1.39 -0.21,-1.65 -0.21,1.51 -0.21,-6.15 -0.22,1.68 -0.21,-3.62 -0.21,2.55 -0.21,7.31 -0.21,0.17 -0.22,-4.88 -0.21,-4.57 -0.21,4.84 -0.21,-4.28 -0.21,3.07 -0.22,3.61 -0.21,-8.8 -0.21,3.63 -0.21,-2.79 -0.21,6.04 -0.22,-7.31 -0.21,9.36 -0.21,0.68 -0.21,-5.11 -0.21,-2.89 -0.22,4.84 -0.21,3.49 -0.21,-9.48 -0.21,4.7 -0.21,1.08 -0.22,0.5 -0.21,0.3 -0.21,4.94 -0.21,3 -0.21,-6.13 -0.22,-3.24 -0.21,1.97 -0.21,-2.31 -0.21,1.11 -0.21,-4.17 -0.22,5.93 -0.21,-0.71 -0.21,-1.33 -0.21,-4.26 -0.21,5.62 -0.22,3.94 -0.21,-5.1 -0.21,-0.89 -0.21,3.26 -0.21,-6.93 -0.22,7.34 -0.21,1.92 -0.21,-3.88 -0.21,2.03 -0.21,1.69 -0.22,-2.1 -0.21,-6.93 -0.21,3.72 -0.21,-3.03 -0.21,3.71 -0.22,0.73 -0.21,1.05 -0.21,4.1 -0.21,1.22 -0.21,0.15 -0.22,-10.23 -0.21,2.32 -0.21,-2.63 -0.21,6.44 -0.21,-2.31 -0.22,4.17 -0.21,5.44 -0.21,-6.38 -0.21,-5.99 -0.21,8.97 -0.21,-6.32 -0.22,6.16 -0.21,-8.03 -0.21,-2.49 -0.21,6.37 -0.21,1.41 -0.22,-3.87 -0.21,8.27 -0.21,-9.54 -0.21,3.63 -0.21,-4.28 -0.22,5.02 -0.21,-2.16 -0.21,5.29 -0.21,-2.96 -0.21,-2.81 -0.22,3.48 -0.21,0.21 -0.21,4.66 -0.21,-12.27 -0.21,8.53 -0.22,-1.93 -0.21,-1.11 -0.21,1.41 -0.21,-7.98 -0.21,8.21 -0.22,-0.89 -0.21,-7.18 -0.21,7.94 -0.21,-1.34 -0.21,4.74 -0.22,-2.52 -0.21,-0.01 -0.21,-2.22 -0.21,1.66 -0.21,0.13 -0.22,0.14 -0.21,1.73 -0.21,2.9 -0.21,-5.76 -0.21,-4.83 -0.22,2.12 -0.21,0.23 -0.21,-0.64 -0.21,0.17 -0.21,0.43 -0.22,0.86 -0.21,5.31 -0.21,-1.79 -0.21,-3.81 -0.21,0.53 -0.22,0.63 -0.21,-1.35 -0.21,8.75 -0.21,-5.93 -0.21,-2.57 -0.22,7.6 -0.21,-8.72 -0.21,3.55 -0.21,-1.7 -0.21,13.8 -0.22,-8.17 -0.21,1.03 -0.21,-8.5 -0.21,1.42 -0.21,-1.67 -0.22,0.23 -0.21,3.97 -0.21,-1.72 -0.21,2.67 -0.21,0.07 -0.22,-2.35 -0.21,0.86 -0.21,0.89 -0.21,-1.38 -0.21,-1.39 -0.22,9.38 -0.21,-0.8 -0.21,-1.49 -0.21,-3.42 -0.21,1.51 -0.22,-2.44 -0.21,8.3 -0.21,-5.48 -0.21,-4.63 -0.21,5.13 -0.22,2.34 -0.21,-6.09 -0.21,3.92 -0.21,0.14 -0.21,-4.94 -0.22,-4.72 -0.21,3.67 -0.21,-1.09 -0.21,3.84 -0.21,1.72 -0.22,3.04 -0.21,-9.08 -0.21,1.28 -0.21,4.23 -0.21,3.58 -0.22,-4.58 -0.21,2.73 -0.21,-3.93 -0.21,-1.43 -0.21,11.07 -0.22,-10.56 -0.21,0.75 -0.21,6.33 -0.21,-1.9 -0.21,3.76 -0.22,-2.3 -0.21,1.44 -0.21,-4.71 -0.21,-3.72 -0.21,3.65 -0.22,-0.32 -0.21,-6.71 -0.21,3.44 -0.21,7.1 -0.21,-1.69 -0.22,-8.27 -0.21,3.2 -0.21,0.19 -0.21,4.81 -0.21,5.92 -0.22,-7.76 -0.21,-2.14 -0.21,2.15 -0.21,4.74 -0.21,-6.35 -0.22,1.66 -0.21,-3.52 -0.21,8.9 -0.21,-4.5 -0.21,2.25 -0.22,0.59 -0.21,-5.14 -0.21,8.29 -0.21,-7.77 -0.21,2.29 -0.22,2.5 -0.21,-5.26 -0.21,-3.66 -0.21,7.8 -0.21,-5.39 -0.22,2.29 -0.21,0.85 -0.21,5.66 -0.21,-13.34 -0.21,14.67 -0.22,-4.93 -0.21,0.48 -0.21,-3.97 -0.21,6.56 -0.21,-0.94 -0.22,-5.04 -0.21,3.21 -0.21,1.43 -0.21,4.7 -0.21,-5.02 -0.22,-1.38 -0.21,0.85 -0.21,-2.92 -0.21,0.89 -0.21,3.75 -0.22,-4.64 -0.21,4.7 -0.21,-0.67 -0.21,0.98 -0.21,-2.79 -0.22,-5.7 -0.21,4.52 -0.21,5.72 -0.21,-2.18 -0.21,-7.28 -0.22,6.88 -0.21,-3.53 -0.21,2.58 -0.21,-6.61 -0.21,4.89 -0.22,-5.21 -0.21,7.74 -0.21,-1.24 -0.21,1.46 -0.21,-4.04 -0.22,3.36 -0.21,-2.61 -0.21,-6.5 -0.21,8.38 -0.21,4.45 -0.22,-1.15 -0.21,1.48 -0.21,-7.97 -0.21,2.93 -0.21,6.21 -0.22,-11.71 -0.21,-1.01 -0.21,4.51 -0.21,0.12 -0.21,3.88 -0.22,0.61 -0.21,1.39 -0.21,-3.29 -0.21,-8.7 -0.21,3.76 -0.22,9.35 -0.21,-5.85 -0.21,-0.66 -0.21,3.11 -0.21,3.3 -0.22,-0.09 -0.21,-1.81 -0.21,-7.9 -0.21,2.35 -0.21,2.89 -0.22,-4.59 -0.21,12.18 -0.21,-1.37 -0.21,-5.78 -0.21,-4.06 -0.22,1.28 -0.21,7.87 -0.21,-1.45 -0.21,-8.15 -0.21,3.77 -0.22,-3.79 -0.21,4.78 -0.21,3.31 -0.21,-4.66 -0.21,4.91 -0.22,-9.45 -0.21,5.23 -0.21,-6.13 -0.21,9.46 -0.21,-0.83 -0.22,-3.75 -0.21,1.99 -0.21,2 -0.21,9.92 -0.21,-9.67 -0.22,1.2 -0.21,-10.08 -0.21,3.15 -0.21,5.79 -0.21,11 -0.22,-13.22 -0.21,2.72 -0.21,-2.08 -0.21,5.8 -0.21,-0.95 -0.22,2.94 -0.21,-6.15 -0.21,3.81 -0.21,-3.85 -0.21,6.54 -0.22,-3.89 -0.21,-5.23 -0.21,7.44 -0.21,-9.27 -0.21,13.12 -0.22,-8.69 -0.21,4.02 -0.21,-5.52 -0.21,3.34 -0.21,-6.7 -0.22,9.31 -0.21,2.35 -0.21,-4.34 -0.21,-2.56 -0.21,11.12 -0.22,-6 -0.21,3.06 -0.21,-6.84 -0.21,-2.8 -0.21,14.47 -0.22,-8.92 -0.21,-4.31 -0.21,13.43 -0.21,-10.67 -0.21,-4.81 -0.22,11.44 -0.21,-6.47 -0.21,-5.85 -0.21,4.65 -0.21,-5.14 -0.22,10.64 -0.21,-0.65 -0.21,5.12 -0.21,5.41 -0.21,-14.4 -0.22,-2.77 -0.21,0.87 -0.21,-4.19 -0.21,8.28 -0.21,-8.78 -0.22,14.04 -0.21,-2.03 -0.21,-13.59 -0.21,7.93 -0.21,10.3 -0.22,-5.86 -0.21,-1.44 -0.21,11.95 -0.21,-13.77 -0.21,4.42 -0.22,-9.42 -0.21,7.33 -0.21,-0.73 -0.21,-4.91 -0.21,9.13 -0.22,-7.61 -0.21,0.7 -0.21,4.27 -0.21,-6.11 -0.21,5.86 -0.22,-5.34 -0.21,6.53 -0.21,-0.64 -0.21,1.85 -0.21,-0.32 -0.22,0.4 -0.21,-6.91 -0.21,11.28 -0.21,-0.81 -0.21,-0.95 -0.22,0.25 -0.21,-6.41 -0.21,-6.58 -0.21,21.33 -0.21,-18.95 -0.22,14.47 -0.21,-7.71 -0.21,-10.33 -0.21,7.17 -0.21,4.02 -0.22,3.7 -0.21,-9.28 -0.21,12.89 -0.21,-1.62 -0.21,-3.39 -0.22,-3.95 -0.21,10.36 -0.21,-11.8 -0.21,10.72 -0.21,-7.81 -0.22,-7.93 -0.21,10.07 -0.21,-1.01 -0.21,-8.28 -0.21,4.57 -0.22,6.39 -0.21,-3.28 -0.21,8.09 -0.21,2.42 -0.21,-4.49 -0.22,-1.71 -0.21,2.19 -0.21,-10.64 -0.21,3.12 -0.21,5.48 -0.22,-1.24 -0.21,5.09 -0.21,-2.76 -0.21,6.69 -0.21,-5.48 -0.22,-4.9 -0.21,-0.54 -0.21,-3.07 -0.21,-3.55 -0.21,15.42 -0.22,-4.06 -0.21,3.68 -0.21,-8.36 -0.21,-0.79 -0.21,13.01 -0.22,-2.56 -0.21,-4.07 -0.21,1.97 -0.21,2.28 -0.21,-3.24 -0.22,-0.94 -0.21,1.76 -0.21,-3.31 -0.21,2.74 -0.21,-7.44 -0.22,10.47 -0.21,-3.38 -0.21,9.06 -0.21,-24.5 -0.21,19.54 -0.22,-2.95 -0.21,-7.39 -0.21,6.39 -0.21,-1.92 -0.21,1.11 -0.22,5.34 -0.21,1 -0.21,-15.69 -0.21,22.97 -0.21,-10.05 -0.22,-9.1 -0.21,9.89 -0.21,1.45 -0.21,-5.27 -0.21,-0.4 -0.22,14.95 -0.21,-3.87 -0.21,-1.55 -0.21,-3.44 -0.21,-4.48 -0.22,-7.8 -0.21,11.76 -0.21,-11.21 -0.21,7.74 -0.21,3.43 -0.22,-2.6 -0.21,-2.28 -0.21,-1.11 -0.21,5.71 -0.21,-8.22 -0.22,18.77 -0.21,-9.67 -0.21,0.92 -0.21,-5.8 -0.21,3.6 -0.22,12.54 -0.21,-2.07 -0.21,-7.81 -0.21,-12.24 -0.21,17.09 -0.22,-0.38 -0.21,-10.08 -0.21,7.92 -0.21,11.53 -0.21,-2.47 -0.22,-2.44 -0.21,12.1 -0.21,-14.64 -0.21,1.67 -0.21,-3.54 -0.22,1.39 -0.21,4.57 -0.21,-11.92 -0.21,8.72 -0.21,-1.08 -0.22,-8.23 -0.21,8.21 -0.21,11.1 -0.21,1.36 -0.21,-10.56 -0.22,-1.49 -0.21,-11.11 -0.21,9.75 -0.21,4.61 -0.21,1.27 -0.22,7.48 -0.21,2.57 -0.21,-17.82 -0.21,2.8 -0.21,-3.74 -0.22,15.59 -0.21,-9.71 -0.21,-9.62 -0.21,13.12 -0.21,12.62 -0.22,-19.14 -0.21,-4.25 -0.21,9.81 -0.21,9.22 -0.21,-4.67 -0.22,3.5 -0.21,-15.66 -0.21,15.22 -0.21,2.7 -0.21,-13.98 -0.22,12.04 -0.21,-1.6 -0.21,1.14 -0.21,3.79 -0.21,-12.62 -0.22,4.99 -0.21,18 -0.21,-7.79 -0.21,6.24 -0.21,-22.42 -0.22,28.03 -0.21,-24.9 -0.21,34.94 -0.21,-26.03 -0.21,8.13 -0.22,3.47 -0.21,-8.95 -0.21,-12.47 -0.21,18.43 -0.21,-7.01 -0.22,-5 -0.21,-4.18 -0.21,6.92 -0.21,3.86 -0.21,23.24 -0.22,-1.95 -0.21,-23.12 -0.21,15.49 -0.21,-16.51 -0.21,6.07 -0.22,0.04 -0.21,13.58 -0.21,-2.91 -0.21,15.81 -0.21,-26.21 -0.22,16.84 -0.21,26.87 -0.21,-34.32 -0.21,-14.32 -0.21,-0.33 -0.22,38.99 -0.21,-2.2 -0.21,-12.35 -0.21,9.62 -0.21,-11.16 -0.22,3.68 -0.21,38.39 -0.21,-44.17 -0.21,13.36 -0.21,-7.1 -0.22,1.21 -0.21,-5.01 -0.21,0.64 -0.21,36.46 -0.21,-23.24 -0.22,6.41 -0.21,-1.09 -0.21,-14.54 -0.21,20.09 -0.21,28.29 -0.22,-10.86 -0.21,-12.84 -0.21,24.07 -0.21,-15.26 -0.21,-28.26 -0.22,25.75 -0.21,-30.29 -0.21,26.03 -0.21,6.67 -0.21,10.64 -0.22,-2.44 -0.21,17.53 -0.21,52.41 -0.21,-54.15 -0.21,-6.93 -0.22,21.03 -0.21,-19.96 -0.21,29.16 -0.21,15.15 -0.21,38.82 -0.22,-32.1 -0.21,-30.75 -0.21,98.48 -0.18,10.54 -0.05,0 -0.19,-23.77 -0.22,-28.01 -0.21,-9.89 -0.14,61.67 -0.16,0 -0.12,-40.73 -0.21,-15.28 -0.06,56.01 -0.79,0 0,-615 0.83,0 z"
           style="fill:#bfbfbf;fill-opacity:1;fill-rule:nonzero;stroke:none"
           id="path58030"
           inkscape:connector-curvature="0" /><path
           d="m 349.17,336.52 0.21,-23.06 0.21,-18.67 0.21,40.69 0.22,-52.72 0.21,14.61 0.21,9.37 0.21,-5.47 0.21,-0.77 0.22,4.77 0.21,35.03 0.21,-23.56 0.21,-16.65 0.21,18.91 0.22,4.14 0.21,-9.59 0.21,5.33 0.21,-10.13 0.21,6.85 0.22,-7.16 0.21,6.77 0.21,26.06 0.21,-32.74 0.21,-1.03 0.22,13.41 0.21,-14.98 0.21,-0.37 0.21,-4.66 0.21,8.22 0.22,-10.47 0.21,17.21 0.21,8.02 0.21,-15.25 0.21,10.1 0.22,1.2 0.21,-0.53 0.21,-14.87 0.21,10.89 0.21,-2.71 0.22,7.48 0.21,-4.67 0.21,-4.88 0.21,-6.32 0.21,6 0.22,-0.38 0.21,2.07 0.21,-3.87 0.21,12.51 0.21,-6.24 0.22,-0.48 0.21,-0.28 0.21,-3.8 0.21,10.94 0.21,-8.05 0.22,-6.42 0.21,1.56 0.21,1.73 0.21,13.68 0.21,-6.05 0.22,-5.47 0.21,7.41 0.21,-2.13 0.21,-6.55 0.21,-1.66 0.22,-1.82 0.21,3.19 0.21,2.99 0.21,-9.45 0.21,13.16 0.22,7.24 0.21,-18.12 0.21,1.63 0.21,-0.63 0.21,-1.19 0.22,7.4 0.21,-1.55 0.21,-9.91 0.21,10.59 0.21,-0.07 0.22,-3.54 0.21,0.81 0.21,16.9 0.21,-17.72 0.21,9.86 0.22,-12.19 0.21,9.95 0.21,0.46 0.21,5.73 0.21,-9.36 0.22,-0.04 0.21,-3.01 0.21,3.06 0.21,-2.44 0.21,1.82 0.22,-2.92 0.21,3.81 0.21,2.78 0.21,-7.19 0.21,6.38 0.22,-0.91 0.21,9.17 0.21,-11.11 0.21,-5.71 0.21,1.27 0.22,11.83 0.21,-3.57 0.21,-2.53 0.21,-3.15 0.21,6.03 0.22,-8.28 0.21,2.09 0.21,-0.5 0.21,6.91 0.21,-1.25 0.22,-5.42 0.21,2.91 0.21,3.59 0.21,-9.31 0.21,5.88 0.22,-3.95 0.21,10.04 0.21,-5.56 0.21,-2.7 0.21,4.98 0.22,-6.73 0.21,3.07 0.21,-0.72 0.21,2.05 0.21,5.85 0.22,-7.79 0.21,3.49 0.21,2.03 0.21,3.08 0.21,-3.88 0.22,3.09 0.21,-2.48 0.21,-3.41 0.21,-4.67 0.21,7.4 0.22,-2.32 0.21,-3.22 0.21,-1.57 0.21,6.93 0.21,2.11 0.22,-5.96 0.21,-5.76 0.21,10.41 0.21,-1.73 0.21,3.64 0.22,-5.77 0.21,0.75 0.21,-6.27 0.21,3.68 0.21,1.79 0.22,3.43 0.21,-3.08 0.21,-1.29 0.21,1.36 0.21,-1.64 0.22,-3.83 0.21,2.67 0.21,7.17 0.21,-2.53 0.21,0.77 0.22,-2.72 0.21,-0.76 0.21,3 0.21,-0.8 0.21,-5.82 0.22,4.12 0.21,1.32 0.21,-6.63 0.21,9.39 0.21,-1.86 0.22,-2.1 0.21,4.17 0.21,-5 0.21,-2.04 0.21,7.36 0.22,-7.49 0.21,-6.99 0.21,11.45 0.21,-4.09 0.21,3.09 0.22,-1.42 0.21,0.96 0.21,-4.83 0.21,4.36 0.21,-0.91 0.22,3.35 0.21,-1.6 0.21,-0.89 0.21,-0.33 0.21,2.63 0.22,-0.42 0.21,-5.17 0.21,4.75 0.21,0.34 0.21,-2.37 0.22,5.33 0.21,-8.93 0.21,5.2 0.21,-0.99 0.21,1.36 0.22,1.29 0.21,1.6 0.21,-0.46 0.21,-0.6 0.21,-3.49 0.22,2.02 0.21,-0.67 0.21,-3.47 0.21,8.97 0.21,-6.01 0.22,2.12 0.21,2.42 0.21,2.44 0.21,-4.51 0.21,-2.32 0.22,-2.91 0.21,0.4 0.21,2.15 0.21,2.36 0.21,-4.02 0.22,1.23 0.21,4.94 0.21,-7.98 0.21,6.94 0.21,-8.11 0.22,4.49 0.21,1.16 0.21,1.7 0.21,-1.97 0.21,1.96 0.22,-3.49 0.21,-3.18 0.21,-2.89 0.21,6 0.21,1.62 0.22,-3.91 0.21,9.34 0.21,-14.57 0.21,6.25 0.21,1.3 0.22,-0.25 0.21,3.88 0.21,-1.21 0.21,-2.55 0.21,3.42 0.22,-2.94 0.21,0.67 0.21,-0.02 0.21,-4.04 0.21,2.74 0.22,1.05 0.21,-1.66 0.21,3.17 0.21,-6.62 0.21,3.31 0.22,2.86 0.21,-3.64 0.21,2.66 0.21,-2.13 0.21,1.34 0.22,3.09 0.21,-4.58 0.21,8.13 0.21,-2.66 0.21,-3.7 0.22,2.22 0.21,-4.37 0.21,1.13 0.21,3.46 0.21,0.91 0.22,-6.01 0.21,-1.04 0.21,2.82 0.21,1.81 0.21,-3.44 0.22,2.18 0.21,4.52 0.21,-1.13 0.21,-0.85 0.21,-1.74 0.22,-4.13 0.21,2.45 0.21,-0.25 0.21,3.68 0.21,4.81 0.22,-9.4 0.21,1.96 0.21,4.33 0.21,-3.66 0.21,0.73 0.22,-1.15 0.21,2.26 0.21,-5.05 0.21,4.29 0.21,0.66 0.22,-1.3 0.21,-3.21 0.21,4.91 0.21,-1.52 0.21,-3.28 0.22,0.75 0.21,3.51 0.21,-2.27 0.21,0.15 0.21,2.19 0.22,0.36 0.21,-0.97 0.21,1.19 0.21,-4.2 0.21,3.9 0.22,0.23 0.21,-4.34 0.21,3.38 0.21,-1.73 0.21,1.8 0.22,-3.83 0.21,0.73 0.21,-0.26 0.21,2.36 0.21,-0.39 0.22,5.66 0.21,-8.52 0.21,0.81 0.21,-0.99 0.21,0.37 0.22,4.7 0.21,-0.37 0.21,-4.15 0.21,-0.78 0.21,1.18 0.22,3.05 0.21,1.57 0.21,-6.21 0.21,1.14 0.21,-2.43 0.22,6.17 0.21,-1.08 0.21,-0.41 0.21,2.05 0.21,-2.32 0.22,-0.59 0.21,0.1 0.21,1.92 0.21,-0.32 0.21,-0.87 0.22,-1.92 0.21,2.1 0.21,4.08 0.21,-0.14 0.21,-5.32 0.22,-0.62 0.21,2.59 0.21,-2.73 0.21,3.3 0.21,2.61 0.22,0.19 0.21,-0.79 0.21,-2.12 0.21,-1.18 0.21,0.82 0.22,-2.69 0.21,1.39 0.21,0.79 0.21,2.23 0.21,-0.84 0.22,-0.33 0.21,-0.85 0.21,-2.33 0.21,-1.05 0.21,1.45 0.22,8 0.21,-7.73 0.21,0.43 0.21,0.3 0.21,0.26 0.22,4.07 0.21,-1.66 0.21,-5.06 0.21,5.08 0.21,-2.67 0.22,-2.52 0.21,5.16 0.21,-5.45 0.21,4.02 0.21,-2.39 0.22,-1.7 0.21,-0.9 0.21,6.85 0.21,-5.38 0.21,4.87 0.22,-2.08 0.21,0.81 0.21,-2.04 0.21,3.78 0.21,-6.61 0.22,5.04 0.21,-0.85 0.21,1.18 0.21,1.4 0.21,-3.57 0.22,1.59 0.21,-1.86 0.21,-1.72 0.21,3.37 0.21,1.74 0.22,-1.31 0.21,2.11 0.21,-3.02 0.21,2.92 0.21,-2.12 0.22,3.15 0.21,-4.22 0.21,-1.87 0.21,2.52 0.21,-0.33 0.22,4.1 0.21,-10.11 0.21,8.3 0.21,-4.04 0.21,1.35 0.22,0.29 0.21,0.5 0.21,-2.13 0.21,1.42 0.21,0.38 0.22,-2.1 0.21,2.68 0.21,1.16 0.21,-3.99 0.21,1.43 0.22,2.35 0.21,-2.45 0.21,2.24 0.21,-1.11 0.21,-1.14 0.22,-1.13 0.21,4.27 0.21,-2.56 0.21,0.46 0.21,1.34 0.22,1.78 0.21,-1.26 0.21,-2.42 0.21,-0.76 0.21,-0.01 0.22,0.81 0.21,1.72 0.21,-3.9 0.21,0.32 0.21,0.91 0.22,3.9 0.21,-4.19 0.21,-1.08 0.21,4.77 0.21,-2.18 0.22,2.82 0.21,0.2 0.21,-0.32 0.21,-2.38 0.21,-1.58 0.22,7.26 0.21,-4.95 0.21,-2.22 0.21,2.27 0.21,0.6 0.22,0.59 0.21,-1.79 0.21,-1.23 0.21,0.9 0.21,3.53 0.22,-1.03 0.21,-2.89 0.21,-3.41 0.21,1.01 0.21,0.29 0.22,3.59 0.21,-0.71 0.21,-1.24 0.21,3.88 0.21,-1.82 0.22,-0.74 0.21,0.1 0.21,0.36 0.21,2.63 0.21,-5.75 0.22,6.73 0.21,-4.17 0.21,2.08 0.21,-0.06 0.21,-2.11 0.22,-2.41 0.21,2.65 0.21,0.99 0.21,-1.45 0.21,-0.12 0.22,1.79 0.21,-0.3 0.21,0.33 0.21,-1.13 0.21,-2.59 0.22,0.66 0.21,-1.67 0.21,4.85 0.21,0.5 0.21,-0.25 0.22,-1.91 0.21,0.07 0.21,0.92 0.21,-0.41 0.21,1.9 0.22,-0.78 0.21,-2.88 0.21,2.97 0.21,-2.11 0.21,1.09 0.22,-1.61 0.21,0.61 0.21,0.35 0.21,1.55 0.21,-2.94 0.22,-0.52 0.21,-0.8 0.21,1.12 0.21,-0.22 0.21,1.41 0.22,-3.77 0.21,5.87 0.21,-0.28 0.21,-0.3 0.21,-2.31 0.22,0.6 0.21,-0.92 0.21,1.29 0.21,2.37 0.21,-2.88 0.22,0.99 0.21,-2.56 0.21,2.63 0.21,-1.24 0.21,2.62 0.22,-1.94 0.21,-1.5 0.21,6.86 0.21,-4.3 0.21,-2.53 0.22,1.4 0.21,-1.38 0.21,4.32 0.21,-1.37 0.21,-1.97 0.22,-0.01 0.21,-0.25 0.21,-0.85 0.21,4.91 0.21,-1.75 0.22,-0.35 0.21,-0.03 0.21,-2.38 0.21,3.31 0.21,-3.22 0.22,2.85 0.21,-3.4 0.21,1.07 0.21,0.7 0.21,0.72 0.22,-0.81 0.21,1.83 0.21,-1.59 0.21,1.79 0.21,2.01 0.21,-5.73 0.22,0.89 0.21,0.7 0.21,-1.85 0.21,2.8 0.21,-1.19 0.22,1.98 0.21,1.6 0.21,0.33 0.21,-3.04 0.21,1.51 0.22,-1.14 0.21,1.74 0.21,-4.41 0.21,1.06 0.21,1.43 0.22,4.53 0.21,-3.57 0.21,-0.14 0.21,0.87 0.21,-2.75 0.22,-1.32 0.21,1.42 0.21,0.1 0.21,2.13 0.21,-2.15 0.22,-1.01 0.21,0.02 0.21,0.52 0.21,0.11 0.21,-0.87 0.22,0.15 0.21,1.48 0.21,-0.32 0.21,0.21 0.21,-1.43 0.22,1.37 0.21,3.11 0.21,-1.08 0.21,-3.85 0.21,2.64 0.22,0.82 0.21,-2.37 0.21,-1.88 0.21,3.63 0.21,-0.57 0.22,-0.9 0.21,1.33 0.21,-0.45 0.21,1.38 0.21,-5.58 0.22,3.37 0.21,-0.94 0.21,-0.2 0.21,-0.49 0.21,4.25 0.22,-1.85 0.21,-2.8 0.21,1.95 0.21,-0.59 0.21,0.42 0.22,1.2 0.21,-1.12 0.21,-2.89 0.21,0.24 0.21,1.21 0.22,1.16 0.21,2.89 0.21,-2.09 0.21,0.79 0.21,-0.25 0.22,-1.42 0.21,-0.47 0.21,0.41 0.21,0.42 0.21,-2.72 0.22,4.73 0.21,0.88 0.21,-4.82 0.21,1.61 0.21,1.16 0.22,0.41 0.21,-4.28 0.21,4.34 0.21,2.35 0.21,-2 0.22,-1.24 0.21,-0.79 0.21,-1.61 0.21,3.01 0.21,-1.67 0.22,0.39 0.21,2.13 0.21,-0.92 0.21,-1.03 0.21,0.94 0.22,-1.88 0.21,0.93 0.21,1.28 0.21,-1.9 0.21,0.49 0.22,1.51 0.21,-1.2 0.21,2.48 0.21,-3.59 0.21,3.55 0.22,-2.69 0.21,-1.36 0.21,-0.12 0.21,3.54 0.21,-0.79 0.22,-0.14 0.21,-0.02 0.21,2.35 0.21,-2.73 0.21,1.26 0.22,-1.47 0.21,2.34 0.21,-1.56 0.21,0.41 0.21,-1.95 0.22,3.5 0.21,-1.57 0.21,-1.27 0.21,-0.58 0.21,0.91 0.22,2.31 0.21,-4.77 0.21,2.2 0.21,-2.64 0.21,3.29 0.22,-1.73 0.21,2.2 0.21,-1.31 0.21,4.25 0.21,-1.65 0.22,-5 0.21,2.15 0.21,0.31 0.21,2.52 0.21,-2.88 0.22,1.47 0.21,-0.73 0.21,-1.63 0.21,1.86 0.21,1.32 0.22,-1.77 0.21,0.91 0.21,-1.37 0.21,2.51 0.21,-4.16 0.22,2.52 0.21,-1.08 0.21,1.07 0.21,1.4 0.21,3.25 0.22,-5.42 0.21,0.96 0.21,-2.17 0.21,5.17 0.21,-1.74 0.22,-0.99 0.21,-2.53 0.21,0.85 0.21,4.6 0.21,-2.28 0.22,-0.37 0.21,-0.9 0.21,-0.44 0.21,-3.24 0.21,2.44 0.22,1.57 0.21,-2.22 0.21,2.76 0.21,-1.46 0.21,2.7 0.22,-1.28 0.21,-0.3 0.21,-1.39 0.21,-1.2 0.21,1.6 0.22,0.74 0.21,1 0.21,-1.92 0.21,2.14 0.21,0.49 0.22,-3.98 0.21,1.29 0.21,0.95 0.21,2.44 0.21,-6.04 0.22,5.96 0.21,-1.32 0.21,0.26 0.21,-0.8 0.21,2.1 0.22,-2.93 0.21,-1.26 0.21,3.08 0.21,-3.33 0.21,1.66 0.22,-0.28 0.21,3.75 0.21,-2.19 0.21,-1.01 0.21,-2.94 0.22,-0.22 0.21,5.83 0.21,-1.01 0.21,-0.32 0.21,-1.86 0.22,0.81 0.21,-1.91 0.21,0.95 0.21,1.99 0.21,1.42 0.22,-2.79 0.21,-2.91 0.21,2.59 0.21,2.01 0.21,-2.66 0.22,0.12 0.21,-0.6 0.21,1.08 0.21,0.67 0.21,0.92 0.22,-0.73 0.21,-2.69 0.21,-1.21 0.21,3.44 0.21,-0.65 0.22,-0.91 0.21,1.92 0.21,-2.62 0.21,0.1 0.21,1.99 0.22,1.23 0.21,-0.69 0.21,-0.63 0.21,-2.56 0.21,4.74 0.22,-3.16 0.21,2.63 0.21,-2.97 0.21,3.63 0.21,-3.37 0.22,0.87 0.21,-1.88 0.21,1.76 0.21,0.27 0.21,-3.07 0.22,3.6 0.21,-1.07 0.21,0.37 0.21,2.12 0.21,-2.63 0.22,0.92 0.21,-0.63 0.21,1.14 0.21,-1.27 0.21,-1.02 0.22,1.91 0.21,-0.18 0.21,-0.14 0.21,1.35 0.21,-0.91 0.22,-1.14 0.21,0.23 0.21,-0.52 0.21,2.96 0.21,0.18"
           style="fill:none;stroke:#ff0000;stroke-width:0.75;stroke-linecap:round;stroke-linejoin:round;stroke-miterlimit:10;stroke-dasharray:2.25, 3.75;stroke-dashoffset:0;stroke-opacity:1"
           id="path58032"
           inkscape:connector-curvature="0" /><path
           d="m 438.42,73.44 0,482.52"
           style="fill:none;stroke:#000000;stroke-width:0.75;stroke-linecap:round;stroke-linejoin:round;stroke-miterlimit:10;stroke-dasharray:0, 3;stroke-dashoffset:0;stroke-opacity:1"
           id="path58034"
           inkscape:connector-curvature="0" /></g></g></g></svg>