<?xml version="1.0" encoding="UTF-8" standalone="no"?>
<!-- Created with Inkscape (http://www.inkscape.org/) -->

<svg
   xmlns:dc="http://purl.org/dc/elements/1.1/"
   xmlns:cc="http://creativecommons.org/ns#"
   xmlns:rdf="http://www.w3.org/1999/02/22-rdf-syntax-ns#"
   xmlns:svg="http://www.w3.org/2000/svg"
   xmlns="http://www.w3.org/2000/svg"
   xmlns:sodipodi="http://sodipodi.sourceforge.net/DTD/sodipodi-0.dtd"
   xmlns:inkscape="http://www.inkscape.org/namespaces/inkscape"
   id="svg58801"
   version="1.1"
   inkscape:version="0.91+devel+osxmenu r12835"
   xml:space="preserve"
   width="490"
   height="801.25"
   viewBox="0 0 490 801.25"
   sodipodi:docname="Figure_S3_Harmonics.svg"><metadata
     id="metadata58807"><rdf:RDF><cc:Work
         rdf:about=""><dc:format>image/svg+xml</dc:format><dc:type
           rdf:resource="http://purl.org/dc/dcmitype/StillImage" /><dc:title></dc:title></cc:Work></rdf:RDF></metadata><defs
     id="defs58805"><clipPath
       clipPathUnits="userSpaceOnUse"
       id="clipPath58819"><path
         d="m 2.88,2.88 387.24,0 0,635.49 -387.24,0 0,-635.49 z"
         id="path58821"
         inkscape:connector-curvature="0" /></clipPath><clipPath
       clipPathUnits="userSpaceOnUse"
       id="clipPath58827"><path
         d="m 2.88,2.88 387.24,0 0,635.49 -387.24,0 0,-635.49 z"
         id="path58829"
         inkscape:connector-curvature="0" /></clipPath></defs><sodipodi:namedview
     pagecolor="#ffffff"
     bordercolor="#666666"
     borderopacity="1"
     objecttolerance="10"
     gridtolerance="10"
     guidetolerance="10"
     inkscape:pageopacity="0"
     inkscape:pageshadow="2"
     inkscape:window-width="816"
     inkscape:window-height="480"
     id="namedview58803"
     showgrid="false"
     inkscape:zoom="0.29453978"
     inkscape:cx="245"
     inkscape:cy="400.625"
     inkscape:window-x="0"
     inkscape:window-y="23"
     inkscape:window-maximized="0"
     inkscape:current-layer="g58809" /><g
     id="g58809"
     inkscape:groupmode="layer"
     inkscape:label="Figure_S3_Harmonics"
     transform="matrix(1.25,0,0,-1.25,0,801.25)"><g
       id="g58815"><g
         id="g58817"
         clip-path="url(#clipPath58819)" /></g><g
       id="g58823"><g
         id="g58825"
         clip-path="url(#clipPath58827)"><path
           d="m 59.51,469.19 -1.01,-0.85 -1.07,-0.82 -1.14,-0.77 -1.19,-0.74 -1.25,-0.69 -1.29,-0.64 -1.35,-0.6 -1.39,-0.54 -1.43,-0.5 -1.46,-0.45 -1.5,-0.39 -1.53,-0.34 -1.55,-0.28 -1.57,-0.23 -1.58,-0.17 -1.6,-0.11 -1.6,-0.06 -1.61,0 -1.6,0.06 -1.6,0.12 -1.58,0.17 -1.57,0.23 -1.56,0.29 -1.52,0.34 -1.5,0.39 -1.47,0.45 -1.43,0.5 -1.39,0.55 -1.35,0.6 -1.3,0.64 -1.25,0.69 -1.2,0.74 -1.13,0.78 -1.08,0.81 -1.01,0.86 -0.95,0.89 -0.87,0.92 -0.81,0.95 -0.73,0.98 -0.65,1 -0.58,1.03 -0.5,1.04 -0.42,1.06 -0.33,1.08 -0.26,1.08 -0.17,1.09 -0.08,1.1 -0.01,1.1 0.09,1.09 0.16,1.1 0.25,1.08 0.33,1.07 0.41,1.06 0.5,1.05 0.57,1.02 0.65,1 0.73,0.98 0.8,0.95 0.87,0.92 0.94,0.89 1.01,0.85 1.07,0.82 1.14,0.77 1.19,0.74 1.25,0.69 1.29,0.64 1.35,0.6 1.39,0.54 1.43,0.5 1.46,0.45 1.5,0.39 1.53,0.34 1.55,0.28 1.57,0.23 1.58,0.17 1.6,0.11 1.6,0.06 1.61,0 1.6,-0.06 1.6,-0.12 1.58,-0.17 1.57,-0.23 1.56,-0.29 1.52,-0.34 1.5,-0.39 1.47,-0.45 1.43,-0.5 1.39,-0.55 1.35,-0.6 1.3,-0.64 1.25,-0.69 1.2,-0.74 1.13,-0.78 1.08,-0.81 1.01,-0.86 0.95,-0.89 0.87,-0.92 0.81,-0.95 0.73,-0.98 0.65,-1 0.58,-1.03 0.5,-1.04 0.42,-1.06 0.33,-1.08 0.26,-1.08 0.17,-1.09 0.08,-1.1 0.01,-1.1 -0.09,-1.09 -0.16,-1.1 -0.25,-1.08 -0.33,-1.07 -0.41,-1.06 -0.5,-1.05 -0.57,-1.02 -0.65,-1 -0.73,-0.98 -0.8,-0.95 -0.87,-0.92 -0.94,-0.89 z"
           style="fill:#551a8b;fill-opacity:0.93300003;fill-rule:nonzero;stroke:#333333;stroke-width:0.75;stroke-linecap:round;stroke-linejoin:round;stroke-miterlimit:10;stroke-dasharray:none;stroke-opacity:1"
           id="path58831"
           inkscape:connector-curvature="0" /><path
           d="m 125.11,472.31 -0.85,-0.88 -0.92,-0.86 -0.97,-0.84 -1.03,-0.84 -1.09,-0.81 -1.14,-0.79 -1.19,-0.76 -1.25,-0.74 -1.3,-0.7 -1.34,-0.67 -1.38,-0.62 -1.43,-0.59 -1.46,-0.53 -1.5,-0.49 -1.52,-0.43 -1.56,-0.37 -1.58,-0.32 -1.6,-0.25 -1.61,-0.18 -1.62,-0.11 -1.63,-0.04 -1.63,0.03 -1.62,0.1 -1.62,0.18 -1.6,0.26 -1.58,0.33 -1.56,0.41 -1.52,0.49 -1.5,0.56 -1.45,0.64 -1.4,0.71 -1.35,0.78 -1.3,0.85 -1.24,0.92 -1.17,0.97 -1.1,1.04 -1.03,1.09 -0.94,1.14 -0.87,1.18 -0.78,1.22 -0.69,1.26 -0.6,1.29 -0.5,1.32 -0.41,1.33 -0.31,1.34 -0.22,1.36 -0.11,1.35 -0.01,1.35 0.09,1.33 0.2,1.33 0.29,1.3 0.39,1.27 0.48,1.24 0.58,1.2 0.68,1.16 0.76,1.12 0.86,1.07 0.93,1.01 1.02,0.96 1.09,0.89 1.16,0.84 1.24,0.76 1.29,0.71 1.35,0.63 1.41,0.57 1.45,0.5 1.5,0.43 1.53,0.36 1.56,0.29 1.59,0.22 1.61,0.16 1.63,0.09 1.64,0.03 1.64,-0.03 1.64,-0.09 1.64,-0.14 1.63,-0.2 1.61,-0.25 1.59,-0.3 1.57,-0.35 1.55,-0.39 1.51,-0.43 1.48,-0.46 1.44,-0.5 1.4,-0.54 1.35,-0.56 1.31,-0.59 1.25,-0.61 1.21,-0.63 1.15,-0.66 1.09,-0.67 1.03,-0.69 0.98,-0.71 0.92,-0.71 0.85,-0.74 0.79,-0.74 0.73,-0.75 0.66,-0.76 0.59,-0.78 0.53,-0.78 0.47,-0.79 0.4,-0.8 0.33,-0.81 0.26,-0.81 0.2,-0.83 0.12,-0.83 0.07,-0.84 -0.01,-0.85 -0.07,-0.85 -0.14,-0.86 -0.21,-0.87 -0.27,-0.88 -0.34,-0.88 -0.41,-0.88 -0.47,-0.89 -0.53,-0.88 -0.61,-0.89 -0.66,-0.89 -0.73,-0.89 -0.79,-0.87 z"
           style="fill:#542186;fill-opacity:0.93300003;fill-rule:nonzero;stroke:#333333;stroke-width:0.75;stroke-linecap:round;stroke-linejoin:round;stroke-miterlimit:10;stroke-dasharray:none;stroke-opacity:1"
           id="path58833"
           inkscape:connector-curvature="0" /><path
           d="m 186.11,473.82 -1.11,-1.16 -1.12,-1.18 -1.14,-1.18 -1.12,-1.17 -1.13,-1.13 -1.1,-1.1 -1.1,-1.05 -1.07,-0.98 -1.06,-0.91 -1.04,-0.83 -1.02,-0.73 -1.02,-0.63 -1,-0.53 -1.01,-0.42 -1,-0.31 -1.02,-0.19 -1.03,-0.08 -1.06,0.03 -1.09,0.14 -1.12,0.24 -1.15,0.33 -1.2,0.42 -1.25,0.49 -1.29,0.57 -1.34,0.63 -1.39,0.68 -1.42,0.72 -1.46,0.76 -1.49,0.78 -1.52,0.8 -1.53,0.81 -1.53,0.82 -1.52,0.81 -1.49,0.81 -1.47,0.81 -1.41,0.8 -1.35,0.79 -1.27,0.78 -1.18,0.78 -1.08,0.78 -0.97,0.78 -0.84,0.79 -0.7,0.8 -0.56,0.82 -0.41,0.83 -0.26,0.86 -0.1,0.89 0.06,0.93 0.21,0.95 0.36,1 0.51,1.03 0.65,1.06 0.78,1.1 0.89,1.13 1.01,1.15 1.11,1.17 1.19,1.18 1.26,1.19 1.32,1.18 1.37,1.16 1.39,1.13 1.42,1.1 1.42,1.04 1.43,0.99 1.41,0.91 1.39,0.83 1.37,0.74 1.34,0.64 1.3,0.53 1.27,0.42 1.23,0.31 1.2,0.18 1.16,0.07 1.14,-0.06 1.11,-0.17 1.09,-0.28 1.08,-0.39 1.07,-0.49 1.07,-0.58 1.07,-0.65 1.09,-0.73 1.09,-0.78 1.11,-0.83 1.13,-0.86 1.15,-0.88 1.18,-0.89 1.2,-0.89 1.21,-0.87 1.23,-0.85 1.24,-0.81 1.24,-0.78 1.24,-0.73 1.23,-0.68 1.2,-0.63 1.17,-0.58 1.13,-0.53 1.07,-0.49 1.02,-0.44 0.93,-0.4 0.85,-0.38 0.76,-0.35 0.65,-0.34 0.55,-0.34 0.42,-0.34 0.31,-0.36 0.18,-0.39 0.06,-0.42 -0.07,-0.46 -0.2,-0.52 -0.31,-0.57 -0.43,-0.63 -0.54,-0.7 -0.65,-0.77 -0.74,-0.84 -0.82,-0.9 -0.89,-0.96 -0.97,-1.02 -1.01,-1.07 -1.06,-1.11 -1.09,-1.15 z"
           style="fill:#532982;fill-opacity:0.93300003;fill-rule:nonzero;stroke:#333333;stroke-width:0.75;stroke-linecap:round;stroke-linejoin:round;stroke-miterlimit:10;stroke-dasharray:none;stroke-opacity:1"
           id="path58835"
           inkscape:connector-curvature="0" /><path
           d="m 248.68,473.73 -1.12,-1.25 -1.1,-1.24 -1.06,-1.24 -1.02,-1.22 -0.97,-1.17 -0.94,-1.12 -0.9,-1.06 -0.86,-0.97 -0.85,-0.88 -0.84,-0.79 -0.83,-0.68 -0.85,-0.57 -0.86,-0.46 -0.91,-0.34 -0.95,-0.23 -1,-0.11 -1.06,-0.01 -1.12,0.09 -1.2,0.18 -1.26,0.28 -1.34,0.35 -1.39,0.43 -1.45,0.49 -1.51,0.54 -1.54,0.59 -1.57,0.63 -1.6,0.66 -1.59,0.68 -1.6,0.71 -1.57,0.72 -1.54,0.73 -1.5,0.75 -1.45,0.75 -1.39,0.76 -1.32,0.77 -1.24,0.77 -1.15,0.79 -1.07,0.79 -0.97,0.81 -0.87,0.81 -0.77,0.84 -0.68,0.85 -0.56,0.87 -0.46,0.89 -0.35,0.92 -0.24,0.93 -0.13,0.96 -0.02,0.99 0.1,1.01 0.22,1.03 0.33,1.05 0.46,1.07 0.57,1.09 0.68,1.1 0.81,1.11 0.91,1.12 1.03,1.12 1.12,1.11 1.22,1.1 1.31,1.09 1.38,1.05 1.44,1.03 1.5,0.98 1.53,0.94 1.56,0.87 1.56,0.81 1.57,0.73 1.54,0.65 1.51,0.56 1.48,0.46 1.42,0.36 1.36,0.25 1.3,0.13 1.24,0.02 1.17,-0.09 1.11,-0.21 1.05,-0.32 1,-0.42 0.96,-0.53 0.92,-0.62 0.91,-0.7 0.9,-0.78 0.9,-0.84 0.92,-0.88 0.95,-0.93 0.99,-0.94 1.02,-0.95 1.08,-0.94 1.13,-0.92 1.18,-0.89 1.23,-0.85 1.26,-0.8 1.3,-0.75 1.31,-0.68 1.32,-0.62 1.3,-0.55 1.27,-0.49 1.22,-0.43 1.15,-0.38 1.05,-0.33 0.95,-0.3 0.82,-0.28 0.68,-0.27 0.53,-0.26 0.36,-0.29 0.2,-0.31 0.03,-0.35 -0.14,-0.4 -0.31,-0.47 -0.46,-0.53 -0.6,-0.61 -0.74,-0.7 -0.85,-0.77 -0.95,-0.86 -1.03,-0.94 -1.08,-1.02 -1.13,-1.08 -1.15,-1.14 -1.16,-1.19 -1.15,-1.22 z"
           style="fill:#52317d;fill-opacity:0.93300003;fill-rule:nonzero;stroke:#333333;stroke-width:0.75;stroke-linecap:round;stroke-linejoin:round;stroke-miterlimit:10;stroke-dasharray:none;stroke-opacity:1"
           id="path58837"
           inkscape:connector-curvature="0" /><path
           d="m 310.61,474.66 -0.78,-0.93 -0.66,-0.97 -0.57,-1.02 -0.51,-1.07 -0.47,-1.1 -0.47,-1.12 -0.49,-1.13 -0.56,-1.12 -0.64,-1.07 -0.74,-1.02 -0.87,-0.92 -0.99,-0.82 -1.11,-0.68 -1.23,-0.53 -1.32,-0.36 -1.4,-0.19 -1.45,-0.02 -1.48,0.15 -1.49,0.31 -1.46,0.45 -1.41,0.58 -1.36,0.67 -1.3,0.74 -1.23,0.79 -1.17,0.81 -1.11,0.8 -1.08,0.77 -1.05,0.73 -1.06,0.68 -1.07,0.62 -1.1,0.56 -1.16,0.5 -1.21,0.48 -1.26,0.44 -1.32,0.44 -1.36,0.46 -1.39,0.49 -1.38,0.54 -1.34,0.62 -1.28,0.69 -1.18,0.78 -1.05,0.87 -0.89,0.95 -0.7,1.04 -0.49,1.1 -0.27,1.16 -0.05,1.19 0.18,1.2 0.39,1.21 0.57,1.18 0.75,1.14 0.88,1.09 0.99,1.04 1.06,0.98 1.12,0.92 1.13,0.86 1.12,0.81 1.11,0.78 1.07,0.76 1.05,0.75 1.01,0.75 0.99,0.76 0.99,0.78 0.99,0.8 1.02,0.82 1.06,0.83 1.13,0.82 1.19,0.81 1.27,0.77 1.35,0.71 1.42,0.62 1.48,0.51 1.52,0.38 1.54,0.22 1.54,0.06 1.5,-0.11 1.44,-0.29 1.36,-0.47 1.26,-0.63 1.14,-0.78 1.02,-0.91 0.89,-1 0.78,-1.08 0.68,-1.11 0.6,-1.12 0.56,-1.1 0.54,-1.04 0.56,-0.97 0.62,-0.89 0.7,-0.77 0.8,-0.67 0.93,-0.57 1.07,-0.46 1.2,-0.37 1.32,-0.3 1.42,-0.25 1.49,-0.21 1.52,-0.2 1.52,-0.21 1.45,-0.23 1.34,-0.28 1.19,-0.33 1,-0.38 0.76,-0.45 0.51,-0.5 0.23,-0.57 -0.05,-0.61 -0.33,-0.66 -0.58,-0.69 -0.8,-0.71 -1,-0.73 -1.15,-0.74 -1.26,-0.74 -1.31,-0.75 -1.32,-0.75 -1.29,-0.77 -1.23,-0.78 -1.13,-0.81 -1.02,-0.83 -0.89,-0.88 z"
           style="fill:#513979;fill-opacity:0.93300003;fill-rule:nonzero;stroke:#333333;stroke-width:0.75;stroke-linecap:round;stroke-linejoin:round;stroke-miterlimit:10;stroke-dasharray:none;stroke-opacity:1"
           id="path58839"
           inkscape:connector-curvature="0" /><path
           d="m 374.77,475.63 -0.67,-0.81 -0.56,-0.92 -0.49,-1.05 -0.44,-1.17 -0.44,-1.28 -0.47,-1.34 -0.53,-1.37 -0.61,-1.37 -0.73,-1.3 -0.85,-1.19 -0.97,-1.05 -1.09,-0.86 -1.2,-0.65 -1.28,-0.43 -1.36,-0.19 -1.4,0.03 -1.42,0.23 -1.42,0.4 -1.39,0.53 -1.36,0.64 -1.31,0.7 -1.26,0.72 -1.21,0.71 -1.16,0.68 -1.14,0.64 -1.11,0.58 -1.11,0.52 -1.12,0.48 -1.14,0.45 -1.17,0.43 -1.21,0.44 -1.25,0.46 -1.3,0.51 -1.33,0.55 -1.35,0.61 -1.36,0.68 -1.35,0.73 -1.31,0.8 -1.26,0.83 -1.18,0.88 -1.08,0.9 -0.94,0.91 -0.8,0.93 -0.64,0.93 -0.46,0.93 -0.27,0.94 -0.08,0.94 0.12,0.96 0.3,0.97 0.47,1 0.64,1.02 0.78,1.05 0.9,1.06 1,1.09 1.08,1.08 1.13,1.08 1.16,1.07 1.17,1.02 1.16,0.99 1.14,0.93 1.12,0.87 1.1,0.81 1.07,0.75 1.05,0.69 1.05,0.65 1.07,0.61 1.09,0.58 1.13,0.55 1.18,0.54 1.25,0.53 1.31,0.5 1.38,0.46 1.43,0.41 1.48,0.33 1.5,0.23 1.5,0.11 1.48,-0.05 1.42,-0.22 1.34,-0.4 1.24,-0.6 1.13,-0.78 0.99,-0.96 0.86,-1.1 0.74,-1.22 0.64,-1.29 0.56,-1.32 0.51,-1.29 0.5,-1.22 0.53,-1.11 0.59,-0.96 0.7,-0.79 0.83,-0.61 0.98,-0.43 1.14,-0.27 1.28,-0.12 1.42,-0.03 1.53,0.03 1.58,0.05 1.6,0.02 1.55,-0.05 1.45,-0.15 1.29,-0.28 1.08,-0.42 0.83,-0.55 0.54,-0.68 0.23,-0.78 -0.09,-0.86 -0.38,-0.91 -0.67,-0.92 -0.91,-0.89 -1.1,-0.85 -1.25,-0.78 -1.34,-0.71 -1.38,-0.65 -1.35,-0.58 -1.29,-0.54 -1.19,-0.54 -1.07,-0.56 -0.93,-0.61 -0.79,-0.69 z"
           style="fill:#514075;fill-opacity:0.93300003;fill-rule:nonzero;stroke:#333333;stroke-width:0.75;stroke-linecap:round;stroke-linejoin:round;stroke-miterlimit:10;stroke-dasharray:none;stroke-opacity:1"
           id="path58841"
           inkscape:connector-curvature="0" /><path
           d="m 51.77,411.47 -0.57,-1 -0.44,-1.15 -0.37,-1.27 -0.33,-1.36 -0.35,-1.4 -0.42,-1.39 -0.52,-1.34 -0.65,-1.25 -0.8,-1.12 -0.95,-0.98 -1.09,-0.81 -1.2,-0.64 -1.29,-0.47 -1.35,-0.32 -1.38,-0.17 -1.38,-0.03 -1.35,0.09 -1.32,0.2 -1.27,0.31 -1.23,0.4 -1.19,0.49 -1.16,0.58 -1.15,0.64 -1.15,0.69 -1.16,0.72 -1.19,0.75 -1.2,0.73 -1.23,0.71 -1.25,0.66 -1.27,0.61 -1.28,0.56 -1.29,0.49 -1.28,0.45 -1.27,0.42 -1.25,0.42 -1.24,0.45 -1.22,0.5 -1.19,0.59 -1.16,0.68 -1.12,0.78 -1.05,0.9 -0.97,1 -0.86,1.07 -0.74,1.13 -0.57,1.16 -0.39,1.15 -0.19,1.13 0.04,1.07 0.25,1.02 0.48,0.95 0.68,0.9 0.86,0.86 1.01,0.84 1.11,0.85 1.19,0.87 1.22,0.91 1.22,0.97 1.18,1.01 1.14,1.05 1.07,1.07 1.02,1.07 0.97,1.03 0.94,0.97 0.94,0.89 0.96,0.77 1.01,0.67 1.08,0.55 1.17,0.45 1.25,0.36 1.35,0.3 1.43,0.27 1.49,0.24 1.52,0.24 1.54,0.23 1.52,0.21 1.48,0.16 1.41,0.09 1.32,-0.02 1.23,-0.17 1.11,-0.37 1,-0.58 0.9,-0.81 0.81,-1.03 0.72,-1.22 0.67,-1.38 0.63,-1.47 0.61,-1.5 0.61,-1.44 0.65,-1.33 0.7,-1.13 0.77,-0.9 0.86,-0.64 0.96,-0.38 1.08,-0.14 1.19,0.06 1.3,0.2 1.4,0.26 1.46,0.26 1.49,0.17 1.49,0.03 1.42,-0.15 1.32,-0.37 1.14,-0.57 0.92,-0.75 0.65,-0.91 0.35,-1 0.03,-1.04 -0.31,-1.03 -0.62,-0.96 -0.9,-0.85 -1.15,-0.72 -1.33,-0.6 -1.44,-0.49 -1.49,-0.41 -1.46,-0.37 -1.38,-0.38 -1.25,-0.43 -1.08,-0.55 -0.91,-0.68 -0.72,-0.84 z"
           style="fill:#504870;fill-opacity:0.93300003;fill-rule:nonzero;stroke:#333333;stroke-width:0.75;stroke-linecap:round;stroke-linejoin:round;stroke-miterlimit:10;stroke-dasharray:none;stroke-opacity:1"
           id="path58843"
           inkscape:connector-curvature="0" /><path
           d="m 116.42,411.69 -0.65,-1.15 -0.49,-1.28 -0.34,-1.38 -0.27,-1.4 -0.24,-1.39 -0.29,-1.33 -0.4,-1.22 -0.54,-1.1 -0.74,-0.98 -0.93,-0.85 -1.13,-0.73 -1.29,-0.62 -1.41,-0.52 -1.48,-0.41 -1.5,-0.31 -1.47,-0.18 -1.39,-0.05 -1.3,0.1 -1.21,0.26 -1.12,0.42 -1.06,0.56 -1.04,0.69 -1.04,0.78 -1.08,0.84 -1.15,0.85 -1.22,0.82 -1.3,0.75 -1.35,0.67 -1.38,0.57 -1.39,0.48 -1.37,0.4 -1.32,0.35 -1.27,0.35 -1.2,0.37 -1.15,0.44 -1.11,0.51 -1.09,0.62 -1.09,0.73 -1.09,0.82 -1.1,0.91 -1.09,0.98 -1.06,1.01 -0.98,1.04 -0.87,1.03 -0.69,1.03 -0.48,1 -0.23,0.99 0.05,0.97 0.32,0.97 0.58,0.96 0.81,0.97 0.99,0.98 1.11,0.98 1.19,0.99 1.2,1 1.18,0.99 1.13,0.98 1.06,0.97 1,0.96 0.96,0.94 0.93,0.92 0.93,0.89 0.95,0.87 1.01,0.83 1.07,0.79 1.13,0.73 1.21,0.67 1.27,0.59 1.33,0.51 1.35,0.43 1.39,0.34 1.4,0.27 1.41,0.19 1.4,0.13 1.41,0.08 1.38,0.02 1.37,-0.05 1.34,-0.12 1.29,-0.23 1.21,-0.35 1.14,-0.51 1.02,-0.69 0.92,-0.89 0.79,-1.08 0.68,-1.25 0.59,-1.4 0.52,-1.47 0.49,-1.49 0.52,-1.42 0.57,-1.26 0.69,-1.05 0.82,-0.78 0.97,-0.48 1.15,-0.19 1.3,0.07 1.42,0.27 1.53,0.38 1.56,0.39 1.56,0.32 1.5,0.16 1.39,-0.08 1.22,-0.34 1.03,-0.61 0.78,-0.85 0.54,-1.04 0.26,-1.15 -0.02,-1.18 -0.29,-1.13 -0.55,-1.01 -0.8,-0.84 -1.02,-0.65 -1.2,-0.49 -1.33,-0.34 -1.42,-0.26 -1.45,-0.25 -1.43,-0.3 -1.33,-0.42 -1.21,-0.58 -1.03,-0.78 -0.85,-0.97 z"
           style="fill:#4f506c;fill-opacity:0.93300003;fill-rule:nonzero;stroke:#333333;stroke-width:0.75;stroke-linecap:round;stroke-linejoin:round;stroke-miterlimit:10;stroke-dasharray:none;stroke-opacity:1"
           id="path58845"
           inkscape:connector-curvature="0" /><path
           d="m 181,411.85 -0.61,-1.25 -0.46,-1.39 -0.36,-1.46 -0.3,-1.45 -0.3,-1.38 -0.36,-1.27 -0.45,-1.13 -0.58,-1 -0.74,-0.87 -0.91,-0.77 -1.08,-0.7 -1.23,-0.63 -1.34,-0.58 -1.43,-0.51 -1.46,-0.42 -1.46,-0.28 -1.42,-0.11 -1.35,0.09 -1.27,0.29 -1.18,0.49 -1.1,0.67 -1.06,0.79 -1.03,0.87 -1.04,0.89 -1.09,0.84 -1.15,0.77 -1.23,0.66 -1.31,0.56 -1.37,0.46 -1.41,0.4 -1.41,0.37 -1.38,0.37 -1.32,0.42 -1.26,0.46 -1.17,0.55 -1.11,0.61 -1.06,0.68 -1.03,0.74 -1.02,0.79 -1.04,0.83 -1.04,0.86 -1.04,0.91 -0.99,0.94 -0.9,0.99 -0.75,1.02 -0.54,1.05 -0.29,1.08 0.01,1.08 0.31,1.06 0.6,1.04 0.86,1 1.04,0.95 1.18,0.92 1.23,0.89 1.23,0.88 1.18,0.89 1.09,0.92 1.01,0.95 0.94,0.99 0.89,1.02 0.88,1.02 0.9,1 0.97,0.95 1.04,0.88 1.12,0.79 1.2,0.68 1.26,0.57 1.31,0.48 1.33,0.41 1.33,0.35 1.34,0.31 1.33,0.28 1.34,0.26 1.35,0.23 1.37,0.18 1.39,0.12 1.39,0.02 1.39,-0.11 1.34,-0.26 1.28,-0.43 1.17,-0.62 1.05,-0.79 0.9,-0.97 0.75,-1.13 0.62,-1.25 0.52,-1.34 0.46,-1.38 0.46,-1.38 0.5,-1.3 0.6,-1.19 0.73,-1.02 0.87,-0.79 1.04,-0.55 1.2,-0.28 1.32,-0.04 1.42,0.17 1.49,0.31 1.51,0.38 1.5,0.36 1.43,0.23 1.34,0.03 1.2,-0.23 1.03,-0.52 0.82,-0.81 0.59,-1.03 0.32,-1.2 0.05,-1.27 -0.26,-1.23 -0.54,-1.11 -0.82,-0.91 -1.06,-0.69 -1.25,-0.46 -1.4,-0.28 -1.47,-0.16 -1.47,-0.14 -1.42,-0.2 -1.3,-0.36 -1.15,-0.56 -0.97,-0.81 -0.78,-1.05 z"
           style="fill:#4e5867;fill-opacity:0.93300003;fill-rule:nonzero;stroke:#333333;stroke-width:0.75;stroke-linecap:round;stroke-linejoin:round;stroke-miterlimit:10;stroke-dasharray:none;stroke-opacity:1"
           id="path58847"
           inkscape:connector-curvature="0" /><path
           d="m 245.52,411.51 -0.62,-1.17 -0.45,-1.3 -0.34,-1.37 -0.28,-1.39 -0.27,-1.36 -0.33,-1.3 -0.44,-1.2 -0.59,-1.09 -0.76,-0.96 -0.94,-0.84 -1.11,-0.71 -1.24,-0.61 -1.36,-0.5 -1.42,-0.42 -1.44,-0.32 -1.44,-0.22 -1.39,-0.09 -1.33,0.05 -1.25,0.22 -1.19,0.4 -1.12,0.58 -1.08,0.73 -1.06,0.85 -1.06,0.91 -1.1,0.92 -1.15,0.86 -1.21,0.75 -1.28,0.62 -1.34,0.48 -1.39,0.37 -1.4,0.3 -1.38,0.28 -1.35,0.32 -1.28,0.41 -1.2,0.52 -1.13,0.65 -1.07,0.75 -1.02,0.83 -1.01,0.88 -1.01,0.89 -1.01,0.89 -1.01,0.87 -0.99,0.87 -0.9,0.89 -0.77,0.93 -0.57,0.99 -0.31,1.06 -0.02,1.11 0.31,1.14 0.6,1.13 0.87,1.09 1.08,1.02 1.2,0.93 1.26,0.86 1.23,0.81 1.17,0.79 1.08,0.83 0.98,0.89 0.91,0.97 0.86,1.05 0.87,1.09 0.92,1.1 0.98,1.04 1.07,0.94 1.15,0.8 1.22,0.65 1.27,0.5 1.3,0.39 1.31,0.32 1.31,0.28 1.3,0.29 1.32,0.32 1.33,0.33 1.35,0.32 1.39,0.28 1.42,0.18 1.42,0.03 1.41,-0.14 1.35,-0.33 1.27,-0.53 1.16,-0.7 1.01,-0.86 0.87,-0.99 0.73,-1.09 0.61,-1.18 0.53,-1.24 0.48,-1.3 0.49,-1.31 0.53,-1.29 0.62,-1.22 0.73,-1.08 0.87,-0.89 1.02,-0.64 1.17,-0.34 1.29,-0.06 1.4,0.2 1.48,0.39 1.52,0.47 1.51,0.45 1.46,0.29 1.37,0.05 1.22,-0.27 1.04,-0.59 0.82,-0.89 0.57,-1.13 0.29,-1.26 0.02,-1.29 -0.28,-1.2 -0.55,-1.03 -0.81,-0.82 -1.04,-0.6 -1.23,-0.4 -1.37,-0.26 -1.44,-0.19 -1.47,-0.21 -1.42,-0.3 -1.32,-0.44 -1.18,-0.63 -1,-0.83 -0.8,-1.02 z"
           style="fill:#4d5f63;fill-opacity:0.93300003;fill-rule:nonzero;stroke:#333333;stroke-width:0.75;stroke-linecap:round;stroke-linejoin:round;stroke-miterlimit:10;stroke-dasharray:none;stroke-opacity:1"
           id="path58849"
           inkscape:connector-curvature="0" /><path
           d="m 310,411.47 -0.72,-1.1 -0.54,-1.21 -0.37,-1.3 -0.26,-1.36 -0.19,-1.38 -0.23,-1.35 -0.34,-1.28 -0.52,-1.15 -0.75,-0.99 -0.99,-0.83 -1.19,-0.66 -1.35,-0.53 -1.42,-0.43 -1.45,-0.36 -1.41,-0.3 -1.35,-0.25 -1.27,-0.15 -1.23,-0.03 -1.19,0.15 -1.18,0.36 -1.17,0.58 -1.17,0.78 -1.16,0.92 -1.13,0.99 -1.12,0.96 -1.11,0.87 -1.13,0.72 -1.16,0.55 -1.24,0.4 -1.33,0.3 -1.39,0.26 -1.44,0.29 -1.44,0.37 -1.37,0.48 -1.28,0.6 -1.14,0.69 -1.03,0.75 -0.93,0.8 -0.89,0.8 -0.91,0.81 -0.96,0.82 -1.02,0.84 -1.04,0.88 -1,0.94 -0.87,1 -0.64,1.06 -0.33,1.1 0.03,1.1 0.39,1.1 0.71,1.05 0.95,1.01 1.12,0.95 1.18,0.9 1.18,0.87 1.12,0.87 1.07,0.87 1,0.89 0.96,0.93 0.95,0.96 0.95,1 0.97,1.02 1,1.01 1.01,0.98 1.05,0.91 1.07,0.82 1.11,0.71 1.16,0.58 1.23,0.45 1.3,0.35 1.35,0.29 1.39,0.24 1.41,0.24 1.4,0.25 1.39,0.27 1.35,0.25 1.33,0.21 1.31,0.1 1.3,-0.07 1.29,-0.26 1.26,-0.48 1.21,-0.71 1.1,-0.9 0.97,-1.06 0.81,-1.16 0.63,-1.23 0.49,-1.25 0.4,-1.25 0.38,-1.24 0.43,-1.2 0.56,-1.15 0.74,-1.05 0.93,-0.89 1.11,-0.68 1.26,-0.43 1.36,-0.13 1.42,0.15 1.43,0.38 1.43,0.51 1.39,0.5 1.36,0.37 1.31,0.11 1.23,-0.23 1.1,-0.6 0.91,-0.95 0.67,-1.2 0.37,-1.32 0.03,-1.32 -0.32,-1.2 -0.63,-0.99 -0.92,-0.75 -1.12,-0.52 -1.27,-0.33 -1.34,-0.24 -1.37,-0.21 -1.35,-0.26 -1.32,-0.37 -1.24,-0.52 -1.16,-0.67 -1.04,-0.82 -0.89,-0.97 z"
           style="fill:#4d675f;fill-opacity:0.93300003;fill-rule:nonzero;stroke:#333333;stroke-width:0.75;stroke-linecap:round;stroke-linejoin:round;stroke-miterlimit:10;stroke-dasharray:none;stroke-opacity:1"
           id="path58851"
           inkscape:connector-curvature="0" /><path
           d="m 374.4,411.46 -0.67,-1.05 -0.47,-1.15 -0.3,-1.26 -0.21,-1.34 -0.19,-1.39 -0.27,-1.4 -0.42,-1.33 -0.59,-1.2 -0.8,-1.01 -0.98,-0.8 -1.15,-0.62 -1.27,-0.47 -1.35,-0.38 -1.4,-0.34 -1.41,-0.32 -1.39,-0.29 -1.35,-0.22 -1.29,-0.07 -1.24,0.13 -1.17,0.38 -1.13,0.63 -1.09,0.83 -1.08,0.97 -1.1,1 -1.11,0.94 -1.16,0.82 -1.19,0.66 -1.24,0.5 -1.28,0.39 -1.32,0.31 -1.35,0.31 -1.37,0.35 -1.36,0.42 -1.33,0.5 -1.27,0.57 -1.19,0.64 -1.09,0.7 -1.01,0.75 -0.94,0.78 -0.91,0.83 -0.91,0.86 -0.94,0.9 -0.97,0.93 -0.95,0.95 -0.87,0.98 -0.68,1.01 -0.4,1.04 -0.05,1.06 0.35,1.07 0.7,1.08 1,1.05 1.19,1.01 1.25,0.94 1.22,0.89 1.13,0.84 1.01,0.83 0.93,0.83 0.89,0.88 0.9,0.95 0.95,1.01 1.02,1.06 1.06,1.07 1.09,1.03 1.09,0.93 1.07,0.8 1.06,0.65 1.09,0.52 1.15,0.41 1.25,0.34 1.35,0.3 1.44,0.29 1.48,0.3 1.47,0.3 1.43,0.28 1.35,0.23 1.28,0.16 1.24,0.04 1.22,-0.11 1.25,-0.28 1.26,-0.46 1.24,-0.66 1.18,-0.84 1.04,-1.01 0.85,-1.15 0.64,-1.24 0.44,-1.3 0.33,-1.3 0.3,-1.29 0.39,-1.22 0.56,-1.12 0.78,-1 1,-0.84 1.18,-0.63 1.31,-0.41 1.36,-0.15 1.37,0.11 1.36,0.31 1.34,0.46 1.35,0.49 1.36,0.39 1.35,0.16 1.3,-0.17 1.17,-0.56 0.96,-0.93 0.67,-1.21 0.32,-1.37 -0.05,-1.38 -0.38,-1.25 -0.69,-1 -0.91,-0.73 -1.07,-0.47 -1.19,-0.28 -1.27,-0.18 -1.32,-0.2 -1.36,-0.28 -1.35,-0.42 -1.32,-0.57 -1.23,-0.72 -1.08,-0.83 -0.89,-0.95 z"
           style="fill:#4c6f5a;fill-opacity:0.93300003;fill-rule:nonzero;stroke:#333333;stroke-width:0.75;stroke-linecap:round;stroke-linejoin:round;stroke-miterlimit:10;stroke-dasharray:none;stroke-opacity:1"
           id="path58853"
           inkscape:connector-curvature="0" /><path
           d="m 51.57,346.79 -0.69,-0.94 -0.44,-1.03 -0.24,-1.17 -0.13,-1.33 -0.15,-1.46 -0.27,-1.51 -0.45,-1.44 -0.67,-1.25 -0.85,-0.98 -1.02,-0.71 -1.12,-0.49 -1.21,-0.38 -1.28,-0.35 -1.34,-0.4 -1.39,-0.43 -1.42,-0.4 -1.41,-0.29 -1.37,-0.06 -1.27,0.21 -1.17,0.5 -1.07,0.73 -1.02,0.87 -1.01,0.93 -1.06,0.9 -1.14,0.82 -1.22,0.73 -1.26,0.64 -1.29,0.57 -1.28,0.49 -1.28,0.43 -1.27,0.37 -1.29,0.33 -1.33,0.33 -1.33,0.38 -1.33,0.47 -1.26,0.61 -1.15,0.74 -1.02,0.85 -0.91,0.91 -0.83,0.9 -0.84,0.86 -0.9,0.82 -0.96,0.8 -1,0.85 -0.94,0.93 -0.74,1.04 -0.43,1.13 -0.03,1.17 0.41,1.17 0.77,1.08 1.06,0.99 1.19,0.9 1.21,0.83 1.15,0.82 1.05,0.85 0.97,0.9 0.94,0.95 0.94,0.98 0.97,0.98 1.01,0.97 1.03,0.96 1.04,0.95 1.02,0.94 1.01,0.92 1.02,0.86 1.06,0.78 1.13,0.62 1.22,0.47 1.31,0.31 1.38,0.2 1.41,0.17 1.42,0.2 1.4,0.28 1.37,0.33 1.33,0.35 1.31,0.27 1.3,0.11 1.29,-0.11 1.28,-0.36 1.26,-0.58 1.19,-0.76 1.1,-0.89 0.98,-0.97 0.82,-1.04 0.66,-1.12 0.5,-1.2 0.4,-1.3 0.35,-1.34 0.4,-1.33 0.51,-1.24 0.71,-1.05 0.93,-0.82 1.15,-0.54 1.31,-0.28 1.41,-0.06 1.44,0.14 1.41,0.27 1.36,0.35 1.32,0.37 1.29,0.31 1.27,0.16 1.25,-0.1 1.17,-0.44 1,-0.82 0.74,-1.16 0.39,-1.4 -0.02,-1.47 -0.4,-1.36 -0.74,-1.09 -0.99,-0.75 -1.12,-0.41 -1.2,-0.16 -1.23,-0.07 -1.25,-0.13 -1.28,-0.29 -1.31,-0.5 -1.32,-0.69 -1.28,-0.82 -1.15,-0.87 -0.95,-0.91 z"
           style="fill:#4b7756;fill-opacity:0.93300003;fill-rule:nonzero;stroke:#333333;stroke-width:0.75;stroke-linecap:round;stroke-linejoin:round;stroke-miterlimit:10;stroke-dasharray:none;stroke-opacity:1"
           id="path58855"
           inkscape:connector-curvature="0" /><path
           d="m 116.21,346.81 -0.7,-0.98 -0.48,-1.09 -0.28,-1.23 -0.16,-1.36 -0.15,-1.44 -0.23,-1.45 -0.42,-1.37 -0.63,-1.21 -0.85,-0.99 -1.03,-0.76 -1.17,-0.56 -1.25,-0.43 -1.29,-0.36 -1.32,-0.35 -1.35,-0.36 -1.38,-0.35 -1.39,-0.27 -1.37,-0.09 -1.3,0.15 -1.21,0.43 -1.11,0.7 -1.02,0.89 -0.99,0.98 -1.02,0.96 -1.1,0.87 -1.2,0.73 -1.28,0.6 -1.33,0.5 -1.32,0.44 -1.3,0.42 -1.26,0.4 -1.26,0.39 -1.28,0.39 -1.31,0.4 -1.32,0.46 -1.29,0.55 -1.2,0.67 -1.05,0.82 -0.91,0.91 -0.82,0.95 -0.8,0.92 -0.85,0.87 -0.95,0.82 -1.01,0.8 -0.98,0.86 -0.78,0.98 -0.46,1.11 -0.02,1.21 0.44,1.22 0.82,1.15 1.08,1.02 1.2,0.88 1.18,0.78 1.11,0.75 1.01,0.81 0.96,0.9 0.96,1 0.97,1.04 1.02,1.04 1.03,0.98 1.02,0.92 1,0.89 0.98,0.87 0.98,0.9 1.02,0.89 1.09,0.82 1.17,0.7 1.26,0.5 1.31,0.3 1.36,0.16 1.37,0.1 1.38,0.15 1.38,0.27 1.38,0.38 1.37,0.41 1.36,0.33 1.32,0.13 1.29,-0.14 1.25,-0.42 1.21,-0.65 1.16,-0.79 1.1,-0.87 1,-0.92 0.86,-0.97 0.7,-1.07 0.51,-1.21 0.38,-1.34 0.32,-1.41 0.35,-1.38 0.49,-1.25 0.72,-1.02 0.96,-0.75 1.19,-0.49 1.34,-0.25 1.42,-0.07 1.41,0.07 1.36,0.2 1.33,0.31 1.31,0.38 1.31,0.36 1.31,0.23 1.29,-0.05 1.19,-0.43 0.99,-0.86 0.69,-1.22 0.35,-1.46 -0.04,-1.49 -0.4,-1.34 -0.71,-1.03 -0.94,-0.68 -1.09,-0.37 -1.2,-0.18 -1.25,-0.12 -1.29,-0.2 -1.32,-0.34 -1.32,-0.5 -1.31,-0.65 -1.24,-0.74 -1.11,-0.82 -0.92,-0.89 z"
           style="fill:#4a7f51;fill-opacity:0.93300003;fill-rule:nonzero;stroke:#333333;stroke-width:0.75;stroke-linecap:round;stroke-linejoin:round;stroke-miterlimit:10;stroke-dasharray:none;stroke-opacity:1"
           id="path58857"
           inkscape:connector-curvature="0" /><path
           d="m 180.71,346.89 -0.7,-0.99 -0.43,-1.13 -0.23,-1.27 -0.14,-1.38 -0.15,-1.42 -0.27,-1.42 -0.46,-1.32 -0.66,-1.19 -0.85,-1 -0.99,-0.8 -1.12,-0.6 -1.22,-0.45 -1.29,-0.35 -1.36,-0.31 -1.4,-0.32 -1.41,-0.33 -1.38,-0.28 -1.33,-0.13 -1.26,0.11 -1.18,0.41 -1.11,0.71 -1.05,0.93 -1.04,1.02 -1.05,0.99 -1.09,0.85 -1.17,0.69 -1.23,0.55 -1.3,0.48 -1.33,0.45 -1.33,0.46 -1.31,0.45 -1.28,0.41 -1.28,0.37 -1.27,0.37 -1.27,0.41 -1.26,0.53 -1.2,0.69 -1.09,0.85 -0.96,0.95 -0.84,0.97 -0.8,0.91 -0.82,0.83 -0.9,0.77 -0.98,0.79 -0.97,0.87 -0.83,1.02 -0.5,1.15 -0.05,1.23 0.44,1.2 0.86,1.12 1.13,0.97 1.22,0.86 1.18,0.79 1.07,0.79 0.97,0.85 0.93,0.92 0.95,0.98 1.02,1.01 1.05,0.99 1.07,0.97 1.02,0.93 0.96,0.92 0.93,0.92 0.95,0.91 1.02,0.88 1.12,0.79 1.22,0.65 1.29,0.48 1.31,0.31 1.32,0.2 1.33,0.15 1.34,0.17 1.39,0.25 1.41,0.34 1.42,0.36 1.38,0.31 1.32,0.15 1.25,-0.1 1.2,-0.38 1.18,-0.62 1.16,-0.81 1.14,-0.91 1.04,-0.96 0.9,-0.99 0.69,-1.06 0.48,-1.17 0.33,-1.29 0.28,-1.39 0.36,-1.4 0.53,-1.28 0.76,-1.07 1,-0.77 1.18,-0.47 1.31,-0.21 1.36,-0.03 1.38,0.1 1.37,0.18 1.36,0.27 1.35,0.34 1.34,0.34 1.31,0.24 1.25,-0.01 1.14,-0.39 0.96,-0.83 0.7,-1.24 0.38,-1.5 0.01,-1.53 -0.37,-1.36 -0.71,-1.01 -0.98,-0.64 -1.14,-0.33 -1.22,-0.16 -1.25,-0.14 -1.25,-0.23 -1.27,-0.38 -1.3,-0.53 -1.3,-0.63 -1.28,-0.7 -1.15,-0.78 -0.96,-0.87 z"
           style="fill:#49864d;fill-opacity:0.93300003;fill-rule:nonzero;stroke:#333333;stroke-width:0.75;stroke-linecap:round;stroke-linejoin:round;stroke-miterlimit:10;stroke-dasharray:none;stroke-opacity:1"
           id="path58859"
           inkscape:connector-curvature="0" /><path
           d="m 245.19,347.01 -0.7,-1.05 -0.38,-1.19 -0.16,-1.28 -0.09,-1.34 -0.16,-1.36 -0.33,-1.36 -0.53,-1.34 -0.7,-1.24 -0.82,-1.07 -0.93,-0.83 -1.06,-0.59 -1.19,-0.38 -1.34,-0.29 -1.43,-0.29 -1.46,-0.35 -1.41,-0.4 -1.34,-0.33 -1.26,-0.14 -1.21,0.15 -1.18,0.48 -1.17,0.76 -1.13,0.92 -1.07,0.97 -1.03,0.92 -1.03,0.82 -1.1,0.71 -1.21,0.61 -1.34,0.54 -1.4,0.48 -1.39,0.42 -1.31,0.39 -1.24,0.35 -1.2,0.37 -1.23,0.41 -1.28,0.47 -1.32,0.58 -1.27,0.69 -1.13,0.79 -0.93,0.89 -0.78,0.94 -0.73,0.93 -0.8,0.89 -0.94,0.83 -1.05,0.81 -1.04,0.84 -0.83,0.96 -0.45,1.09 0.03,1.22 0.48,1.25 0.85,1.18 1.07,1.03 1.15,0.85 1.15,0.74 1.1,0.73 1.03,0.81 1,0.94 0.97,1.04 0.98,1.07 0.99,1.02 1,0.93 1.02,0.87 1.01,0.87 1.01,0.91 0.99,0.96 1.01,0.94 1.07,0.83 1.15,0.65 1.25,0.43 1.34,0.25 1.39,0.16 1.39,0.16 1.37,0.24 1.34,0.31 1.35,0.36 1.36,0.34 1.38,0.24 1.37,0.09 1.32,-0.11 1.25,-0.33 1.17,-0.56 1.1,-0.77 1.06,-0.91 1.02,-1.01 0.92,-1.06 0.76,-1.09 0.55,-1.15 0.35,-1.24 0.24,-1.32 0.29,-1.38 0.47,-1.32 0.76,-1.13 1.04,-0.83 1.26,-0.48 1.36,-0.17 1.35,0.04 1.32,0.14 1.3,0.19 1.33,0.21 1.37,0.27 1.41,0.31 1.38,0.25 1.28,0.06 1.1,-0.33 0.88,-0.81 0.65,-1.27 0.37,-1.57 0.06,-1.59 -0.3,-1.36 -0.66,-0.97 -0.99,-0.58 -1.2,-0.28 -1.3,-0.17 -1.28,-0.19 -1.23,-0.3 -1.2,-0.41 -1.23,-0.51 -1.29,-0.57 -1.31,-0.64 -1.23,-0.76 -1.02,-0.9 z"
           style="fill:#498e49;fill-opacity:0.93300003;fill-rule:nonzero;stroke:#333333;stroke-width:0.75;stroke-linecap:round;stroke-linejoin:round;stroke-miterlimit:10;stroke-dasharray:none;stroke-opacity:1"
           id="path58861"
           inkscape:connector-curvature="0" /><path
           d="m 309.72,347.09 -0.67,-1.04 -0.38,-1.21 -0.19,-1.34 -0.12,-1.37 -0.19,-1.35 -0.32,-1.32 -0.49,-1.28 -0.66,-1.22 -0.81,-1.1 -0.96,-0.88 -1.09,-0.63 -1.22,-0.38 -1.33,-0.24 -1.39,-0.24 -1.42,-0.33 -1.4,-0.42 -1.36,-0.38 -1.3,-0.19 -1.23,0.15 -1.18,0.52 -1.13,0.81 -1.09,0.95 -1.06,0.95 -1.05,0.86 -1.06,0.78 -1.13,0.7 -1.21,0.65 -1.3,0.6 -1.36,0.5 -1.37,0.41 -1.34,0.33 -1.27,0.31 -1.23,0.36 -1.22,0.44 -1.26,0.53 -1.27,0.61 -1.25,0.67 -1.15,0.74 -0.97,0.84 -0.81,0.93 -0.73,0.96 -0.76,0.95 -0.9,0.86 -1.04,0.79 -1.05,0.8 -0.86,0.9 -0.49,1.09 0.02,1.24 0.52,1.31 0.89,1.21 1.09,1.02 1.13,0.8 1.11,0.68 1.06,0.72 1.03,0.84 1.02,1 1.02,1.07 0.99,1.06 0.98,0.97 0.96,0.88 0.98,0.85 1.01,0.9 1.03,0.96 1.04,1 1.03,0.93 1.05,0.79 1.11,0.59 1.21,0.41 1.33,0.28 1.42,0.21 1.43,0.21 1.39,0.23 1.34,0.27 1.3,0.3 1.32,0.31 1.37,0.27 1.39,0.15 1.37,-0.07 1.27,-0.33 1.16,-0.6 1.07,-0.82 1.02,-0.94 1,-0.98 0.94,-1.01 0.8,-1.05 0.58,-1.14 0.34,-1.27 0.21,-1.38 0.25,-1.41 0.45,-1.3 0.78,-1.07 1.09,-0.78 1.29,-0.47 1.34,-0.21 1.32,-0.02 1.28,0.11 1.28,0.2 1.35,0.27 1.41,0.32 1.44,0.31 1.38,0.22 1.24,0 1.06,-0.36 0.86,-0.8 0.66,-1.22 0.41,-1.51 0.1,-1.58 -0.3,-1.39 -0.69,-1.03 -1.02,-0.61 -1.23,-0.27 -1.27,-0.11 -1.25,-0.14 -1.19,-0.29 -1.2,-0.45 -1.25,-0.56 -1.33,-0.6 -1.33,-0.64 -1.22,-0.71 -0.97,-0.84 z"
           style="fill:#489644;fill-opacity:0.93300003;fill-rule:nonzero;stroke:#333333;stroke-width:0.75;stroke-linecap:round;stroke-linejoin:round;stroke-miterlimit:10;stroke-dasharray:none;stroke-opacity:1"
           id="path58863"
           inkscape:connector-curvature="0" /><path
           d="m 374.25,347.12 -0.63,-0.99 -0.3,-1.21 -0.11,-1.37 -0.13,-1.42 -0.26,-1.38 -0.41,-1.29 -0.51,-1.23 -0.61,-1.18 -0.72,-1.11 -0.91,-0.93 -1.12,-0.67 -1.31,-0.39 -1.39,-0.2 -1.39,-0.19 -1.34,-0.31 -1.32,-0.44 -1.34,-0.43 -1.35,-0.22 -1.32,0.16 -1.23,0.56 -1.1,0.85 -1.01,0.96 -0.99,0.91 -1.05,0.82 -1.14,0.75 -1.21,0.72 -1.23,0.71 -1.24,0.63 -1.28,0.49 -1.32,0.36 -1.37,0.29 -1.36,0.3 -1.29,0.4 -1.22,0.49 -1.18,0.55 -1.2,0.59 -1.22,0.62 -1.2,0.71 -1.06,0.84 -0.86,0.97 -0.7,1.02 -0.68,0.95 -0.83,0.82 -1.04,0.75 -1.12,0.77 -0.95,0.92 -0.51,1.14 0.08,1.28 0.6,1.3 0.94,1.17 1.06,0.97 1.05,0.79 1.04,0.72 1.06,0.76 1.1,0.87 1.11,0.97 1.04,1.03 0.94,1.02 0.89,0.98 0.91,0.93 1.01,0.89 1.09,0.9 1.1,0.93 1.04,0.95 0.96,0.91 0.97,0.81 1.08,0.64 1.27,0.45 1.42,0.27 1.46,0.17 1.4,0.16 1.31,0.22 1.26,0.31 1.31,0.35 1.39,0.34 1.45,0.24 1.42,0.09 1.31,-0.1 1.19,-0.32 1.11,-0.56 1.1,-0.77 1.1,-0.93 1.07,-1.02 0.94,-1.06 0.73,-1.07 0.49,-1.12 0.32,-1.22 0.27,-1.34 0.33,-1.42 0.5,-1.34 0.75,-1.12 1,-0.79 1.22,-0.43 1.36,-0.16 1.39,0 1.36,0.09 1.3,0.15 1.29,0.23 1.33,0.33 1.39,0.36 1.41,0.26 1.32,0.01 1.13,-0.4 0.86,-0.85 0.59,-1.24 0.33,-1.49 0.07,-1.52 -0.24,-1.36 -0.61,-1.04 -0.97,-0.65 -1.26,-0.32 -1.36,-0.12 -1.31,-0.11 -1.19,-0.23 -1.12,-0.43 -1.18,-0.58 -1.3,-0.65 -1.39,-0.68 -1.3,-0.7 -1.03,-0.8 z"
           style="fill:#479e40;fill-opacity:0.93300003;fill-rule:nonzero;stroke:#333333;stroke-width:0.75;stroke-linecap:round;stroke-linejoin:round;stroke-miterlimit:10;stroke-dasharray:none;stroke-opacity:1"
           id="path58865"
           inkscape:connector-curvature="0" /><path
           d="m 51.53,282.6 -0.68,-1.04 -0.27,-1.24 -0.05,-1.35 -0.08,-1.37 -0.27,-1.34 -0.47,-1.31 -0.57,-1.28 -0.61,-1.22 -0.66,-1.1 -0.85,-0.89 -1.11,-0.62 -1.36,-0.39 -1.46,-0.25 -1.41,-0.23 -1.3,-0.32 -1.25,-0.4 -1.31,-0.39 -1.38,-0.2 -1.4,0.12 -1.26,0.52 -1.08,0.83 -0.94,0.98 -0.94,0.96 -1.06,0.85 -1.21,0.73 -1.26,0.68 -1.23,0.67 -1.19,0.64 -1.21,0.54 -1.32,0.4 -1.42,0.28 -1.42,0.26 -1.32,0.35 -1.17,0.49 -1.11,0.6 -1.17,0.62 -1.26,0.64 -1.27,0.67 -1.1,0.8 -0.83,0.95 -0.63,1.04 -0.63,1 -0.85,0.86 -1.11,0.72 -1.17,0.72 -0.94,0.89 -0.45,1.15 0.14,1.33 0.6,1.34 0.88,1.16 1,0.93 1.04,0.75 1.09,0.72 1.12,0.8 1.13,0.91 1.06,0.99 0.98,0.99 0.91,0.97 0.92,0.96 0.98,0.96 1.05,0.94 1.07,0.93 1.03,0.91 0.99,0.89 0.97,0.88 1.03,0.83 1.14,0.69 1.27,0.48 1.36,0.26 1.4,0.13 1.39,0.12 1.36,0.22 1.33,0.35 1.33,0.4 1.35,0.34 1.38,0.21 1.39,0.04 1.35,-0.11 1.25,-0.3 1.15,-0.5 1.07,-0.75 1.04,-0.96 1.02,-1.07 0.96,-1.09 0.79,-1.05 0.55,-1.07 0.32,-1.18 0.2,-1.36 0.27,-1.46 0.5,-1.39 0.8,-1.12 1.07,-0.74 1.23,-0.39 1.31,-0.15 1.32,-0.03 1.34,0.03 1.34,0.14 1.36,0.27 1.36,0.37 1.37,0.38 1.34,0.24 1.28,-0.05 1.14,-0.42 0.93,-0.83 0.64,-1.19 0.32,-1.45 0.01,-1.54 -0.3,-1.41 -0.61,-1.08 -0.92,-0.64 -1.19,-0.28 -1.35,-0.07 -1.36,-0.11 -1.25,-0.27 -1.15,-0.47 -1.13,-0.6 -1.24,-0.62 -1.35,-0.62 -1.34,-0.68 -1.09,-0.83 z"
           style="fill:#4ca13c;fill-opacity:0.93300003;fill-rule:nonzero;stroke:#333333;stroke-width:0.75;stroke-linecap:round;stroke-linejoin:round;stroke-miterlimit:10;stroke-dasharray:none;stroke-opacity:1"
           id="path58867"
           inkscape:connector-curvature="0" /><path
           d="m 116.08,282.64 -0.67,-1.09 -0.28,-1.37 -0.06,-1.43 -0.09,-1.33 -0.26,-1.21 -0.46,-1.22 -0.56,-1.33 -0.61,-1.35 -0.68,-1.19 -0.85,-0.84 -1.11,-0.49 -1.35,-0.3 -1.45,-0.29 -1.42,-0.37 -1.31,-0.41 -1.26,-0.35 -1.3,-0.25 -1.37,-0.12 -1.39,0.08 -1.27,0.38 -1.09,0.74 -0.94,1.03 -0.94,1.1 -1.05,0.93 -1.2,0.69 -1.27,0.54 -1.24,0.58 -1.19,0.68 -1.21,0.69 -1.3,0.49 -1.42,0.23 -1.43,0.12 -1.33,0.26 -1.17,0.54 -1.11,0.73 -1.16,0.72 -1.26,0.58 -1.27,0.54 -1.11,0.71 -0.83,1 -0.63,1.18 -0.62,1.09 -0.84,0.8 -1.11,0.59 -1.19,0.63 -0.95,0.94 -0.44,1.29 0.15,1.42 0.61,1.29 0.87,1.02 0.99,0.84 1.03,0.8 1.1,0.85 1.14,0.89 1.13,0.87 1.06,0.85 0.96,0.9 0.9,1.02 0.93,1.1 0.99,1.04 1.06,0.9 1.06,0.79 1.02,0.82 0.98,0.94 0.98,1.02 1.04,0.91 1.15,0.65 1.26,0.34 1.35,0.17 1.39,0.18 1.4,0.25 1.38,0.31 1.33,0.3 1.32,0.27 1.34,0.25 1.37,0.26 1.4,0.18 1.36,-0.03 1.26,-0.34 1.14,-0.64 1.06,-0.84 1.04,-0.91 1.02,-0.94 0.97,-0.99 0.8,-1.1 0.54,-1.21 0.31,-1.27 0.19,-1.31 0.28,-1.32 0.51,-1.3 0.81,-1.17 1.06,-0.88 1.22,-0.48 1.3,-0.1 1.33,0.1 1.35,0.13 1.35,0.09 1.35,0.13 1.35,0.28 1.36,0.43 1.35,0.38 1.29,0.04 1.15,-0.47 0.92,-0.97 0.63,-1.28 0.31,-1.4 0.02,-1.41 -0.29,-1.31 -0.6,-1.13 -0.92,-0.79 -1.21,-0.36 -1.35,-0.03 -1.36,0.04 -1.24,-0.19 -1.14,-0.52 -1.14,-0.73 -1.25,-0.71 -1.36,-0.57 -1.33,-0.55 -1.08,-0.74 z"
           style="fill:#569f38;fill-opacity:0.93300003;fill-rule:nonzero;stroke:#333333;stroke-width:0.75;stroke-linecap:round;stroke-linejoin:round;stroke-miterlimit:10;stroke-dasharray:none;stroke-opacity:1"
           id="path58869"
           inkscape:connector-curvature="0" /><path
           d="m 180.63,282.61 -0.67,-1.09 -0.28,-1.34 -0.08,-1.4 -0.08,-1.32 -0.26,-1.25 -0.45,-1.25 -0.56,-1.32 -0.62,-1.32 -0.69,-1.16 -0.85,-0.85 -1.09,-0.53 -1.34,-0.33 -1.46,-0.27 -1.43,-0.33 -1.32,-0.39 -1.25,-0.38 -1.29,-0.29 -1.37,-0.13 -1.4,0.12 -1.28,0.41 -1.09,0.75 -0.93,0.99 -0.93,1.06 -1.05,0.94 -1.21,0.72 -1.28,0.58 -1.24,0.57 -1.18,0.65 -1.2,0.65 -1.31,0.5 -1.43,0.28 -1.43,0.15 -1.32,0.24 -1.17,0.49 -1.1,0.71 -1.17,0.75 -1.27,0.62 -1.27,0.56 -1.1,0.67 -0.83,0.96 -0.62,1.17 -0.64,1.13 -0.85,0.84 -1.11,0.59 -1.18,0.59 -0.94,0.91 -0.44,1.29 0.14,1.47 0.6,1.31 0.88,1.01 1,0.8 1.04,0.77 1.08,0.88 1.13,0.93 1.13,0.89 1.07,0.82 0.97,0.86 0.9,1.01 0.92,1.13 0.99,1.08 1.05,0.9 1.08,0.76 1.03,0.78 0.97,0.95 0.97,1.05 1.04,0.95 1.15,0.64 1.27,0.3 1.36,0.15 1.39,0.18 1.39,0.3 1.36,0.33 1.35,0.28 1.33,0.22 1.34,0.24 1.37,0.28 1.38,0.23 1.36,-0.02 1.27,-0.37 1.15,-0.68 1.06,-0.84 1.03,-0.88 1.02,-0.9 0.97,-1 0.8,-1.14 0.55,-1.24 0.3,-1.26 0.19,-1.27 0.27,-1.3 0.52,-1.31 0.82,-1.21 1.07,-0.9 1.21,-0.46 1.29,-0.06 1.33,0.12 1.35,0.1 1.37,0.05 1.35,0.12 1.34,0.31 1.35,0.47 1.34,0.38 1.31,0.01 1.16,-0.51 0.92,-0.96 0.61,-1.25 0.31,-1.37 0.02,-1.41 -0.28,-1.36 -0.59,-1.15 -0.93,-0.77 -1.21,-0.32 -1.37,-0.01 -1.35,0.01 -1.23,-0.22 -1.13,-0.54 -1.15,-0.71 -1.26,-0.67 -1.37,-0.56 -1.32,-0.57 -1.07,-0.79 z"
           style="fill:#619d35;fill-opacity:0.93300003;fill-rule:nonzero;stroke:#333333;stroke-width:0.75;stroke-linecap:round;stroke-linejoin:round;stroke-miterlimit:10;stroke-dasharray:none;stroke-opacity:1"
           id="path58871"
           inkscape:connector-curvature="0" /><path
           d="m 245.14,282.64 -0.75,-1.13 -0.28,-1.3 0,-1.34 -0.02,-1.31 -0.29,-1.3 -0.53,-1.31 -0.6,-1.31 -0.57,-1.26 -0.61,-1.12 -0.83,-0.87 -1.17,-0.59 -1.41,-0.36 -1.44,-0.23 -1.35,-0.27 -1.27,-0.38 -1.29,-0.43 -1.36,-0.34 -1.41,-0.12 -1.34,0.17 -1.2,0.46 -1.09,0.71 -1,0.94 -0.99,1.04 -1.04,0.98 -1.13,0.78 -1.23,0.57 -1.28,0.52 -1.26,0.6 -1.23,0.67 -1.24,0.56 -1.36,0.31 -1.44,0.12 -1.39,0.18 -1.23,0.47 -1.07,0.76 -1.09,0.8 -1.23,0.63 -1.32,0.49 -1.18,0.63 -0.84,0.98 -0.56,1.24 -0.56,1.15 -0.87,0.81 -1.19,0.52 -1.22,0.59 -0.91,0.96 -0.36,1.34 0.17,1.45 0.55,1.26 0.8,0.98 0.99,0.82 1.11,0.83 1.15,0.9 1.11,0.89 1.05,0.83 1.02,0.82 1.01,0.91 0.99,1.06 0.94,1.11 0.92,1.02 0.99,0.87 1.07,0.79 1.11,0.85 1.03,0.96 0.94,1.01 0.96,0.89 1.12,0.64 1.32,0.36 1.43,0.19 1.4,0.16 1.32,0.24 1.3,0.3 1.36,0.32 1.41,0.28 1.39,0.25 1.33,0.23 1.31,0.17 1.32,-0.01 1.33,-0.31 1.23,-0.64 1.06,-0.87 0.95,-0.94 0.96,-0.92 0.99,-0.95 0.89,-1.09 0.6,-1.23 0.25,-1.32 0.11,-1.32 0.25,-1.28 0.58,-1.25 0.89,-1.18 1.06,-0.93 1.14,-0.52 1.23,-0.08 1.36,0.17 1.44,0.15 1.4,0.05 1.3,0.06 1.26,0.27 1.33,0.49 1.42,0.44 1.37,0.04 1.15,-0.55 0.84,-1.02 0.57,-1.25 0.34,-1.32 0.1,-1.36 -0.25,-1.37 -0.65,-1.21 -1.01,-0.81 -1.21,-0.3 -1.29,0.06 -1.29,0.04 -1.25,-0.28 -1.22,-0.59 -1.19,-0.71 -1.22,-0.61 -1.28,-0.52 -1.3,-0.59 -1.13,-0.84 z"
           style="fill:#6b9b31;fill-opacity:0.93300003;fill-rule:nonzero;stroke:#333333;stroke-width:0.75;stroke-linecap:round;stroke-linejoin:round;stroke-miterlimit:10;stroke-dasharray:none;stroke-opacity:1"
           id="path58873"
           inkscape:connector-curvature="0" /><path
           d="m 309.72,282.63 -0.78,-1.1 -0.31,-1.31 0.02,-1.37 0.02,-1.33 -0.28,-1.27 -0.56,-1.29 -0.65,-1.31 -0.55,-1.29 -0.57,-1.13 -0.81,-0.87 -1.2,-0.56 -1.45,-0.34 -1.45,-0.26 -1.31,-0.3 -1.23,-0.38 -1.31,-0.4 -1.42,-0.32 -1.41,-0.14 -1.31,0.14 -1.17,0.46 -1.09,0.74 -1.06,0.96 -1.01,1.03 -1,0.95 -1.09,0.77 -1.23,0.6 -1.33,0.54 -1.29,0.6 -1.21,0.64 -1.2,0.55 -1.34,0.32 -1.48,0.15 -1.44,0.18 -1.22,0.46 -1.02,0.73 -1.07,0.81 -1.26,0.65 -1.37,0.51 -1.18,0.62 -0.8,0.95 -0.52,1.24 -0.59,1.18 -0.91,0.82 -1.2,0.52 -1.2,0.55 -0.86,0.95 -0.37,1.37 0.12,1.48 0.53,1.26 0.83,0.94 1.03,0.81 1.12,0.85 1.11,0.93 1.08,0.9 1.06,0.8 1.07,0.79 1.03,0.93 0.96,1.09 0.9,1.12 0.92,1 1.03,0.85 1.11,0.79 1.08,0.87 0.99,0.98 0.94,1 0.99,0.86 1.15,0.64 1.31,0.38 1.39,0.21 1.38,0.16 1.36,0.2 1.34,0.3 1.36,0.34 1.37,0.31 1.36,0.24 1.35,0.21 1.35,0.15 1.35,0.01 1.29,-0.29 1.19,-0.63 1.07,-0.9 1,-0.96 0.98,-0.92 0.96,-0.92 0.85,-1.07 0.59,-1.26 0.3,-1.35 0.14,-1.32 0.23,-1.25 0.54,-1.23 0.88,-1.19 1.1,-0.97 1.17,-0.52 1.23,-0.06 1.31,0.19 1.42,0.15 1.42,0.02 1.35,0.04 1.27,0.3 1.29,0.52 1.39,0.44 1.39,0.01 1.19,-0.57 0.86,-1.01 0.53,-1.23 0.3,-1.31 0.11,-1.39 -0.2,-1.39 -0.63,-1.21 -1.03,-0.78 -1.27,-0.28 -1.29,0.04 -1.25,0.01 -1.22,-0.28 -1.23,-0.56 -1.24,-0.69 -1.24,-0.63 -1.25,-0.55 -1.26,-0.6 -1.14,-0.82 z"
           style="fill:#76992e;fill-opacity:0.93300003;fill-rule:nonzero;stroke:#333333;stroke-width:0.75;stroke-linecap:round;stroke-linejoin:round;stroke-miterlimit:10;stroke-dasharray:none;stroke-opacity:1"
           id="path58875"
           inkscape:connector-curvature="0" /><path
           d="m 374.25,282.52 -0.79,-1.02 -0.29,-1.25 0.03,-1.42 0.01,-1.41 -0.29,-1.28 -0.57,-1.2 -0.63,-1.26 -0.54,-1.34 -0.57,-1.22 -0.83,-0.87 -1.2,-0.48 -1.44,-0.29 -1.44,-0.3 -1.31,-0.38 -1.25,-0.39 -1.32,-0.32 -1.4,-0.27 -1.4,-0.18 -1.31,0.06 -1.19,0.45 -1.1,0.82 -1.04,1.01 -1,0.99 -1.01,0.87 -1.1,0.76 -1.24,0.68 -1.31,0.6 -1.28,0.55 -1.21,0.56 -1.22,0.54 -1.34,0.4 -1.47,0.2 -1.43,0.14 -1.22,0.37 -1.04,0.73 -1.07,0.89 -1.25,0.71 -1.36,0.46 -1.19,0.53 -0.81,0.95 -0.52,1.32 -0.58,1.23 -0.9,0.79 -1.21,0.42 -1.21,0.55 -0.86,1.04 -0.36,1.42 0.13,1.43 0.52,1.17 0.82,0.94 1.03,0.89 1.13,0.91 1.12,0.88 1.07,0.81 1.05,0.8 1.07,0.87 1.04,0.99 0.97,1.04 0.89,1.04 0.91,0.99 1.03,0.93 1.12,0.85 1.09,0.82 0.98,0.9 0.93,0.99 0.99,0.94 1.16,0.69 1.32,0.34 1.38,0.13 1.38,0.15 1.35,0.29 1.35,0.35 1.37,0.29 1.36,0.23 1.35,0.24 1.35,0.28 1.36,0.21 1.35,-0.04 1.29,-0.37 1.18,-0.64 1.07,-0.82 1.01,-0.9 0.99,-0.96 0.96,-1.02 0.83,-1.07 0.59,-1.18 0.31,-1.29 0.15,-1.37 0.22,-1.33 0.53,-1.24 0.88,-1.11 1.1,-0.91 1.19,-0.57 1.22,-0.14 1.3,0.18 1.41,0.23 1.44,0.07 1.36,0.01 1.26,0.2 1.28,0.52 1.38,0.52 1.41,0.06 1.2,-0.61 0.85,-1.09 0.52,-1.24 0.3,-1.23 0.12,-1.33 -0.2,-1.44 -0.63,-1.29 -1.04,-0.79 -1.27,-0.2 -1.28,0.1 -1.24,-0.04 -1.23,-0.36 -1.24,-0.57 -1.24,-0.61 -1.23,-0.57 -1.24,-0.59 -1.27,-0.69 -1.15,-0.83 z"
           style="fill:#80972a;fill-opacity:0.93300003;fill-rule:nonzero;stroke:#333333;stroke-width:0.75;stroke-linecap:round;stroke-linejoin:round;stroke-miterlimit:10;stroke-dasharray:none;stroke-opacity:1"
           id="path58877"
           inkscape:connector-curvature="0" /><path
           d="m 51.59,217.96 -0.85,-1.05 -0.28,-1.24 0.1,-1.38 0.03,-1.41 -0.34,-1.32 -0.62,-1.23 -0.61,-1.23 -0.48,-1.31 -0.57,-1.23 -0.89,-0.91 -1.23,-0.49 -1.4,-0.26 -1.39,-0.28 -1.33,-0.39 -1.31,-0.42 -1.34,-0.33 -1.35,-0.23 -1.36,-0.16 -1.34,0.03 -1.25,0.42 -1.1,0.83 -0.98,1.05 -0.97,1 -1.06,0.84 -1.16,0.73 -1.22,0.7 -1.26,0.64 -1.26,0.55 -1.27,0.53 -1.26,0.52 -1.32,0.43 -1.41,0.23 -1.42,0.13 -1.29,0.34 -1.08,0.72 -1.02,0.92 -1.2,0.73 -1.37,0.45 -1.26,0.5 -0.83,0.94 -0.47,1.35 -0.53,1.27 -0.93,0.75 -1.27,0.4 -1.22,0.56 -0.8,1.07 -0.33,1.44 0.09,1.4 0.46,1.15 0.83,0.95 1.1,0.93 1.15,0.91 1.07,0.85 1.03,0.79 1.08,0.82 1.13,0.91 1.05,0.98 0.9,1.01 0.87,1.03 0.95,1.02 1.09,0.96 1.1,0.83 1.03,0.8 0.97,0.89 0.98,1.02 1.04,0.97 1.13,0.67 1.26,0.31 1.39,0.13 1.43,0.19 1.39,0.3 1.31,0.32 1.31,0.26 1.38,0.24 1.42,0.28 1.37,0.29 1.31,0.17 1.31,-0.06 1.32,-0.34 1.24,-0.61 1.08,-0.83 0.95,-0.94 0.95,-0.98 1,-0.98 0.89,-1.05 0.58,-1.19 0.25,-1.33 0.13,-1.37 0.28,-1.31 0.57,-1.22 0.85,-1.13 1.05,-0.95 1.19,-0.56 1.28,-0.11 1.33,0.2 1.38,0.2 1.38,0.04 1.37,0.02 1.33,0.25 1.3,0.51 1.33,0.49 1.36,0.04 1.24,-0.59 0.91,-1.06 0.52,-1.24 0.25,-1.27 0.08,-1.34 -0.15,-1.42 -0.58,-1.26 -1.06,-0.81 -1.33,-0.23 -1.31,0.09 -1.19,-0.01 -1.18,-0.33 -1.27,-0.6 -1.31,-0.64 -1.23,-0.57 -1.18,-0.56 -1.24,-0.67 -1.19,-0.86 z"
           style="fill:#8b9426;fill-opacity:0.93300003;fill-rule:nonzero;stroke:#333333;stroke-width:0.75;stroke-linecap:round;stroke-linejoin:round;stroke-miterlimit:10;stroke-dasharray:none;stroke-opacity:1"
           id="path58879"
           inkscape:connector-curvature="0" /><path
           d="m 116.15,217.96 -0.87,-1.04 -0.32,-1.23 0.11,-1.39 0.07,-1.43 -0.34,-1.31 -0.65,-1.21 -0.62,-1.24 -0.46,-1.31 -0.54,-1.24 -0.91,-0.9 -1.26,-0.49 -1.4,-0.26 -1.35,-0.29 -1.32,-0.4 -1.34,-0.4 -1.36,-0.32 -1.34,-0.25 -1.33,-0.17 -1.34,0.04 -1.28,0.43 -1.12,0.83 -0.95,1.04 -0.95,0.99 -1.07,0.85 -1.19,0.75 -1.22,0.69 -1.22,0.62 -1.26,0.56 -1.29,0.54 -1.29,0.52 -1.29,0.42 -1.38,0.22 -1.44,0.14 -1.32,0.35 -1.08,0.72 -0.99,0.9 -1.18,0.74 -1.4,0.46 -1.28,0.5 -0.82,0.94 -0.44,1.34 -0.53,1.26 -0.96,0.78 -1.29,0.39 -1.18,0.55 -0.79,1.06 -0.34,1.45 0.06,1.42 0.47,1.14 0.86,0.94 1.11,0.92 1.12,0.93 1.05,0.86 1.05,0.78 1.11,0.8 1.12,0.92 1.01,1 0.9,1.01 0.89,1.01 0.98,1.02 1.06,0.97 1.08,0.84 1.04,0.78 1,0.88 0.98,1.03 1.01,0.98 1.12,0.67 1.29,0.3 1.4,0.12 1.42,0.2 1.36,0.31 1.31,0.32 1.35,0.25 1.39,0.24 1.39,0.29 1.35,0.29 1.33,0.17 1.33,-0.07 1.32,-0.34 1.2,-0.6 1.07,-0.82 0.98,-0.96 0.98,-0.98 0.98,-0.97 0.86,-1.04 0.59,-1.2 0.28,-1.35 0.13,-1.37 0.25,-1.29 0.55,-1.21 0.88,-1.15 1.08,-0.95 1.17,-0.56 1.25,-0.09 1.33,0.19 1.41,0.19 1.4,0.04 1.35,0.03 1.3,0.25 1.31,0.51 1.37,0.48 1.35,0.04 1.21,-0.57 0.9,-1.06 0.55,-1.26 0.26,-1.28 0.07,-1.33 -0.19,-1.4 -0.57,-1.27 -1.02,-0.82 -1.33,-0.24 -1.33,0.11 -1.21,0 -1.16,-0.35 -1.25,-0.61 -1.31,-0.63 -1.26,-0.55 -1.19,-0.56 -1.21,-0.69 -1.17,-0.86 z"
           style="fill:#959323;fill-opacity:0.93300003;fill-rule:nonzero;stroke:#333333;stroke-width:0.75;stroke-linecap:round;stroke-linejoin:round;stroke-miterlimit:10;stroke-dasharray:none;stroke-opacity:1"
           id="path58881"
           inkscape:connector-curvature="0" /><path
           d="m 180.67,217.93 -0.83,-1.01 -0.3,-1.21 0.08,-1.41 0.04,-1.46 -0.32,-1.3 -0.62,-1.18 -0.63,-1.24 -0.49,-1.35 -0.55,-1.24 -0.87,-0.87 -1.25,-0.47 -1.43,-0.29 -1.38,-0.31 -1.29,-0.38 -1.31,-0.38 -1.38,-0.33 -1.37,-0.28 -1.33,-0.17 -1.3,0.08 -1.28,0.43 -1.15,0.81 -0.97,1.01 -0.92,1.02 -1.05,0.88 -1.21,0.73 -1.25,0.66 -1.21,0.63 -1.22,0.59 -1.3,0.54 -1.32,0.5 -1.31,0.4 -1.34,0.25 -1.42,0.16 -1.34,0.33 -1.12,0.69 -0.97,0.91 -1.15,0.77 -1.4,0.47 -1.32,0.47 -0.83,0.92 -0.4,1.37 -0.51,1.29 -1,0.75 -1.31,0.37 -1.17,0.56 -0.75,1.09 -0.35,1.45 0.02,1.38 0.47,1.14 0.9,0.97 1.12,0.94 1.09,0.91 1.02,0.83 1.08,0.79 1.14,0.84 1.11,0.91 0.98,0.96 0.9,1.01 0.93,1.05 0.99,1.03 1.02,0.94 1.06,0.82 1.07,0.81 1.03,0.91 0.96,1.01 0.97,0.95 1.13,0.68 1.33,0.33 1.41,0.13 1.39,0.16 1.33,0.3 1.35,0.34 1.38,0.28 1.36,0.22 1.36,0.26 1.36,0.3 1.37,0.2 1.34,-0.07 1.27,-0.37 1.2,-0.61 1.1,-0.8 1.01,-0.93 0.95,-1.01 0.95,-1 0.88,-1.02 0.62,-1.17 0.27,-1.35 0.1,-1.41 0.24,-1.29 0.59,-1.19 0.89,-1.13 1.05,-0.98 1.15,-0.59 1.27,-0.07 1.37,0.23 1.39,0.18 1.37,0 1.35,0.03 1.34,0.29 1.32,0.52 1.33,0.44 1.34,0.03 1.23,-0.55 0.93,-1.03 0.53,-1.27 0.23,-1.32 0.08,-1.33 -0.15,-1.36 -0.57,-1.27 -1.06,-0.85 -1.34,-0.25 -1.3,0.13 -1.19,0.03 -1.18,-0.37 -1.28,-0.64 -1.3,-0.63 -1.23,-0.52 -1.19,-0.55 -1.24,-0.73 -1.19,-0.87 z"
           style="fill:#a0911f;fill-opacity:0.93300003;fill-rule:nonzero;stroke:#333333;stroke-width:0.75;stroke-linecap:round;stroke-linejoin:round;stroke-miterlimit:10;stroke-dasharray:none;stroke-opacity:1"
           id="path58883"
           inkscape:connector-curvature="0" /><path
           d="m 245.21,217.93 -0.86,-1 -0.3,-1.22 0.11,-1.42 0.04,-1.45 -0.34,-1.3 -0.64,-1.17 -0.6,-1.25 -0.48,-1.36 -0.56,-1.23 -0.89,-0.86 -1.24,-0.48 -1.41,-0.3 -1.38,-0.3 -1.32,-0.38 -1.31,-0.38 -1.35,-0.34 -1.37,-0.27 -1.35,-0.16 -1.32,0.07 -1.25,0.43 -1.13,0.8 -0.99,1.03 -0.94,1.02 -1.03,0.87 -1.19,0.73 -1.26,0.66 -1.24,0.63 -1.22,0.59 -1.26,0.54 -1.32,0.5 -1.34,0.4 -1.35,0.25 -1.39,0.16 -1.33,0.33 -1.14,0.69 -1,0.92 -1.12,0.76 -1.38,0.46 -1.34,0.48 -0.85,0.93 -0.39,1.36 -0.48,1.28 -1.01,0.76 -1.34,0.37 -1.17,0.55 -0.71,1.09 -0.35,1.46 -0.01,1.39 0.46,1.13 0.92,0.96 1.14,0.94 1.07,0.92 1,0.83 1.09,0.79 1.17,0.83 1.1,0.92 0.95,0.97 0.91,1 0.96,1.04 0.98,1.03 1,0.95 1.05,0.82 1.1,0.8 1.04,0.91 0.94,1.02 0.95,0.95 1.15,0.67 1.35,0.33 1.39,0.14 1.36,0.16 1.35,0.29 1.38,0.34 1.37,0.29 1.33,0.22 1.36,0.25 1.39,0.3 1.38,0.2 1.3,-0.06 1.27,-0.38 1.22,-0.62 1.12,-0.79 0.98,-0.92 0.93,-1.01 0.97,-1.01 0.9,-1.02 0.61,-1.16 0.25,-1.35 0.1,-1.41 0.27,-1.3 0.59,-1.18 0.86,-1.12 1.05,-0.99 1.17,-0.6 1.29,-0.06 1.34,0.23 1.37,0.18 1.39,-0.01 1.37,0.03 1.32,0.3 1.3,0.52 1.35,0.44 1.36,0.02 1.23,-0.54 0.9,-1.03 0.53,-1.28 0.26,-1.32 0.08,-1.32 -0.18,-1.36 -0.58,-1.27 -1.04,-0.86 -1.31,-0.25 -1.33,0.14 -1.21,0.03 -1.17,-0.38 -1.25,-0.64 -1.31,-0.62 -1.25,-0.51 -1.19,-0.57 -1.21,-0.73 -1.19,-0.86 z"
           style="fill:#aa8f1c;fill-opacity:0.93300003;fill-rule:nonzero;stroke:#333333;stroke-width:0.75;stroke-linecap:round;stroke-linejoin:round;stroke-miterlimit:10;stroke-dasharray:none;stroke-opacity:1"
           id="path58885"
           inkscape:connector-curvature="0" /><path
           d="m 309.76,218 -0.85,-1.03 -0.31,-1.27 0.09,-1.4 0.06,-1.4 -0.34,-1.31 -0.63,-1.23 -0.62,-1.24 -0.48,-1.3 -0.54,-1.24 -0.9,-0.92 -1.25,-0.48 -1.41,-0.23 -1.37,-0.3 -1.32,-0.43 -1.32,-0.4 -1.35,-0.28 -1.35,-0.26 -1.35,-0.21 -1.34,0.05 -1.25,0.48 -1.12,0.83 -0.99,0.98 -0.95,0.98 -1.04,0.92 -1.17,0.76 -1.26,0.63 -1.25,0.59 -1.22,0.62 -1.26,0.58 -1.31,0.47 -1.34,0.36 -1.37,0.27 -1.38,0.21 -1.32,0.31 -1.14,0.64 -1.01,0.93 -1.12,0.82 -1.37,0.45 -1.34,0.42 -0.86,0.93 -0.4,1.42 -0.46,1.29 -1,0.7 -1.36,0.36 -1.17,0.61 -0.7,1.11 -0.34,1.39 -0.03,1.38 0.45,1.18 0.94,0.99 1.14,0.89 1.06,0.88 1,0.88 1.1,0.83 1.18,0.79 1.08,0.88 0.94,1 0.92,1.05 0.97,1 0.98,0.99 0.98,0.98 1.06,0.87 1.11,0.77 1.04,0.86 0.92,1.04 0.96,1.01 1.17,0.65 1.34,0.27 1.38,0.15 1.36,0.22 1.37,0.29 1.37,0.28 1.35,0.28 1.34,0.28 1.37,0.27 1.4,0.24 1.36,0.18 1.3,-0.01 1.28,-0.35 1.23,-0.67 1.1,-0.82 0.98,-0.88 0.94,-0.97 0.97,-1.05 0.9,-1.07 0.6,-1.12 0.26,-1.3 0.11,-1.45 0.26,-1.35 0.58,-1.14 0.87,-1.08 1.05,-1.01 1.17,-0.65 1.27,-0.04 1.35,0.29 1.39,0.16 1.38,-0.06 1.36,0.03 1.33,0.36 1.31,0.52 1.34,0.38 1.35,0.01 1.23,-0.48 0.91,-1.02 0.54,-1.33 0.24,-1.34 0.08,-1.27 -0.16,-1.33 -0.58,-1.33 -1.05,-0.88 -1.33,-0.2 -1.31,0.17 -1.2,-0.02 -1.18,-0.41 -1.26,-0.61 -1.3,-0.57 -1.24,-0.55 -1.2,-0.61 -1.23,-0.7 -1.17,-0.81 z"
           style="fill:#b58d18;fill-opacity:0.93300003;fill-rule:nonzero;stroke:#333333;stroke-width:0.75;stroke-linecap:round;stroke-linejoin:round;stroke-miterlimit:10;stroke-dasharray:none;stroke-opacity:1"
           id="path58887"
           inkscape:connector-curvature="0" /><path
           d="m 374.28,218.02 -0.84,-1.04 -0.29,-1.29 0.09,-1.38 0.03,-1.38 -0.32,-1.33 -0.62,-1.25 -0.63,-1.22 -0.49,-1.28 -0.53,-1.25 -0.88,-0.94 -1.27,-0.47 -1.42,-0.21 -1.36,-0.32 -1.3,-0.45 -1.34,-0.37 -1.36,-0.27 -1.34,-0.27 -1.33,-0.23 -1.35,0.06 -1.27,0.5 -1.1,0.81 -0.97,0.96 -0.97,1.01 -1.06,0.93 -1.16,0.75 -1.23,0.6 -1.26,0.61 -1.25,0.64 -1.24,0.57 -1.29,0.45 -1.36,0.37 -1.38,0.29 -1.37,0.19 -1.3,0.3 -1.16,0.66 -1.02,0.94 -1.11,0.8 -1.35,0.44 -1.35,0.43 -0.89,0.95 -0.37,1.4 -0.45,1.27 -1.02,0.72 -1.37,0.38 -1.16,0.59 -0.68,1.09 -0.36,1.41 -0.04,1.39 0.46,1.17 0.96,0.97 1.13,0.91 1.04,0.9 1.01,0.86 1.12,0.81 1.17,0.81 1.06,0.89 0.95,0.99 0.94,1.03 0.96,1.02 0.96,1 0.99,0.96 1.08,0.86 1.1,0.79 1.02,0.87 0.93,1.02 0.98,0.99 1.15,0.67 1.32,0.29 1.4,0.13 1.38,0.21 1.35,0.3 1.36,0.3 1.36,0.26 1.36,0.27 1.35,0.28 1.38,0.25 1.37,0.17 1.32,-0.02 1.27,-0.33 1.21,-0.66 1.12,-0.84 0.99,-0.89 0.93,-0.95 0.95,-1.04 0.91,-1.09 0.62,-1.13 0.24,-1.29 0.09,-1.43 0.28,-1.36 0.6,-1.17 0.86,-1.05 1.03,-1 1.18,-0.66 1.29,-0.07 1.34,0.32 1.37,0.17 1.39,-0.08 1.38,0.02 1.31,0.38 1.29,0.53 1.36,0.36 1.37,0 1.21,-0.46 0.9,-1 0.54,-1.35 0.26,-1.36 0.07,-1.25 -0.18,-1.32 -0.56,-1.34 -1.04,-0.9 -1.33,-0.19 -1.34,0.2 -1.18,-0.04 -1.16,-0.43 -1.28,-0.59 -1.32,-0.55 -1.23,-0.57 -1.18,-0.63 -1.23,-0.68 -1.2,-0.8 z"
           style="fill:#bf8b15;fill-opacity:0.93300003;fill-rule:nonzero;stroke:#333333;stroke-width:0.75;stroke-linecap:round;stroke-linejoin:round;stroke-miterlimit:10;stroke-dasharray:none;stroke-opacity:1"
           id="path58889"
           inkscape:connector-curvature="0" /><path
           d="m 51.59,153.51 -0.84,-1.05 -0.3,-1.32 0.09,-1.37 0.04,-1.35 -0.32,-1.34 -0.63,-1.28 -0.62,-1.21 -0.49,-1.24 -0.54,-1.28 -0.88,-0.97 -1.26,-0.44 -1.42,-0.19 -1.37,-0.34 -1.3,-0.47 -1.33,-0.35 -1.36,-0.24 -1.35,-0.31 -1.33,-0.25 -1.33,0.1 -1.28,0.51 -1.12,0.78 -0.96,0.95 -0.96,1.04 -1.06,0.94 -1.17,0.71 -1.23,0.6 -1.25,0.65 -1.25,0.63 -1.25,0.54 -1.29,0.45 -1.35,0.41 -1.39,0.28 -1.37,0.16 -1.29,0.31 -1.16,0.69 -1.03,0.93 -1.11,0.76 -1.34,0.46 -1.35,0.47 -0.89,0.92 -0.38,1.38 -0.44,1.29 -1.02,0.74 -1.38,0.36 -1.15,0.57 -0.68,1.11 -0.36,1.44 -0.05,1.35 0.47,1.15 0.97,1.01 1.12,0.92 1.03,0.86 1.01,0.86 1.13,0.84 1.16,0.81 1.06,0.86 0.96,0.99 0.94,1.06 0.95,1.02 0.95,0.97 1.01,0.97 1.08,0.89 1.09,0.78 1.02,0.83 0.94,1.04 0.98,1.03 1.14,0.65 1.32,0.25 1.41,0.16 1.38,0.23 1.34,0.28 1.36,0.27 1.37,0.29 1.35,0.29 1.35,0.25 1.38,0.24 1.38,0.2 1.32,-0.01 1.25,-0.37 1.22,-0.67 1.13,-0.8 0.98,-0.88 0.92,-0.99 0.97,-1.05 0.91,-1.04 0.61,-1.13 0.24,-1.33 0.1,-1.42 0.28,-1.33 0.59,-1.17 0.85,-1.09 1.05,-0.99 1.18,-0.63 1.28,-0.08 1.34,0.28 1.37,0.19 1.4,-0.04 1.37,0 1.31,0.34 1.3,0.56 1.36,0.39 1.35,-0.03 1.22,-0.49 0.9,-0.97 0.55,-1.33 0.25,-1.38 0.07,-1.28 -0.17,-1.28 -0.57,-1.32 -1.04,-0.95 -1.33,-0.19 -1.33,0.23 -1.19,-0.03 -1.17,-0.47 -1.27,-0.59 -1.31,-0.51 -1.23,-0.57 -1.19,-0.67 -1.23,-0.68 -1.19,-0.76 z"
           style="fill:#ca8911;fill-opacity:0.93300003;fill-rule:nonzero;stroke:#333333;stroke-width:0.75;stroke-linecap:round;stroke-linejoin:round;stroke-miterlimit:10;stroke-dasharray:none;stroke-opacity:1"
           id="path58891"
           inkscape:connector-curvature="0" /><path
           d="m 116.12,153.51 -0.84,-1.05 -0.28,-1.32 0.07,-1.37 0.04,-1.35 -0.31,-1.34 -0.63,-1.28 -0.64,-1.2 -0.48,-1.25 -0.53,-1.28 -0.88,-0.96 -1.28,-0.44 -1.41,-0.2 -1.35,-0.34 -1.31,-0.47 -1.34,-0.35 -1.35,-0.24 -1.34,-0.31 -1.35,-0.24 -1.34,0.09 -1.26,0.51 -1.11,0.78 -0.98,0.96 -0.95,1.03 -1.05,0.94 -1.18,0.72 -1.24,0.6 -1.24,0.64 -1.24,0.64 -1.26,0.53 -1.3,0.45 -1.33,0.41 -1.39,0.28 -1.38,0.17 -1.3,0.3 -1.14,0.69 -1.03,0.93 -1.12,0.77 -1.34,0.45 -1.34,0.47 -0.9,0.93 -0.39,1.37 -0.43,1.29 -1,0.74 -1.4,0.36 -1.16,0.57 -0.66,1.11 -0.35,1.44 -0.07,1.35 0.46,1.15 0.99,1 1.12,0.93 1.02,0.86 1.01,0.85 1.15,0.85 1.15,0.81 1.04,0.86 0.97,0.98 0.96,1.07 0.93,1.02 0.95,0.96 1.02,0.97 1.08,0.89 1.08,0.78 1.01,0.84 0.96,1.03 0.98,1.03 1.12,0.65 1.33,0.25 1.42,0.16 1.37,0.24 1.33,0.27 1.36,0.27 1.39,0.29 1.34,0.3 1.34,0.25 1.39,0.23 1.39,0.2 1.3,0 1.25,-0.38 1.23,-0.67 1.13,-0.79 0.97,-0.88 0.92,-1 0.98,-1.04 0.91,-1.04 0.6,-1.14 0.24,-1.32 0.12,-1.43 0.27,-1.32 0.58,-1.18 0.86,-1.09 1.05,-0.98 1.17,-0.63 1.28,-0.08 1.35,0.27 1.37,0.2 1.38,-0.04 1.37,-0.01 1.33,0.34 1.3,0.57 1.34,0.39 1.36,-0.03 1.23,-0.5 0.89,-0.96 0.54,-1.33 0.27,-1.39 0.07,-1.27 -0.19,-1.28 -0.57,-1.33 -1.02,-0.94 -1.34,-0.19 -1.34,0.23 -1.18,-0.03 -1.16,-0.47 -1.27,-0.59 -1.32,-0.51 -1.23,-0.58 -1.17,-0.66 -1.25,-0.67 -1.19,-0.77 z"
           style="fill:#d4870e;fill-opacity:0.93300003;fill-rule:nonzero;stroke:#333333;stroke-width:0.75;stroke-linecap:round;stroke-linejoin:round;stroke-miterlimit:10;stroke-dasharray:none;stroke-opacity:1"
           id="path58893"
           inkscape:connector-curvature="0" /><path
           d="m 180.67,153.51 -0.85,-1.06 -0.27,-1.33 0.09,-1.36 0.01,-1.33 -0.32,-1.36 -0.59,-1.29 -0.65,-1.18 -0.51,-1.25 -0.51,-1.3 -0.86,-0.96 -1.3,-0.42 -1.42,-0.2 -1.33,-0.36 -1.31,-0.45 -1.36,-0.34 -1.35,-0.27 -1.32,-0.31 -1.35,-0.22 -1.36,0.09 -1.24,0.49 -1.1,0.79 -1,0.97 -0.97,1.02 -1.02,0.93 -1.17,0.73 -1.27,0.61 -1.24,0.62 -1.21,0.64 -1.28,0.55 -1.31,0.45 -1.31,0.39 -1.37,0.29 -1.42,0.18 -1.3,0.29 -1.11,0.67 -1.03,0.96 -1.15,0.77 -1.33,0.43 -1.31,0.47 -0.92,0.95 -0.41,1.37 -0.41,1.26 -0.99,0.76 -1.42,0.37 -1.16,0.55 -0.64,1.11 -0.36,1.45 -0.09,1.36 0.48,1.13 1,1 1.11,0.95 0.99,0.85 1.05,0.84 1.15,0.85 1.12,0.84 1.05,0.83 0.99,0.98 0.95,1.08 0.91,1.03 0.96,0.94 1.04,0.97 1.06,0.91 1.07,0.77 1.03,0.82 0.96,1.05 0.96,1.04 1.13,0.63 1.35,0.25 1.4,0.17 1.36,0.24 1.34,0.26 1.38,0.27 1.36,0.31 1.34,0.29 1.36,0.23 1.39,0.25 1.36,0.21 1.32,-0.02 1.27,-0.38 1.21,-0.65 1.11,-0.8 1,-0.9 0.93,-0.98 0.95,-1.03 0.91,-1.06 0.62,-1.14 0.24,-1.31 0.09,-1.42 0.28,-1.35 0.6,-1.17 0.85,-1.07 1.03,-0.99 1.2,-0.64 1.28,-0.07 1.32,0.28 1.38,0.19 1.41,-0.06 1.36,0.02 1.3,0.34 1.31,0.54 1.36,0.4 1.35,-0.01 1.21,-0.51 0.92,-0.98 0.54,-1.31 0.24,-1.38 0.08,-1.29 -0.16,-1.28 -0.59,-1.31 -1.04,-0.94 -1.31,-0.21 -1.33,0.24 -1.21,-0.02 -1.16,-0.48 -1.25,-0.6 -1.33,-0.5 -1.25,-0.56 -1.16,-0.69 -1.22,-0.67 -1.21,-0.75 z"
           style="fill:#df850a;fill-opacity:0.93300003;fill-rule:nonzero;stroke:#333333;stroke-width:0.75;stroke-linecap:round;stroke-linejoin:round;stroke-miterlimit:10;stroke-dasharray:none;stroke-opacity:1"
           id="path58895"
           inkscape:connector-curvature="0" /><path
           d="m 245.23,153.53 -0.87,-1.09 -0.28,-1.37 0.11,-1.32 0.02,-1.31 -0.34,-1.41 -0.6,-1.29 -0.62,-1.13 -0.52,-1.27 -0.53,-1.33 -0.85,-0.93 -1.28,-0.39 -1.45,-0.26 -1.33,-0.36 -1.28,-0.4 -1.37,-0.36 -1.37,-0.3 -1.3,-0.27 -1.34,-0.2 -1.38,0.04 -1.25,0.48 -1.07,0.84 -1.01,0.96 -0.98,0.98 -1.01,0.95 -1.15,0.77 -1.29,0.56 -1.25,0.61 -1.19,0.69 -1.27,0.54 -1.34,0.41 -1.31,0.41 -1.35,0.33 -1.43,0.13 -1.31,0.27 -1.09,0.73 -1.03,0.95 -1.17,0.72 -1.32,0.46 -1.29,0.5 -0.94,0.91 -0.42,1.35 -0.38,1.32 -0.99,0.75 -1.45,0.32 -1.16,0.58 -0.61,1.14 -0.37,1.42 -0.11,1.33 0.5,1.17 1.01,1.02 1.08,0.89 1,0.87 1.07,0.88 1.13,0.82 1.11,0.8 1.07,0.88 1,0.99 0.92,1.04 0.91,1.03 0.99,0.99 1.02,0.94 1.05,0.88 1.08,0.81 1.05,0.83 0.94,1 0.95,1.05 1.16,0.68 1.33,0.22 1.39,0.14 1.37,0.28 1.36,0.27 1.35,0.23 1.36,0.31 1.36,0.33 1.36,0.21 1.36,0.21 1.38,0.25 1.33,0 1.25,-0.42 1.21,-0.66 1.13,-0.74 0.99,-0.92 0.91,-1.03 0.96,-0.99 0.93,-1.03 0.6,-1.19 0.23,-1.32 0.12,-1.37 0.28,-1.35 0.57,-1.22 0.86,-1.04 1.05,-0.96 1.18,-0.69 1.27,-0.08 1.35,0.34 1.38,0.17 1.38,-0.1 1.36,0.04 1.33,0.38 1.29,0.51 1.35,0.37 1.37,0.04 1.21,-0.51 0.9,-1.03 0.54,-1.29 0.27,-1.34 0.06,-1.32 -0.18,-1.31 -0.56,-1.26 -1.04,-0.94 -1.34,-0.26 -1.32,0.25 -1.18,0.04 -1.18,-0.52 -1.26,-0.63 -1.31,-0.45 -1.24,-0.56 -1.19,-0.73 -1.22,-0.67 -1.18,-0.69 z"
           style="fill:#e98307;fill-opacity:0.93300003;fill-rule:nonzero;stroke:#333333;stroke-width:0.75;stroke-linecap:round;stroke-linejoin:round;stroke-miterlimit:10;stroke-dasharray:none;stroke-opacity:1"
           id="path58897"
           inkscape:connector-curvature="0" /><path
           d="m 309.77,153.53 -0.87,-1.11 -0.27,-1.35 0.11,-1.3 0.01,-1.34 -0.34,-1.41 -0.59,-1.26 -0.63,-1.15 -0.52,-1.28 -0.52,-1.32 -0.85,-0.92 -1.29,-0.42 -1.44,-0.24 -1.33,-0.34 -1.29,-0.43 -1.37,-0.36 -1.36,-0.28 -1.3,-0.28 -1.35,-0.22 -1.38,0.06 -1.24,0.5 -1.08,0.81 -1.01,0.96 -0.97,1 -1.02,0.94 -1.16,0.75 -1.28,0.59 -1.24,0.61 -1.2,0.66 -1.28,0.55 -1.32,0.43 -1.32,0.4 -1.35,0.31 -1.42,0.16 -1.32,0.27 -1.09,0.7 -1.03,0.96 -1.17,0.75 -1.32,0.43 -1.3,0.5 -0.92,0.93 -0.43,1.34 -0.39,1.3 -0.98,0.77 -1.44,0.34 -1.17,0.54 -0.61,1.15 -0.36,1.44 -0.12,1.32 0.49,1.16 1.02,1.03 1.08,0.9 1,0.85 1.07,0.88 1.14,0.85 1.1,0.78 1.06,0.87 1.01,1.01 0.92,1.04 0.91,1.01 0.99,1 1.03,0.95 1.03,0.86 1.09,0.81 1.06,0.86 0.93,0.99 0.94,1.02 1.17,0.7 1.34,0.24 1.38,0.11 1.37,0.28 1.37,0.3 1.35,0.21 1.35,0.29 1.37,0.36 1.36,0.22 1.35,0.18 1.38,0.26 1.34,0.02 1.24,-0.44 1.2,-0.67 1.15,-0.72 0.99,-0.92 0.9,-1.05 0.97,-0.98 0.93,-1.01 0.59,-1.21 0.23,-1.33 0.13,-1.34 0.28,-1.37 0.56,-1.24 0.86,-1.02 1.07,-0.94 1.16,-0.72 1.27,-0.08 1.36,0.36 1.37,0.17 1.38,-0.12 1.37,0.06 1.33,0.39 1.28,0.47 1.35,0.38 1.38,0.06 1.21,-0.52 0.89,-1.04 0.55,-1.27 0.27,-1.34 0.05,-1.35 -0.17,-1.29 -0.56,-1.24 -1.04,-0.96 -1.35,-0.27 -1.31,0.28 -1.19,0.02 -1.18,-0.54 -1.26,-0.61 -1.3,-0.44 -1.25,-0.58 -1.19,-0.74 -1.2,-0.63 -1.2,-0.71 z"
           style="fill:#f48103;fill-opacity:0.93300003;fill-rule:nonzero;stroke:#333333;stroke-width:0.75;stroke-linecap:round;stroke-linejoin:round;stroke-miterlimit:10;stroke-dasharray:none;stroke-opacity:1"
           id="path58899"
           inkscape:connector-curvature="0" /><path
           d="m 374.32,153.54 -0.89,-1.13 -0.26,-1.31 0.12,-1.31 -0.01,-1.37 -0.34,-1.38 -0.56,-1.25 -0.64,-1.18 -0.54,-1.28 -0.5,-1.28 -0.85,-0.95 -1.31,-0.44 -1.43,-0.2 -1.31,-0.35 -1.31,-0.46 -1.37,-0.33 -1.35,-0.27 -1.31,-0.31 -1.36,-0.22 -1.35,0.1 -1.25,0.47 -1.1,0.8 -0.99,0.99 -0.97,1 -1.03,0.9 -1.16,0.78 -1.26,0.6 -1.25,0.58 -1.22,0.66 -1.25,0.59 -1.33,0.4 -1.33,0.38 -1.34,0.35 -1.41,0.16 -1.33,0.23 -1.1,0.73 -1.01,0.98 -1.17,0.7 -1.35,0.44 -1.27,0.54 -0.92,0.9 -0.45,1.32 -0.38,1.34 -0.97,0.77 -1.46,0.3 -1.17,0.57 -0.59,1.16 -0.37,1.41 -0.13,1.32 0.51,1.19 1.02,1.01 1.07,0.88 0.99,0.89 1.09,0.87 1.12,0.81 1.1,0.81 1.08,0.89 1.01,0.97 0.9,1.05 0.92,1.04 1,0.97 1.01,0.94 1.04,0.9 1.1,0.8 1.04,0.82 0.93,1.02 0.96,1.04 1.16,0.67 1.33,0.23 1.39,0.15 1.37,0.25 1.35,0.29 1.36,0.25 1.36,0.28 1.36,0.32 1.35,0.25 1.37,0.2 1.38,0.22 1.33,0.03 1.25,-0.41 1.2,-0.7 1.14,-0.74 0.99,-0.88 0.91,-1.06 0.96,-1.01 0.92,-0.98 0.62,-1.19 0.22,-1.37 0.11,-1.34 0.29,-1.32 0.57,-1.27 0.85,-1.04 1.07,-0.91 1.17,-0.71 1.26,-0.12 1.35,0.39 1.39,0.18 1.37,-0.16 1.36,0.07 1.35,0.42 1.28,0.45 1.33,0.36 1.39,0.1 1.22,-0.53 0.87,-1.08 0.55,-1.23 0.29,-1.32 0.04,-1.39 -0.19,-1.29 -0.53,-1.21 -1.05,-0.99 -1.36,-0.28 -1.3,0.32 -1.17,0.02 -1.2,-0.58 -1.27,-0.58 -1.27,-0.42 -1.27,-0.62 -1.2,-0.73 -1.19,-0.6 -1.19,-0.74 z"
           style="fill:#ff7f00;fill-opacity:0.93300003;fill-rule:nonzero;stroke:#333333;stroke-width:0.75;stroke-linecap:round;stroke-linejoin:round;stroke-miterlimit:10;stroke-dasharray:none;stroke-opacity:1"
           id="path58901"
           inkscape:connector-curvature="0" /><text
           transform="matrix(1,0,0,-1,28.3,477.81)"
           style="font-variant:normal;font-weight:normal;font-size:16px;font-family:Helvetica;-inkscape-font-specification:Helvetica;writing-mode:lr-tb;fill:#000000;fill-opacity:1;fill-rule:nonzero;stroke:none"
           id="text58903"><tspan
             x="0"
             y="0"
             id="tspan58905">1</tspan></text>
<text
           transform="matrix(1,0,0,-1,93.8,477.81)"
           style="font-variant:normal;font-weight:normal;font-size:16px;font-family:Helvetica;-inkscape-font-specification:Helvetica;writing-mode:lr-tb;fill:#000000;fill-opacity:1;fill-rule:nonzero;stroke:none"
           id="text58907"><tspan
             x="0"
             y="0"
             id="tspan58909">2</tspan></text>
<text
           transform="matrix(1,0,0,-1,159.3,477.97)"
           style="font-variant:normal;font-weight:normal;font-size:16px;font-family:Helvetica;-inkscape-font-specification:Helvetica;writing-mode:lr-tb;fill:#000000;fill-opacity:1;fill-rule:nonzero;stroke:none"
           id="text58911"><tspan
             x="0"
             y="0"
             id="tspan58913">3</tspan></text>
<text
           transform="matrix(1,0,0,-1,224.8,477.81)"
           style="font-variant:normal;font-weight:normal;font-size:16px;font-family:Helvetica;-inkscape-font-specification:Helvetica;writing-mode:lr-tb;fill:#000000;fill-opacity:1;fill-rule:nonzero;stroke:none"
           id="text58915"><tspan
             x="0"
             y="0"
             id="tspan58917">4</tspan></text>
<text
           transform="matrix(1,0,0,-1,290.3,478.09)"
           style="font-variant:normal;font-weight:normal;font-size:16px;font-family:Helvetica;-inkscape-font-specification:Helvetica;writing-mode:lr-tb;fill:#000000;fill-opacity:1;fill-rule:nonzero;stroke:none"
           id="text58919"><tspan
             x="0"
             y="0"
             id="tspan58921">5</tspan></text>
<text
           transform="matrix(1,0,0,-1,355.8,477.97)"
           style="font-variant:normal;font-weight:normal;font-size:16px;font-family:Helvetica;-inkscape-font-specification:Helvetica;writing-mode:lr-tb;fill:#000000;fill-opacity:1;fill-rule:nonzero;stroke:none"
           id="text58923"><tspan
             x="0"
             y="0"
             id="tspan58925">6</tspan></text>
<text
           transform="matrix(1,0,0,-1,28.3,412.81)"
           style="font-variant:normal;font-weight:normal;font-size:16px;font-family:Helvetica;-inkscape-font-specification:Helvetica;writing-mode:lr-tb;fill:#000000;fill-opacity:1;fill-rule:nonzero;stroke:none"
           id="text58927"><tspan
             x="0"
             y="0"
             id="tspan58929">7</tspan></text>
<text
           transform="matrix(1,0,0,-1,93.8,412.84)"
           style="font-variant:normal;font-weight:normal;font-size:16px;font-family:Helvetica;-inkscape-font-specification:Helvetica;writing-mode:lr-tb;fill:#000000;fill-opacity:1;fill-rule:nonzero;stroke:none"
           id="text58931"><tspan
             x="0"
             y="0"
             id="tspan58933">8</tspan></text>
<text
           transform="matrix(1,0,0,-1,159.3,412.84)"
           style="font-variant:normal;font-weight:normal;font-size:16px;font-family:Helvetica;-inkscape-font-specification:Helvetica;writing-mode:lr-tb;fill:#000000;fill-opacity:1;fill-rule:nonzero;stroke:none"
           id="text58935"><tspan
             x="0"
             y="0"
             id="tspan58937">9</tspan></text>
<text
           transform="matrix(1,0,0,-1,220.35,412.84)"
           style="font-variant:normal;font-weight:normal;font-size:16px;font-family:Helvetica;-inkscape-font-specification:Helvetica;writing-mode:lr-tb;fill:#000000;fill-opacity:1;fill-rule:nonzero;stroke:none"
           id="text58939"><tspan
             x="0 8.8959999"
             y="0"
             sodipodi:role="line"
             id="tspan58941">10</tspan></text>
<text
           transform="matrix(1,0,0,-1,285.85,412.69)"
           style="font-variant:normal;font-weight:normal;font-size:16px;font-family:Helvetica;-inkscape-font-specification:Helvetica;writing-mode:lr-tb;fill:#000000;fill-opacity:1;fill-rule:nonzero;stroke:none"
           id="text58943"><tspan
             x="0 8.8959999"
             y="0"
             sodipodi:role="line"
             id="tspan58945">11</tspan></text>
<text
           transform="matrix(1,0,0,-1,351.35,412.69)"
           style="font-variant:normal;font-weight:normal;font-size:16px;font-family:Helvetica;-inkscape-font-specification:Helvetica;writing-mode:lr-tb;fill:#000000;fill-opacity:1;fill-rule:nonzero;stroke:none"
           id="text58947"><tspan
             x="0 8.8959999"
             y="0"
             sodipodi:role="line"
             id="tspan58949">12</tspan></text>
<text
           transform="matrix(1,0,0,-1,23.85,347.72)"
           style="font-variant:normal;font-weight:normal;font-size:16px;font-family:Helvetica;-inkscape-font-specification:Helvetica;writing-mode:lr-tb;fill:#000000;fill-opacity:1;fill-rule:nonzero;stroke:none"
           id="text58951"><tspan
             x="0 8.8959999"
             y="0"
             sodipodi:role="line"
             id="tspan58953">13</tspan></text>
<text
           transform="matrix(1,0,0,-1,89.35,347.56)"
           style="font-variant:normal;font-weight:normal;font-size:16px;font-family:Helvetica;-inkscape-font-specification:Helvetica;writing-mode:lr-tb;fill:#000000;fill-opacity:1;fill-rule:nonzero;stroke:none"
           id="text58955"><tspan
             x="0 8.8959999"
             y="0"
             sodipodi:role="line"
             id="tspan58957">14</tspan></text>
<text
           transform="matrix(1,0,0,-1,154.85,347.72)"
           style="font-variant:normal;font-weight:normal;font-size:16px;font-family:Helvetica;-inkscape-font-specification:Helvetica;writing-mode:lr-tb;fill:#000000;fill-opacity:1;fill-rule:nonzero;stroke:none"
           id="text58959"><tspan
             x="0 8.8959999"
             y="0"
             sodipodi:role="line"
             id="tspan58961">15</tspan></text>
<text
           transform="matrix(1,0,0,-1,220.35,347.72)"
           style="font-variant:normal;font-weight:normal;font-size:16px;font-family:Helvetica;-inkscape-font-specification:Helvetica;writing-mode:lr-tb;fill:#000000;fill-opacity:1;fill-rule:nonzero;stroke:none"
           id="text58963"><tspan
             x="0 8.8959999"
             y="0"
             sodipodi:role="line"
             id="tspan58965">16</tspan></text>
<text
           transform="matrix(1,0,0,-1,285.85,347.56)"
           style="font-variant:normal;font-weight:normal;font-size:16px;font-family:Helvetica;-inkscape-font-specification:Helvetica;writing-mode:lr-tb;fill:#000000;fill-opacity:1;fill-rule:nonzero;stroke:none"
           id="text58967"><tspan
             x="0 8.8959999"
             y="0"
             sodipodi:role="line"
             id="tspan58969">17</tspan></text>
<text
           transform="matrix(1,0,0,-1,351.35,347.72)"
           style="font-variant:normal;font-weight:normal;font-size:16px;font-family:Helvetica;-inkscape-font-specification:Helvetica;writing-mode:lr-tb;fill:#000000;fill-opacity:1;fill-rule:nonzero;stroke:none"
           id="text58971"><tspan
             x="0 8.8959999"
             y="0"
             sodipodi:role="line"
             id="tspan58973">18</tspan></text>
<text
           transform="matrix(1,0,0,-1,23.85,282.59)"
           style="font-variant:normal;font-weight:normal;font-size:16px;font-family:Helvetica;-inkscape-font-specification:Helvetica;writing-mode:lr-tb;fill:#000000;fill-opacity:1;fill-rule:nonzero;stroke:none"
           id="text58975"><tspan
             x="0 8.8959999"
             y="0"
             sodipodi:role="line"
             id="tspan58977">19</tspan></text>
<text
           transform="matrix(1,0,0,-1,89.35,282.59)"
           style="font-variant:normal;font-weight:normal;font-size:16px;font-family:Helvetica;-inkscape-font-specification:Helvetica;writing-mode:lr-tb;fill:#000000;fill-opacity:1;fill-rule:nonzero;stroke:none"
           id="text58979"><tspan
             x="0 8.8959999"
             y="0"
             sodipodi:role="line"
             id="tspan58981">20</tspan></text>
<text
           transform="matrix(1,0,0,-1,154.85,282.44)"
           style="font-variant:normal;font-weight:normal;font-size:16px;font-family:Helvetica;-inkscape-font-specification:Helvetica;writing-mode:lr-tb;fill:#000000;fill-opacity:1;fill-rule:nonzero;stroke:none"
           id="text58983"><tspan
             x="0 8.8959999"
             y="0"
             sodipodi:role="line"
             id="tspan58985">21</tspan></text>
<text
           transform="matrix(1,0,0,-1,220.35,282.44)"
           style="font-variant:normal;font-weight:normal;font-size:16px;font-family:Helvetica;-inkscape-font-specification:Helvetica;writing-mode:lr-tb;fill:#000000;fill-opacity:1;fill-rule:nonzero;stroke:none"
           id="text58987"><tspan
             x="0 8.8959999"
             y="0"
             sodipodi:role="line"
             id="tspan58989">22</tspan></text>
<text
           transform="matrix(1,0,0,-1,285.85,282.59)"
           style="font-variant:normal;font-weight:normal;font-size:16px;font-family:Helvetica;-inkscape-font-specification:Helvetica;writing-mode:lr-tb;fill:#000000;fill-opacity:1;fill-rule:nonzero;stroke:none"
           id="text58991"><tspan
             x="0 8.8959999"
             y="0"
             sodipodi:role="line"
             id="tspan58993">23</tspan></text>
<text
           transform="matrix(1,0,0,-1,351.35,282.44)"
           style="font-variant:normal;font-weight:normal;font-size:16px;font-family:Helvetica;-inkscape-font-specification:Helvetica;writing-mode:lr-tb;fill:#000000;fill-opacity:1;fill-rule:nonzero;stroke:none"
           id="text58995"><tspan
             x="0 8.8959999"
             y="0"
             sodipodi:role="line"
             id="tspan58997">24</tspan></text>
<text
           transform="matrix(1,0,0,-1,23.85,217.47)"
           style="font-variant:normal;font-weight:normal;font-size:16px;font-family:Helvetica;-inkscape-font-specification:Helvetica;writing-mode:lr-tb;fill:#000000;fill-opacity:1;fill-rule:nonzero;stroke:none"
           id="text58999"><tspan
             x="0 8.8959999"
             y="0"
             sodipodi:role="line"
             id="tspan59001">25</tspan></text>
<text
           transform="matrix(1,0,0,-1,89.35,217.47)"
           style="font-variant:normal;font-weight:normal;font-size:16px;font-family:Helvetica;-inkscape-font-specification:Helvetica;writing-mode:lr-tb;fill:#000000;fill-opacity:1;fill-rule:nonzero;stroke:none"
           id="text59003"><tspan
             x="0 8.8959999"
             y="0"
             sodipodi:role="line"
             id="tspan59005">26</tspan></text>
<text
           transform="matrix(1,0,0,-1,154.85,217.31)"
           style="font-variant:normal;font-weight:normal;font-size:16px;font-family:Helvetica;-inkscape-font-specification:Helvetica;writing-mode:lr-tb;fill:#000000;fill-opacity:1;fill-rule:nonzero;stroke:none"
           id="text59007"><tspan
             x="0 8.8959999"
             y="0"
             sodipodi:role="line"
             id="tspan59009">27</tspan></text>
<text
           transform="matrix(1,0,0,-1,220.35,217.47)"
           style="font-variant:normal;font-weight:normal;font-size:16px;font-family:Helvetica;-inkscape-font-specification:Helvetica;writing-mode:lr-tb;fill:#000000;fill-opacity:1;fill-rule:nonzero;stroke:none"
           id="text59011"><tspan
             x="0 8.8959999"
             y="0"
             sodipodi:role="line"
             id="tspan59013">28</tspan></text>
<text
           transform="matrix(1,0,0,-1,285.85,217.47)"
           style="font-variant:normal;font-weight:normal;font-size:16px;font-family:Helvetica;-inkscape-font-specification:Helvetica;writing-mode:lr-tb;fill:#000000;fill-opacity:1;fill-rule:nonzero;stroke:none"
           id="text59015"><tspan
             x="0 8.8959999"
             y="0"
             sodipodi:role="line"
             id="tspan59017">29</tspan></text>
<text
           transform="matrix(1,0,0,-1,351.35,217.47)"
           style="font-variant:normal;font-weight:normal;font-size:16px;font-family:Helvetica;-inkscape-font-specification:Helvetica;writing-mode:lr-tb;fill:#000000;fill-opacity:1;fill-rule:nonzero;stroke:none"
           id="text59019"><tspan
             x="0 8.8959999"
             y="0"
             sodipodi:role="line"
             id="tspan59021">30</tspan></text>
<text
           transform="matrix(1,0,0,-1,23.85,152.34)"
           style="font-variant:normal;font-weight:normal;font-size:16px;font-family:Helvetica;-inkscape-font-specification:Helvetica;writing-mode:lr-tb;fill:#000000;fill-opacity:1;fill-rule:nonzero;stroke:none"
           id="text59023"><tspan
             x="0 8.8959999"
             y="0"
             sodipodi:role="line"
             id="tspan59025">31</tspan></text>
<text
           transform="matrix(1,0,0,-1,89.35,152.34)"
           style="font-variant:normal;font-weight:normal;font-size:16px;font-family:Helvetica;-inkscape-font-specification:Helvetica;writing-mode:lr-tb;fill:#000000;fill-opacity:1;fill-rule:nonzero;stroke:none"
           id="text59027"><tspan
             x="0 8.8959999"
             y="0"
             sodipodi:role="line"
             id="tspan59029">32</tspan></text>
<text
           transform="matrix(1,0,0,-1,154.85,152.34)"
           style="font-variant:normal;font-weight:normal;font-size:16px;font-family:Helvetica;-inkscape-font-specification:Helvetica;writing-mode:lr-tb;fill:#000000;fill-opacity:1;fill-rule:nonzero;stroke:none"
           id="text59031"><tspan
             x="0 8.8959999"
             y="0"
             sodipodi:role="line"
             id="tspan59033">33</tspan></text>
<text
           transform="matrix(1,0,0,-1,220.35,152.34)"
           style="font-variant:normal;font-weight:normal;font-size:16px;font-family:Helvetica;-inkscape-font-specification:Helvetica;writing-mode:lr-tb;fill:#000000;fill-opacity:1;fill-rule:nonzero;stroke:none"
           id="text59035"><tspan
             x="0 8.8959999"
             y="0"
             sodipodi:role="line"
             id="tspan59037">34</tspan></text>
<text
           transform="matrix(1,0,0,-1,285.85,152.34)"
           style="font-variant:normal;font-weight:normal;font-size:16px;font-family:Helvetica;-inkscape-font-specification:Helvetica;writing-mode:lr-tb;fill:#000000;fill-opacity:1;fill-rule:nonzero;stroke:none"
           id="text59039"><tspan
             x="0 8.8959999"
             y="0"
             sodipodi:role="line"
             id="tspan59041">35</tspan></text>
<text
           transform="matrix(1,0,0,-1,351.35,152.34)"
           style="font-variant:normal;font-weight:normal;font-size:16px;font-family:Helvetica;-inkscape-font-specification:Helvetica;writing-mode:lr-tb;fill:#000000;fill-opacity:1;fill-rule:nonzero;stroke:none"
           id="text59043"><tspan
             x="0 8.8959999"
             y="0"
             sodipodi:role="line"
             id="tspan59045">36</tspan></text>
</g></g></g></svg>